<?xml version="1.0" encoding="UTF-8"?>
<svg id="Layer_1" data-name="Layer 1" xmlns="http://www.w3.org/2000/svg" width="133.5" height="180" viewBox="0 0 133.5 180">
  <defs>
    <style>
      .cls-1 {
        fill: #373b3c;
        opacity: .5;
      }

      .cls-2 {
        fill: #f9fbf9;
      }

      .cls-3 {
        fill: #6a83b0;
      }

      .cls-4 {
        fill: #992b49;
      }

      .cls-5 {
        fill: #cf2e4a;
      }

      .cls-6 {
        fill: #94c9db;
      }

      .cls-7 {
        fill: #00002c;
      }
    </style>
  </defs>
  <path class="cls-7" d="M5.78,98.46c-.85,13.54,1.5,26.49,9.4,37.66,3.52,4.98,3.3,9.68,2.56,14.9-.43,3.05-1.33,6.03-1.15,9.16-1.06,3.59,.65,6.95,4.65,8.3,6.75,2.29,14.07,3.15,20.6,1.02,4.52-1.48,7.54-1.02,11.71,.39,8.65,2.92,17.67,2.83,26.47,0,5.37-1.72,8.78-6.32,8.6-11.2,.92-7.01-.44-13.43-5.55-19.19,3.93-.27,7.34-.59,10.75-.71,6.31-.22,10.5-3.25,12.83-9.04,2.4-5.96,3.1-12.26,3.45-18.56,.79-13.94-.83-27.71-3.54-41.38-.66-3.35-2.5-5.42-5.64-6.78-5.88-2.55-11.96-3.33-18.24-2.54-1.6,.2-2.48-.12-3.39-1.4-2.16-3.04-5.26-5.05-8.69-6.18-13.8-4.58-27.76-6.18-41.58-.25-8.2,3.52-14.82,9.03-18.74,17.29,3.75,.4,7.15-1.51,10.83-1.58,12.33-12.24,27.36-10.76,42.58-8.27,.99,.16,1.87,.66,2.78,1.05,5.51,2.23,8.48,6.89,10.74,11.88,7.02,15.53,8.26,31.88,5.65,48.48-1.55,9.89-6.28,14.09-16.18,15.99-.61,.12-1.24,.17-1.85,.3-3.52,.78-5.15,2.71-4.7,5.56,.42,2.67,2.86,4.57,6.07,4.33,2.98-.23,5.96-.56,8.94-.81,2.1-.18,3.25,.75,4.04,2.55,2.73,6.22,.76,10.42-5.76,12.03-4.68,1.16-9.4,.93-14.13,.33-3.08-.39-4.9-2.14-6.01-4.91-1.63-4.07-2.54-8.31-3.31-12.59-1.05-5.81-3.19-7-8.5-4.59-1.69,.77-3.32,.88-5.09,.52-7.57-1.56-13.18-5.63-16.64-12.58-2.92-5.86-4.72-12-5.07-18.53-.19-2.24-.4-4.49-.61-6.74-2.33-2.19-5-3.69-8.27-3.93Z"/>
  <path class="cls-1" d="M88.62,158.69c-2.54,9.08-9.55,11.69-17.94,11.96-4.32,.14-8.66,.36-12.99-.62-3.45-.78-6.79-1.59-9.37-4.1-1.43-1.39-2.32-1.18-2.93,.58-.72,2.04-2.6,2.4-4.22,2.51-6.58,.44-13.21,.72-19.57-1.41-3.38-1.13-5.08-3.8-5-7.44-2.78,.71-5.47,1.69-7.96,3.11-4.9,2.79-4.9,6.35-.05,9.2,5.7,3.35,12.18,4.43,18.51,5.34,21.83,3.13,43.64,3.18,65.26-1.84,3.28-.76,6.5-1.72,9.42-3.42,5.03-2.93,4.95-6.53-.16-9.4-4.06-2.28-8.64-3.04-13-4.46Z"/>
  <path class="cls-7" d="M5.78,98.46c2.56,1.39,5.04,2.93,7.88,3.73,.8,1.44,2.2,1.95,3.69,2.27,10.97,2.39,22.04,2.69,33.03,.55,13.08-2.54,17.34-10.9,15.7-23.62-.85-6.57-5.44-10.7-11.68-12.84-6.21-2.13-12.66-2.69-19.17-2.52-4.69,.12-9.52-.8-13.93,1.7-3.88-.23-7.57,.45-11.03,2.22C1.59,75.09-1.68,82.6,.82,91.28c.87,3.01,2.83,5.12,4.97,7.18Z"/>
  <path class="cls-4" d="M13.65,108.1c.25,8.48,2.45,16.44,7.15,23.51,4.18,6.3,10.53,9.26,17.97,9.99,1.21,.12,2.26,.04,3.41-.91,3.33-2.77,6.18-1.62,6.72,2.65,.63,5.07,1.75,9.99,3.7,14.72,1.11,2.7,2.76,4.29,5.96,4.72,6.14,.82,12.1,.9,18.06-1.11,3.18-1.07,4.83-2.83,4.48-6.25-.09-.86,.03-1.74-.03-2.6-.39-6.05-1.83-7.35-7.78-6.92-1.98,.14-3.94,.3-5.9,.81-3.31,.86-6.53-.85-6.7-3.49-.22-3.5,2.28-3.95,5.09-4.53,11.63-2.41,16.18-5.35,17.95-16.3,2.67-16.49,1.95-32.89-5.05-48.45-2.64-5.87-5.49-11.8-12.44-13.98-.37,1.05,.09,1.94,.55,2.83,5.91,11.24,6.85,23.2,4.85,35.47-.92,5.62-2.35,11.16-4.73,16.42-1.59,3.51-4.11,5.94-7.82,6.93-10.07,2.67-20.19,2.95-30.25-.01-5.37-1.58-9.42-4.95-12.18-9.84-.77-1.37-1.25-3.04-3-3.63Z"/>
  <path class="cls-5" d="M13.65,108.1c4.59,12.04,14.32,16.02,26.23,16.36,6.08,.17,12.17,.27,18.17-1.37,5.19-1.42,8.57-4.31,10.52-9.45,5.27-13.84,6.34-27.88,2.91-42.27-.99-4.15-3-7.84-5.25-11.41-3.51-1.89-7.46-1.61-11.23-2.12-7.98-1.06-15.91-.64-23.53,2.25-4.1,1.55-7.87,3.67-10.16,7.65,8.1-.44,16.19-.64,24.29,0,2.76,.22,5.43,.85,8.04,1.67,7.24,2.29,11.64,7.84,11.71,14.63,.11,11.01-2.81,16.4-11.51,18.84-13.37,3.74-26.84,3.31-40.17-.68-1.24,1.97-.08,3.94-.01,5.91Z"/>
  <path class="cls-4" d="M88.77,76.1c5.11,17.57,5.03,35.2,.36,52.82-.53,2-.08,2.23,1.7,2.35,5.55,.4,7.79-1.01,9.7-6.5,1.61-4.63,1.9-9.5,2.11-14.29,.47-10.78,.21-21.56-.69-32.33-3.1-3.36-8.71-4.23-13.17-2.05Z"/>
  <path class="cls-4" d="M25.94,145.77c-.62,4.31-1.12,8.23-1.75,12.13-.41,2.57,.65,3.73,3.19,3.75,1.25,0,2.49,.12,3.74,.1,10.68-.17,7.35,1.1,11.44-8.46,.93-2.18,.59-3.99-2.58-4.38-4.67-.59-9.41-1.05-14.04-3.14Z"/>
  <path class="cls-5" d="M88.77,76.1c4.55-.35,9.04-.3,13.17,2.05-.73-8.15-7.69-12.63-15.41-9.99-1.32,.45-.97,1.12-.58,1.95,.94,2,1.88,4,2.81,6Z"/>
  <path class="cls-6" d="M16.88,75.19c-5.54,.37-7.9,2.9-8.37,8.97,.3,3.59,2.4,5.56,5.79,6.34,9.68,2.2,19.32,2.14,28.86-.7,3.01-.9,5.79-2.36,8.11-4.51,2.9-2.68,3.06-5.9,.55-9.21-1.41-1.82-3.55-1.57-5.46-1.76-7.89-.78-15.79-.83-23.68-.06,1.17,1.88,3.12,.99,4.73,1.32,1.24,.26,2.66,.39,2.67,2.02,0,1.41-1.27,1.7-2.38,1.91-3.55,.69-7.13,1.21-10.67,1.9-1.49,.29-3.24,.45-3.91-1.25-.65-1.65,1.01-2.29,2.09-3.08,.7-.51,1.48-.94,1.69-1.89Z"/>
  <path class="cls-3" d="M51.82,76.08c1.7,6.26,.83,8.42-5.18,11.14-10.89,4.94-22.19,4.56-33.54,1.95-2.53-.58-3.62-2.83-4.59-5.01-.48,8.22,.67,10.34,8.62,12.48,10.13,2.73,20.45,3.65,30.8,.94,8.58-2.24,12.09-8.8,9.14-16.95-.9-2.5-2.4-4.3-5.25-4.57Z"/>
  <path class="cls-2" d="M16.88,75.19c-1.23,.58-2.51,1.07-3.68,1.75-1.24,.72-2.19,1.73-1.72,3.34,.44,1.49,1.7,2.44,3.06,2.27,5.15-.66,10.28-1.49,15.37-2.48,1.24-.24,1.99-1.63,1.89-2.93-.12-1.56-1.36-2.38-2.8-2.54-2.09-.23-4.21-.24-6.32-.35-1.93,.31-3.87,.62-5.8,.94Z"/>
</svg>