<?xml version="1.0" encoding="UTF-8"?>
<svg id="Layer_1" data-name="Layer 1" xmlns="http://www.w3.org/2000/svg" width="133.5" height="180" viewBox="0 0 133.5 180">
  <defs>
    <style>
      .cls-1 {
        fill: #2bce64;
      }

      .cls-2 {
        fill: #373b3c;
        opacity: .5;
      }

      .cls-3 {
        fill: #f9fbf9;
      }

      .cls-4 {
        fill: #6a83b0;
      }

      .cls-5 {
        fill: #2f9f5b;
      }

      .cls-6 {
        fill: #94c9db;
      }

      .cls-7 {
        fill: #00002c;
      }
    </style>
  </defs>
  <path class="cls-7" d="M101.54,88.28c-.43,11.65,.23,23.52-6.2,34.05-.96,1.57-.12,1.92,.98,2.75,7.13,5.39,13.06,11.84,16.5,20.28,3.96,9.73,1.6,15.97-7.8,20.88-5.1,5.89-15.21,6.27-20.35,.68-2.53-2.76-4.34-5.97-5.04-9.72-4.51-6.89-8.98-13.79-17.63-16.17-2.05-.56-3.66-.5-5.59,.61-5.37,3.08-10.56,6.57-16.07,9.28-7.98,3.92-15.72,1.64-22.66-3.31-3.42-2.44-6.61-5.24-9.76-8.05-4.58-4.08-4.68-8.48-.58-12.91,2.18-2.35,4.22-4.83,6.52-7.47-10.71-3.12-11.77-12.2-12.92-20.86-2.17-16.37-.27-32.57,2.86-48.67,.62-3.19,2.35-5.26,5.39-6.56,5.47-2.34,11.07-3.42,17-2.79,1.27,.14,2.57,.47,3.49-1.2,4.94-8.92,13.29-11.87,22.69-12.5,9.21-.61,18.29,.09,26.94,3.86,9.35,4.08,15.8,10.9,19.61,20.35-4.15,.15-7.92-1.48-11.83-2.49-3.71-3.84-7.45-7.57-12.42-9.87-11.09-5.11-21.91-3.94-32.63,1.03-1.72,.79-2.92,2.28-4.18,3.66-2.63,3.01-3.57,6.78-4.73,10.47-2.95,9.41-2.94,19.17-3.53,28.87-.46,7.62-.37,15.22,.54,22.77,1.42,11.79,5.62,18.84,17.36,23.41,7.5,2.92,15.34,4.97,22.84,7.96,5.3,2.12,9.33,5.45,11.66,10.85,1.57,3.66,3.4,7.22,5.37,10.69,2.2,3.87,3.16,4.22,7.54,3.63,2.98-.4,5.85-.86,8.28-2.91,2.46-2.06,3.41-4.43,2.55-7.61-.83-3.07-2.35-5.78-4.07-8.37-4.09-6.15-8.59-11.91-15.34-15.4-1.94-1-3.62-2.33-1.62-4.59,6.93-7.85,7.91-17.46,8.2-27.3,.01-.37,0-.75,0-1.12,.03-.78,.14-1.55,.44-2.27,2.23-2.38,4.76-4.12,8.21-3.95Z"/>
  <path class="cls-2" d="M79.62,157.2c2.03,2.08,2.57,5.01,4.14,7.34,3.27,4.84,7.05,6.18,12.72,4.95,3.04-.66,5.8-1.89,8.54-3.26-.08,4.38-3.07,6.26-6.57,7.61-8.16,3.15-16.72,4.59-25.36,5.28-19.47,1.54-38.87,1.45-57.89-3.87-2.13-.6-4.21-1.47-6.21-2.43-2.05-.98-4.08-2.35-4.13-4.87-.05-2.76,2.23-4.02,4.35-5.09,5.14-2.57,10.67-4.01,16.29-4.87,18-2.75,36.06-2.26,54.13-.82Z"/>
  <path class="cls-7" d="M87.28,47.83c4,.51,7.94,1.23,11.63,2.98,12.45,5.53,15,29.03,2.64,37.47-2.51,1.23-5.03,2.46-7.54,3.7-3.41,2.78-7.66,2.87-11.63,3.17-6.03,.46-12.11,.58-18.15-.33-13.46-2.02-18.52-7.07-20.31-20.61-.85-6.46-.27-12.68,3.65-18.22,4.33-6.14,10.78-8.21,17.66-9,6.27-.72,12.61-.24,18.92-.19,1.13,0,2.18,.43,3.14,1.04Z"/>
  <path class="cls-5" d="M93.89,93.82c.22,7.8-.71,15.41-3.77,22.66-.78,1.85-1.78,3.57-3.06,5.1-3.01,3.62-2.89,3.38,.92,5.76,8.82,5.5,14.87,13.45,18.47,23.14,2.09,5.64-1.27,10.35-7.83,11.93-.24,.06-.49,.07-.73,.11-8.3,1.44-9.09,1.05-13-6.61-1.53-2.99-3.17-5.94-4.41-9.05-1.6-3.98-4.57-6.47-8.21-8.21-7.51-3.58-15.55-5.73-23.39-8.43-13.09-4.51-18.61-11.91-19.86-26.25-1.28-14.69-.6-29.36,1.61-43.93,.67-4.42,1.98-8.73,3.71-12.88,.7-1.68,1.1-3.61,2.88-4.63,1.46,4.01,.11,8.03-.01,12.05-.38,12.06-1.53,24.15,1.74,36.03,2.54,9.21,7.47,16.63,16.95,19.19,14.79,3.99,25.55,2.14,35-12.41,.85-1.31,1.19-3.09,3.01-3.59Z"/>
  <path class="cls-1" d="M93.89,93.82c-1.81,3.99-4.13,7.62-7.2,10.77-8.65,8.9-19.12,9.71-30.22,6.6-11.27-3.16-16.89-11.65-19.11-22.6-2.93-14.44-1.96-28.97-.26-43.48,.1-.85,.06-1.71,.09-2.56,4.09-5.46,10.3-6.91,16.34-7.82,13.55-2.05,25.28,1.47,33.74,13.11-8.27,.36-16.57-.75-24.81,.68-11.61,2.01-17.77,9.32-17.6,21.14,.04,2.97,.4,5.96,.82,8.91,1.01,7,5.14,11.42,11.73,13.48,11.29,3.54,22.67,2.89,34.05,.38,.84-.18,1.69-.3,2.53-.45-.04,.61-.07,1.22-.11,1.84Z"/>
  <path class="cls-5" d="M23.85,56.33c-2.85,14.65-3.54,29.43-2.71,44.3,.11,1.99,.57,4.02,.29,5.95-.24,1.64,1.84,4.21-.57,4.74-2.97,.65-6.51,1.35-8.87-1.94-1.62-2.27-2.57-4.81-3.06-7.54-2.04-11.51-1.55-23.1-1.13-34.69,.11-2.99,.35-5.97,.54-8.95,3.28-3.6,11.25-4.55,15.5-1.86Z"/>
  <path class="cls-5" d="M47.32,137.83c-4.53,2.65-8.25,4.85-12,7-1.75,1-3.62,.46-5.43,.13-7.1-1.3-11.97-6.19-17.07-10.72-.9-.8-.68-1.48-.11-2.24,2.16-2.93,4.83-5.35,7.78-7.42,1-.7,2.17-.27,3.19,.24,2.33,1.16,4.81,2.09,6.93,3.56,5.08,3.53,10.01,7.27,16.72,9.45Z"/>
  <path class="cls-1" d="M23.85,56.33c-5.3-.47-10.59-.96-15.5,1.86,.94-8.6,7.14-12.43,15.84-9.89,1.47,.43,1.24,1.36,1.06,2.27-.39,1.94-.92,3.85-1.4,5.77Z"/>
  <path class="cls-6" d="M89.94,56.73c8.15,.1,11.54,3.92,11.3,12.77-.32,3.94-2.66,5.96-6.32,6.66-8.84,1.69-17.67,2.15-26.43-.42-3.25-.95-6.17-2.61-8.65-4.93-4.35-4.05-4.59-8.39-.83-13.14,3.9-2.05,8.18-1.74,12.35-1.83,3.83-.08,7.68-.42,11.5,.27-.23,.6-.68,1.01-1.21,1.35-1.14,.74-2.46,1.43-2.11,3.11,.35,1.71,1.75,2.35,3.26,2.58,3.17,.49,6.22,1.48,9.35,2.09,1.85,.36,3.94,.59,4.71-1.66,.79-2.29-1.07-3.26-2.73-4.18-1.45-.81-3.44-.78-4.2-2.69Z"/>
  <path class="cls-4" d="M59.01,57.68c-4.27,9.42,.24,12.95,7.18,16.03,9.89,4.4,20.31,3.41,30.56,.94,2.47-.6,3.39-3.08,4.49-5.15,1.5,7.75,.33,10.62-7.04,13.69-10.67,4.44-21.79,5.11-32.88,1.69-5.98-1.85-8.73-6.79-9.05-12.82-.31-5.86,.35-11.55,6.74-14.37Z"/>
  <path class="cls-3" d="M89.94,56.73c1.84,.71,3.73,1.31,5.51,2.15,2.07,.98,3.52,2.61,2.71,5.06-.79,2.39-2.81,3.03-5.11,2.52-3.85-.85-7.6-2.06-11.58-2.43-2.01-.18-3.25-1.82-3.27-3.96-.03-3.11,2.73-3.07,4.66-3.95,2.37,.2,4.73,.4,7.08,.6Z"/>
</svg>