<?xml version="1.0" encoding="UTF-8"?>
<svg id="Layer_1" data-name="Layer 1" xmlns="http://www.w3.org/2000/svg" width="133.5" height="180" viewBox="0 0 133.5 180">
  <defs>
    <style>
      .cls-1 {
        fill: #2bce64;
      }

      .cls-2 {
        fill: #373b3c;
        opacity: .5;
      }

      .cls-3 {
        fill: #f9fbf9;
      }

      .cls-4 {
        fill: #6a83b0;
      }

      .cls-5 {
        fill: #2f9f5b;
      }

      .cls-6 {
        fill: #94c9db;
      }

      .cls-7 {
        fill: #00002c;
      }
    </style>
  </defs>
  <path class="cls-7" d="M20.62,76.15c-.17,9.45,.36,18.85,2.51,28.07,.65,2.77,.15,3.92-2.57,4.77-7.43,2.32-13.56,6.67-18.07,13.05-4.06,5.75-3.12,12.16,2.42,17.74,2.19,2.21,4.73,3.99,7.54,5.37,5.68,2.8,10.99,2.77,16.37-1.17,5.68-4.16,10.73-9.2,17.19-12.31,1.56-.75,2.96-.97,4.61-.83,5.31,.43,10.63,.89,15.95,1.06,2.45,.08,4.08,.9,5.67,2.8,8.04,9.62,22.05,13.74,33.69,9.03,7.43-3,13.34-8.52,16.8-16.05,1.47-3.21,1.1-6.53-.72-9.64-1.69-2.88-3.24-5.85-4.94-8.72-.4-.67-.85-1.09-.27-1.92,5.95-8.4,6.01-18.23,6.31-27.86,.39-12.45-1.2-24.77-3.66-36.98-.65-3.23-2.33-5.36-5.36-6.56-5.11-2.01-10.3-3.62-15.88-2.89-1.64,.22-2.5-.26-3.11-1.77-4.47-11.08-13.54-15.35-24.64-16.13-9.48-.67-18.84,.2-27.64,4.24-8.98,4.12-15.36,10.7-18.79,20.05,3.86-.37,7.56-1.45,11.3-2.4,3.38-2.5,6.08-5.84,9.83-7.9,12.45-6.86,24.87-7.69,37.29,.06,2.96,1.8,4.26,4.77,5.42,7.8,3.49,9.16,4.84,18.71,5.3,28.45,.27,5.7,1.24,11.42,1.02,17.07-.46,11.82,.48,23.97-5.98,34.8-.68,1.14-1.56,2.47-.53,3.79,1.01,1.29,2.51,.77,3.83,.54,2.36-.4,4.05-1.82,5.23-3.84,1.38-2.37,3.4-3.9,5.96-4.8,3.69-1.29,6.51-.43,8.82,2.73,.03,.04,.1,.15,.21,.31,4.97,7.23,2.14,14.78-7.28,18.93-9.18,4.05-17.76,1.82-25.03-4.17-4.24-3.49-8.27-5.29-13.72-5.11-6.29,.2-12.75,.15-18.5-3.03-11.84-6.54-16.83-17.01-16.83-30.21-.3-4.11-1.31-8.15-1.24-12.3-2.32-2.41-4.93-4.23-8.49-4.06Z"/>
  <path class="cls-2" d="M68.64,179.9c13.54,.47,26.65-1.01,39.52-4.5,2.4-.65,4.71-1.53,6.83-2.84,4.6-2.82,4.64-6.37-.09-9.01-5.35-2.99-11.27-4.47-17.27-5.32-19.48-2.77-39-2.74-58.47,.01-5.37,.76-10.67,2.15-15.62,4.5-2.36,1.12-5.06,2.32-5.01,5.37,.05,2.99,2.67,4.3,5.07,5.37,7.55,3.36,15.67,4.4,23.75,5.53,7.13,.99,14.32,1.13,21.29,.89Z"/>
  <path class="cls-7" d="M35.3,36.55c-3.88,.5-7.86,.66-11.28,2.94-12.07,4.64-15.18,27.97-3.4,36.66,2.66,1.26,5.31,2.51,7.97,3.77,.81,1.43,2.18,1.97,3.67,2.28,9.94,2.03,19.89,2.77,29.87,.23,11.5-2.92,15.56-7.63,16.58-19.37,.27-3.1,.26-6.22,.02-9.31-.56-7.45-6.21-14.44-14.01-16.7-9.09-2.63-18.46-1.52-27.73-1.24-.6,.02-1.16,.42-1.69,.74Z"/>
  <path class="cls-1" d="M35.3,36.55c8.53,.22,17.1-.89,25.59,.65,11.13,2.02,17.02,9.13,16.96,20.41-.01,2.47-.2,4.95-.39,7.42-.75,9.42-6.37,14.49-15.13,16.34-11.33,2.39-22.62,2.06-33.73-1.45-1.3,4.16,.65,8.12,.72,12.19,1.45,10.75,12.15,18.75,22.11,17.97,5.9-.46,11.84,.16,17.75-1.19,7.13-1.63,11.63-5.83,13.77-12.65,2.53-8.07,4.46-16.36,4.63-24.8,.18-8.93,1.27-17.81,.93-26.75-.23-5.99-1.83-11.47-5.61-16.21-6.27-4.99-13.6-6.09-21.26-5.57-10.7,.72-19.62,5.11-26.34,13.64Z"/>
  <path class="cls-5" d="M82.9,28.48c5.41,9.75,4.54,20.32,4.17,30.87-.36,10.31-1.21,20.53-3.4,30.65-2.98,13.73-8.41,18.43-22.5,18.83-1.98,.06-3.98-.08-5.95,.15-13.31,1.54-21.34-4.97-25.9-16.87-1.2,13.21,7.85,28.63,19.89,32.85,4.85,1.7,10.19,2.14,15.42,1.76,5.45-.4,9.66,1.07,14.05,4.89,7.03,6.13,15.76,8.31,24.98,4.85,5.43-2.04,8.89-6.54,12.1-11.16,.21-.3,.36-.67,.43-1.03,.64-3.02-4.69-11.31-8.01-12.5-3.85-1.37-9.72,.98-11.76,4.78-.77,1.43-1.36,2.94-3.04,3.58-1.74,.66-3.97,1.79-5.22,.63-1.12-1.04,.82-2.76,1.59-4.02,3.71-6.06,4.6-12.91,4.91-19.68,.94-20.25,.7-40.46-5.68-60.04-1.13-3.45-2.56-6.76-6.07-8.54Z"/>
  <path class="cls-5" d="M100.22,49.15c.83,11.13,1.97,22.24,2.39,33.39,.23,6.16-.55,12.39-1.26,18.54-.29,2.49,.63,2.9,2.62,3.16,4.57,.61,6.89-.61,8.83-4.94,2.28-5.11,2.54-10.63,2.76-16.05,.44-10.8,.37-21.61-.69-32.39-3.21-3.21-9.78-3.98-14.64-1.71Z"/>
  <path class="cls-5" d="M38.09,127.24c-3.96-3.01-7.42-6.49-9.99-10.78-1.25-2.08-3.18-1.74-4.95-1.13-6.37,2.22-10.42,7.36-14.77,12.09-.44,.48-.44,1.08-.34,1.74,1.26,8.51,11.38,12.87,18.15,7.72,4.01-3.06,7.85-6.35,11.91-9.65Z"/>
  <path class="cls-1" d="M100.22,49.15c5.03-.7,9.96-.55,14.64,1.71-.92-8.08-7.37-12.21-15.17-9.81-1.09,.34-.9,.84-.75,1.58,.44,2.17,.85,4.35,1.27,6.52Z"/>
  <path class="cls-6" d="M30.9,45.57c-5.21,.12-7.05,1.77-9.1,8.15-.94,7.74,.54,9.99,7.92,11.4,8.12,1.55,16.21,1.38,24.24-.77,3.82-1.02,7.02-3.02,9.71-5.87,3.45-3.64,3.43-8.43,0-12.26-3.46-2.02-7.41-1.76-11.12-1.91-5.49-.23-11.05-.8-16.53,.44,1.24,1.37,3.05,.77,4.54,1.28,1.32,.45,2.73,.84,2.78,2.55,.04,1.41-.93,2.56-2.11,2.77-4.14,.72-8.12,2.17-12.28,2.7-1.42,.18-2.73-.52-3.18-2.05-.42-1.4,.55-2.29,1.43-3.2,1.14-1.19,3.48-1,3.69-3.24Z"/>
  <path class="cls-4" d="M63.68,46.22c3.3,7.64,1.52,12.44-6.75,15.89-10.07,4.19-20.57,3.95-30.89,.96-4.45-1.29-4.22-5.59-4.24-9.35-1.71,10.8-1.48,15.36,9.1,18.83,9.63,3.16,19.34,3.91,29.21,1.3,5.74-1.51,9.82-5.96,10.13-11.45,.36-6.34,.88-12.92-6.55-16.18Z"/>
  <path class="cls-3" d="M30.9,45.57c-1.58,.86-3.27,1.58-4.71,2.63-1.47,1.07-2.33,2.6-1.43,4.51,.83,1.75,2.27,2.72,4.18,2.36,4.22-.81,8.33-2.12,12.63-2.64,2.17-.26,3.1-2.07,3.08-4.04-.01-2.06-1.62-2.97-3.45-3.24-1.7-.26-3.43-.27-5.15-.39-1.65,.65-3.36,.99-5.14,.82Z"/>
</svg>