<?xml version="1.0" encoding="UTF-8"?>
<svg id="Layer_1" data-name="Layer 1" xmlns="http://www.w3.org/2000/svg" width="133.5" height="180" viewBox="0 0 133.5 180">
  <defs>
    <style>
      .cls-1 {
        fill: #373b3c;
        opacity: .5;
      }

      .cls-2 {
        fill: #f9fbf9;
      }

      .cls-3 {
        fill: #6a83b0;
      }

      .cls-4 {
        fill: #f7bc0d;
      }

      .cls-5 {
        fill: #d58917;
      }

      .cls-6 {
        fill: #94c9db;
      }

      .cls-7 {
        fill: #00002c;
      }
    </style>
  </defs>
  <path class="cls-7" d="M13.18,74.09c.41,11.51-.12,23.21,6.17,33.62,1.14,1.88-.03,2.17-1.15,3.04-7.4,5.72-13.57,12.45-16.89,21.37-2.97,7.99-.86,13.95,6.43,18.45,2.99,1.85,6.19,3.21,9.6,4.04,7.19,1.75,11.89-.29,14.99-6.97,2.5-5.39,6.26-9.84,9.86-14.42,3.13-3.98,7.71-5.74,12.38-7.25,1.38-.45,2.47,.15,3.52,.74,4.55,2.55,9.23,4.94,13.56,7.83,8.42,5.61,16.64,4.26,24.52-.62,4.31-2.67,8.09-6.22,11.95-9.54,1.81-1.55,2.69-3.6,2.88-6.2,.29-4.07,2.59-7.68,3.29-11.74,2.42-14.03,1.42-27.98-.49-41.94-.49-3.56-1.26-7.09-1.87-10.63-.53-3.07-2.2-5.16-5.12-6.35-3.82-1.55-7.74-3.14-11.85-3.01-3.18,.1-3.61-1.34-4.08-3.79-.79-4.12-1.69-8.2-3.37-12.15-4.07-9.58-11.51-14.4-21.48-15.72-10.82-1.43-21.44-.61-31.49,3.97-8.9,4.06-15.15,10.72-18.61,19.9,3.95-.12,7.69-1.27,11.45-2.36,4.09-4.01,8.13-8.11,13.58-10.34,10.82-4.44,21.45-3.56,31.9,1.28,1.61,.75,2.69,2.2,4.01,3.33,2.03,1.68,2.71,4.12,3.63,6.42,3.82,9.52,4.54,19.59,4.94,29.65,.3,7.55,.72,15.12,.07,22.68-1.28,14.97-6.18,23.09-20.22,27.67-6.29,2.05-12.58,4.09-18.82,6.27-6.18,2.16-10.94,5.78-13.64,11.92-1.45,3.3-3.21,6.47-4.86,9.68-1.54,2.99-3.76,4.48-7.21,4.15-1.74-.16-3.48-.13-5.18-.66-6.19-1.94-8.22-5.81-5.73-11.76,3.8-9.08,9.94-16.3,18.39-21.47,3.14-1.92,3.47-3.04,1.13-5.85-4.5-5.39-6.31-11.79-7.02-18.56-.35-3.33-.84-6.67-.87-10.03-.07-.6-.25-1.16-.57-1.67-2.45-1.32-4.33-4.09-7.73-2.98Z"/>
  <path class="cls-1" d="M61.58,158.14c-15.04-.05-28.72,.34-41.91,4.76-2.11,.71-4.24,1.51-6.12,2.67-4.29,2.63-4.24,5.92,0,8.61,2.97,1.89,6.3,2.95,9.71,3.7,24.93,5.49,49.86,5.49,74.79,0,3.16-.7,6.25-1.69,9.07-3.32,5.08-2.93,5.15-6.68-.05-9.38-6.81-3.53-14.26-4.97-21.82-5.9-8.31-1.02-16.64-1.23-23.68-1.14Z"/>
  <path class="cls-7" d="M13.18,74.09c2.91,.19,4.77,2.85,7.61,3.19,.61,1.24,1.74,1.75,2.98,2.03,10.99,2.48,21.94,2.92,32.93-.21,8.6-2.45,13.35-8,14.09-16.77,.46-5.54,1.17-11.18-1.15-16.56-3.47-8.08-10.06-11.72-18.43-12.66-6.96-.78-13.96-.27-20.95-.29-1.03,0-1.94,.43-2.81,.93-3.92,.69-7.98,.84-11.53,2.97-12.83,5.41-14.37,28.52-3.99,36.01,.49,.35,.83,.9,1.24,1.35Z"/>
  <path class="cls-5" d="M20.67,78.73c.12,8.22,.76,16.35,4.38,23.92,.74,1.55,1.65,3.08,2.73,4.42,3,3.69,2.91,3.43-.95,5.82-8.98,5.56-15.18,13.53-18.69,23.4-1.96,5.53,1.92,10.3,8.83,11.68,7.24,1.44,9.08,.62,12.59-5.87,1.48-2.73,3-5.47,4.1-8.35,2.29-5.99,6.93-9.21,12.65-11.24,6.33-2.24,12.69-4.42,19.07-6.49,14.64-4.74,19.81-12.8,20.98-27.41,1.08-13.49,.35-27.02-1.37-40.45-.77-6.03-2.58-11.87-5.19-17.4-.56-1.19-.95-2.64-2.64-2.83-.41,.68-.47,1.44-.29,2.17,1.85,7.57,.88,15.35,1.66,23.02,.86,8.45-.4,16.91-2.91,25.05-3.66,11.88-13.31,18.4-25.8,18.94-12.87,.56-21.36-5.26-27-16.22-.47-.91-.62-2.27-2.18-2.14Z"/>
  <path class="cls-4" d="M20.67,78.73c2.37,5.89,6,10.85,11.15,14.59,16.69,12.13,40.7,2.79,45.69-17.72,2.47-10.15,2.38-20.43,1.74-30.75-.35-5.69-.06-11.45-2.06-16.93-3.54-5.13-9.31-6.17-14.7-7.11-14.04-2.44-26.19,1-35.03,12.94,8.45,.3,16.96-.85,25.37,.65,11.47,2.04,17.34,9.11,17.31,20.6-.05,17-5.31,23.1-22.39,24.76-9.05,.88-18.17,.53-26.95-2.49-.04,.48-.08,.97-.12,1.45Z"/>
  <path class="cls-5" d="M94.11,60.41c.68,10.03,.06,20.05-.17,30.07-.08,3.26-.99,6.34-1.46,9.51-.11,.78-1.12,2.38,.69,2.19,5.79-.6,9.06,3.07,12.79,7.75,3.39-16.65,2.41-32.52,1.4-48.38-4.24-2.36-8.62-3.18-13.24-1.14Z"/>
  <path class="cls-5" d="M67.95,123.33c4.61,2.71,8.42,5.29,12.53,7.23,2.42,1.14,5.11-.22,7.61-.97,5.85-1.74,9.89-6.07,14.28-9.9,1.28-1.12,.48-2.09-.26-2.85-2.09-2.13-4.26-4.18-6.47-6.18-1.4-1.26-3.05-.98-4.55-.21-2.66,1.35-5.46,2.55-7.84,4.3-4.53,3.33-9.22,6.3-15.3,8.58Z"/>
  <path class="cls-4" d="M94.11,60.41c4.53-.91,8.84,.65,13.24,1.14-1.13-7.46-5.42-10.46-12.74-9.1-1.5,.28-1.45,1.06-1.33,2.06,.24,1.97,.55,3.94,.82,5.9Z"/>
  <path class="cls-6" d="M56.56,44.25c-2.34-2.64-5.6-2.15-8.59-2.41-6.63-.57-13.28-.97-19.9,.14,1.24,1.37,3.05,.78,4.54,1.29,1.32,.44,2.77,.82,2.81,2.52,.04,1.61-1.17,2.58-2.52,2.84-3.9,.75-7.72,1.77-11.58,2.67-1.4,.32-2.78-.29-3.44-1.68-.71-1.51,.32-2.53,1.27-3.57,1.25-1.37,3.58-1.29,4.36-3.26-5.72-.02-7.61,1.56-9.77,8.17-.92,7.59,.71,10.03,8.04,11.42,8.29,1.57,16.55,1.37,24.73-.9,3.84-1.06,7-3.16,9.64-6.06,2.9-3.18,3.02-7.48,.41-11.17Z"/>
  <path class="cls-3" d="M56.56,44.25c2.03,8.04,.26,12.04-7.7,15.23-9.94,3.98-20.27,3.76-30.45,1-4.63-1.25-4.77-5.53-4.67-9.52-1.72,10.8-1.48,15.37,9.1,18.82,9.52,3.1,19.13,3.97,28.93,1.41,7.11-1.86,10.67-6.32,10.78-13.59,.07-4.61,.42-9.29-4-12.48-.62-.45-1.2-.87-2-.86Z"/>
  <path class="cls-2" d="M23.51,42.79c-1.68,.78-3.46,1.39-5.01,2.38-1.64,1.05-2.77,2.6-1.81,4.72,.87,1.92,2.47,2.85,4.54,2.4,4.12-.9,8.16-2.08,12.37-2.59,2.19-.27,3.13-2.07,3.13-4.04,0-2.06-1.61-2.99-3.46-3.27-1.71-.26-3.46-.28-5.19-.4-1.51,.34-2.93,1.15-4.56,.8Z"/>
</svg>