<?xml version="1.0" encoding="UTF-8"?>
<svg id="Layer_1" data-name="Layer 1" xmlns="http://www.w3.org/2000/svg" width="133.5" height="180" viewBox="0 0 133.5 180">
  <defs>
    <style>
      .cls-1 {
        fill: #2bce64;
      }

      .cls-2 {
        fill: #373b3c;
        opacity: .5;
      }

      .cls-3 {
        fill: #f9fbf9;
      }

      .cls-4 {
        fill: #6a83b0;
      }

      .cls-5 {
        fill: #2f9f5b;
      }

      .cls-6 {
        fill: #94c9db;
      }

      .cls-7 {
        fill: #00002c;
      }
    </style>
  </defs>
  <path class="cls-7" d="M7.75,96.48c-.85,13.54,1.49,26.49,9.34,37.66,3.5,4.98,3.28,9.68,2.54,14.89-.43,3.05-1.32,6.03-1.15,9.16-1.06,3.59,.65,6.95,4.62,8.3,6.71,2.29,13.98,3.15,20.46,1.02,4.5-1.48,7.49-1.02,11.64,.39,8.59,2.92,17.56,2.83,26.3,0,5.33-1.72,8.72-6.32,8.54-11.2,.65-4.21,.24-8.33-1.31-12.54,2.33-.24,4.41-.59,6.49-.64,6.13-.16,10.31-3.09,12.6-8.72,3-7.37,3.55-15.19,3.72-23.01,.27-12.57-1.2-25-3.68-37.32-.64-3.19-2.28-5.33-5.35-6.56-4.64-1.86-9.31-3.31-14.39-2.93-1.21,.09-2.44,.34-3.1-1.21-5.13-11.99-15.81-14.88-27.2-16.27-14.06-1.72-27.21,.37-38.1,10.43-3.12,2.88-5.83,6.08-7.5,10.06,3.72,.4,7.1-1.51,10.76-1.58,12.25-12.24,27.18-10.76,42.31-8.27,.98,.16,1.86,.66,2.76,1.05,5.48,2.23,8.43,6.88,10.67,11.88,6.98,15.53,8.21,31.87,5.61,48.48-1.54,9.89-6.24,14.08-16.08,15.99-.61,.12-1.23,.17-1.84,.3-3.5,.78-5.12,2.71-4.67,5.56,.42,2.67,2.84,4.57,6.03,4.32,2.96-.23,5.92-.56,8.88-.81,2.08-.18,3.22,.75,4.01,2.55,2.71,6.21,.75,10.41-5.73,12.03-4.65,1.16-9.34,.93-14.04,.33-3.06-.39-4.87-2.14-5.97-4.91-1.62-4.07-2.52-8.31-3.29-12.59-1.04-5.81-3.17-7-8.44-4.59-1.68,.77-3.3,.88-5.06,.52-7.52-1.56-13.09-5.63-16.54-12.58-2.9-5.85-4.69-11.99-5.04-18.53-.19-2.24-.4-4.49-.61-6.73-2.32-2.19-4.96-3.69-8.21-3.92Z"/>
  <path class="cls-2" d="M90.05,156.7c-2.53,9.08-9.48,11.69-17.82,11.96-4.29,.14-8.6,.36-12.91-.62-3.42-.78-6.74-1.59-9.31-4.1-1.42-1.39-2.3-1.18-2.92,.58-.71,2.04-2.58,2.4-4.2,2.51-6.53,.44-13.13,.72-19.44-1.41-3.35-1.13-5.05-3.8-4.97-7.44-2.76,.71-5.44,1.69-7.91,3.11-4.87,2.79-4.87,6.35-.05,9.2,5.67,3.35,12.1,4.43,18.4,5.34,21.69,3.13,43.36,3.18,64.85-1.84,3.26-.76,6.45-1.72,9.36-3.42,5-2.93,4.92-6.53-.16-9.4-4.03-2.28-8.59-3.04-12.92-4.46Z"/>
  <path class="cls-7" d="M7.75,96.48c2.54,1.39,5.01,2.93,7.83,3.73,.8,1.44,2.19,1.95,3.67,2.27,10.9,2.39,21.9,2.69,32.82,.55,12.99-2.54,17.23-10.9,15.6-23.62-.84-6.57-5.41-10.7-11.6-12.84-6.17-2.13-12.58-2.69-19.05-2.52-4.66,.12-9.46-.8-13.84,1.7-3.85-.23-7.52,.45-10.96,2.22C3.58,73.11,.33,80.62,2.81,89.3c.86,3.01,2.81,5.12,4.94,7.18Z"/>
  <path class="cls-5" d="M15.56,106.11c.25,8.48,2.44,16.44,7.1,23.51,4.15,6.3,10.46,9.26,17.86,9.99,1.21,.12,2.25,.04,3.39-.91,3.31-2.77,6.14-1.62,6.68,2.65,.63,5.07,1.74,9.99,3.68,14.72,1.11,2.7,2.74,4.29,5.92,4.72,6.1,.82,12.02,.9,17.94-1.11,3.16-1.07,4.8-2.83,4.45-6.24-.09-.86,.03-1.74-.02-2.6-.39-6.05-1.82-7.34-7.73-6.92-1.97,.14-3.92,.3-5.86,.81-3.29,.86-6.49-.85-6.66-3.49-.22-3.5,2.27-3.95,5.05-4.53,11.56-2.41,16.08-5.35,17.83-16.3,2.65-16.49,1.94-32.88-5.01-48.44-2.62-5.87-5.45-11.8-12.36-13.98-.36,1.05,.09,1.94,.55,2.83,5.87,11.24,6.81,23.2,4.82,35.46-.91,5.62-2.33,11.16-4.7,16.42-1.58,3.51-4.08,5.94-7.77,6.92-10.01,2.67-20.07,2.95-30.06-.01-5.33-1.58-9.36-4.95-12.1-9.84-.77-1.37-1.24-3.04-2.98-3.63Z"/>
  <path class="cls-1" d="M15.56,106.11c4.56,12.04,14.22,16.02,26.07,16.35,6.05,.17,12.09,.27,18.05-1.37,5.16-1.42,8.52-4.31,10.46-9.45,5.23-13.84,6.3-27.87,2.89-42.26-.98-4.15-2.98-7.84-5.22-11.41-3.49-1.89-7.42-1.61-11.15-2.11-7.93-1.06-15.81-.64-23.38,2.25-4.07,1.55-7.82,3.67-10.1,7.65,8.04-.44,16.09-.64,24.14,0,2.75,.22,5.39,.85,7.99,1.67,7.19,2.29,11.57,7.84,11.63,14.63,.11,11.01-2.79,16.4-11.44,18.83-13.28,3.74-26.67,3.31-39.91-.68-1.23,1.97-.08,3.94-.01,5.91Z"/>
  <path class="cls-5" d="M92.24,80.76c1.86,11.56,2.21,23.16,.76,34.8-.77,6.18-2.1,12.2-5.14,17.71-1,1.8-.87,2.71,1.43,2.65,1.48-.04,2.98-.05,4.46,.12,3.64,.42,5.85-1.35,7.3-4.48,2.41-5.2,2.69-10.83,2.92-16.35,.46-10.78,.38-21.57-.69-32.33-2.9-3.19-6.95-3.96-11.03-2.11Z"/>
  <path class="cls-5" d="M27.75,144.02c-.56,3.91-1.05,7.83-1.7,11.72-.46,2.77,.68,3.94,3.37,3.92,1.24-.01,2.48,.09,3.72,.09,8.86,.04,9.03-.07,11.26-8.64,.55-2.13,.46-3.93-2.52-4.16-2.45-.19-4.89-.69-7.31-1.2-2.29-.48-4.54-1.14-6.82-1.73Z"/>
  <path class="cls-1" d="M92.24,80.76c3.88-.34,7.58,.23,11.03,2.11-.89-8.9-2.62-9.33-11.03-9.99-1.65-.13-2.73,.16-1.86,2.27,.75,1.82,1.25,3.74,1.86,5.61Z"/>
  <path class="cls-6" d="M18.77,73.21c-5.51,.37-7.85,2.9-8.32,8.97,.3,3.59,2.38,5.56,5.75,6.34,9.62,2.2,19.2,2.14,28.68-.7,2.99-.9,5.75-2.36,8.06-4.51,2.89-2.68,3.04-5.9,.54-9.21-1.4-1.82-3.53-1.57-5.42-1.76-7.84-.78-15.69-.83-23.53-.06,1.16,1.88,3.1,.99,4.7,1.32,1.24,.26,2.64,.39,2.65,2.02,0,1.41-1.26,1.7-2.37,1.91-3.52,.69-7.08,1.21-10.61,1.9-1.48,.29-3.22,.45-3.89-1.25-.65-1.65,1.01-2.29,2.07-3.08,.7-.51,1.47-.94,1.68-1.89Z"/>
  <path class="cls-4" d="M53.49,74.09c1.69,6.25,.83,8.42-5.15,11.14-10.82,4.94-22.04,4.56-33.33,1.95-2.51-.58-3.6-2.83-4.56-5.01-.48,8.22,.67,10.34,8.56,12.48,10.06,2.73,20.32,3.65,30.61,.94,8.52-2.24,12.02-8.8,9.09-16.94-.9-2.5-2.38-4.29-5.22-4.57Z"/>
  <path class="cls-3" d="M18.77,73.21c-1.22,.58-2.49,1.07-3.66,1.75-1.23,.72-2.18,1.73-1.71,3.34,.44,1.49,1.69,2.44,3.04,2.27,5.11-.66,10.21-1.49,15.28-2.48,1.23-.24,1.98-1.63,1.88-2.93-.12-1.56-1.35-2.38-2.79-2.54-2.08-.23-4.18-.24-6.28-.35-1.92,.31-3.84,.62-5.76,.94Z"/>
</svg>