<?xml version="1.0" encoding="UTF-8"?>
<svg id="Layer_1" data-name="Layer 1" xmlns="http://www.w3.org/2000/svg" width="133.5" height="180" viewBox="0 0 133.5 180">
  <defs>
    <style>
      .cls-1 {
        fill: #2bce64;
      }

      .cls-2 {
        fill: #373b3c;
        opacity: .5;
      }

      .cls-3 {
        fill: #f9fbf9;
      }

      .cls-4 {
        fill: #6a83b0;
      }

      .cls-5 {
        fill: #2f9f5b;
      }

      .cls-6 {
        fill: #94c9db;
      }

      .cls-7 {
        fill: #00002c;
      }
    </style>
  </defs>
  <path class="cls-7" d="M103.74,80.41c.13,9.07-.15,18.18-2.34,26.96-1.05,4.21,.27,5.2,3.72,6.37,7,2.39,12.68,6.74,17.02,12.78,3.33,4.64,3,9.33,.14,13.93-3.52,5.66-8.85,9.02-15.2,10.64-3.31,.84-6.66,.55-9.61-1.67-2.77-2.1-6.02-3.7-8.43-6.13-7.06-7.14-15.28-9-25.1-7.66-6.03,.82-10.85,1.93-15.65,6.48-10.13,9.6-28.89,11.87-40.54-1.31-1.56-1.77-3.47-3.27-4.86-5.16-2.38-3.21-3.86-7.06-2.14-10.81,2.58-5.64,4.3-12.12,11.36-14.87-5.93-2.53-8.03-7.36-9.29-12.66C-.18,84.69,.14,71.94,1.62,59.18c.69-5.91,1.37-11.82,2.7-17.65,.73-3.22,2.45-5.27,5.45-6.52,5.86-2.43,11.88-3.67,18.21-2.67,1.33,.21,2.3,.37,3.14-1.02,5.18-8.57,13.61-11.26,22.87-11.87,9.53-.62,18.92,.3,27.76,4.42,8.89,4.15,15.13,10.69,18.57,19.87-3.88-.4-7.68-1.23-11.41-2.37-4.44-3.78-8.49-8.11-14.14-10.22-11.43-4.28-22.6-4.73-33.22,2.37-3.09,1.88-4.34,5.01-5.58,8.14-3.2,8.07-4.24,16.58-5.1,25.1-.86,8.53-.94,17.09-.82,25.66,.14,10.34,.33,20.6,6.01,29.89,1.69,2.77,.41,4.19-2.87,3.79-2.51-.31-4.45-1.53-5.8-3.66-1.01-1.59-2.14-3.04-3.8-4.03-5.13-3.07-9.28-1.99-12.23,3.21-3.53,6.23-3.09,7.24,1.6,12.67,9.43,10.91,24.64,7.3,31.63,.9,4.22-3.86,8.54-5.4,14.13-5.18,6.22,.24,12.57-.05,18.24-3.02,10.34-5.41,15.45-14.44,16.88-25.69,.32-2.55,1.22-5.1,.6-7.74,.4-2.99-.13-6.06,.68-9.02,2.54-2.05,4.99-4.31,8.62-4.12Z"/>
  <path class="cls-2" d="M53.41,156.11c15.23,.02,28.03,.35,40.5,3.93,3,.86,5.98,1.78,8.65,3.39,4.48,2.71,4.47,6.08,.03,8.84-3.21,2-6.8,3.04-10.47,3.81-25.46,5.34-50.87,5.41-76.19-.87-2.15-.53-4.25-1.43-6.25-2.39-2.16-1.03-4.35-2.41-4.27-5.14,.08-2.53,2.23-3.74,4.25-4.76,5.04-2.55,10.49-3.93,15.99-4.86,9.97-1.68,20.05-2.12,27.76-1.95Z"/>
  <path class="cls-7" d="M88.97,40.82c3.83,.8,7.95,.47,11.35,2.92,12.2,4.82,15.23,27.98,3.43,36.67-2.82,.95-4.97,3.33-8.03,3.76-.74,1.32-2.04,1.8-3.4,2.07-11.62,2.35-23.19,3.33-34.67-.83-6.71-2.43-10.78-6.93-11.74-14.07-.83-6.17-1.74-12.38,.69-18.38,3.48-8.63,10.63-12.16,19.38-12.97,6.59-.61,13.21-.2,19.82-.19,1.15,0,2.19,.42,3.17,1.01Z"/>
  <path class="cls-1" d="M88.97,40.82c-8.58,.18-17.2-.91-25.74,.64-11.24,2.04-17.1,9.12-17.07,20.41,0,1.74,.02,3.48,.13,5.21,.67,10.71,4.97,16.2,15.5,18.53,11.36,2.52,22.74,2.05,33.92-1.43,.7,3.2,.21,6.35-.42,9.5,.2,9.89-9.28,20.19-19.43,20.53-6.48,.21-12.94,.22-19.4-.78-7.99-1.24-13.28-5.5-15.5-13.19-2.72-9.45-4.48-19.06-4.83-28.94-.27-7.44-.87-14.86-.68-22.31,.15-6,1.83-11.48,5.62-16.23,6.31-4.96,13.69-6.12,21.39-5.58,10.76,.74,19.74,5.11,26.5,13.66Z"/>
  <path class="cls-5" d="M41.08,32.74c-6.48,11.86-4.12,24.63-3.9,37.19,.15,8.48,1.51,16.8,3.34,25.05,2.93,13.19,8.3,17.58,22.07,18.1,2.99,.11,5.99,.12,8.98,.13,13.03,.01,21.28-6.8,23.71-19.53,.7,14.37-5.46,28.71-19.57,35.19-3.98,1.83-8.48,1.76-12.8,2.11-2.36,.19-4.75,.17-7.11,0-3.65-.26-6.26,1.27-8.96,3.67-7.64,6.8-16.52,9.62-26.56,6.09-5.52-1.94-8.93-6.53-12.22-11.09-.14-.2-.29-.45-.3-.68-.17-4.54,2.34-8.02,5.02-11.19,1.92-2.27,4.76-2.89,7.86-1.79,3.27,1.16,6.02,2.63,7.58,6.05,1.53,3.35,4.79,3.22,8.27,3.28-10.01-16.58-7.83-34.35-7.05-51.87,.49-11.03,1.55-22.05,5.61-32.51,1.27-3.27,2.62-6.47,6.02-8.19Z"/>
  <path class="cls-5" d="M24.45,48.3c-1.88,12.89-2.39,25.89-3.24,38.86-.23,3.54,.7,7.14,.82,10.72,.06,1.67,1.41,4.07-.78,4.94-2.65,1.05-5.63,1.24-8.01-1.15-1.54-1.55-2.32-3.48-3-5.5-1.49-4.41-1.79-9.03-1.97-13.57-.45-10.91-.36-21.83,.71-32.72,3.34-3.32,10.37-4.04,15.48-1.59Z"/>
  <path class="cls-5" d="M86.15,131.51c3.98-3.03,7.46-6.51,10.06-10.79,1.25-2.06,3.2-1.75,4.98-1.13,6.39,2.25,10.48,7.36,14.85,12.1,.44,.48,.44,1.07,.34,1.74-1.29,8.51-11.44,12.87-18.25,7.72-4.04-3.05-7.9-6.34-11.98-9.64Z"/>
  <path class="cls-1" d="M24.45,48.3c-5.3-.78-10.52-.81-15.48,1.59,.82-8.01,2.55-9.63,10.36-9.79q7.77-.16,5.47,7.15c-.11,.35-.23,.7-.35,1.05Z"/>
  <path class="cls-6" d="M59.74,51.27c2.33-2.66,5.6-2.15,8.58-2.42,6-.53,12.03-1.01,18.02,.14-.84,1.09-2.21,.99-3.32,1.46-1.06,.44-2.11,.94-2.16,2.25-.06,1.4,.81,2.53,2,2.83,4.17,1.06,8.37,2.05,12.62,2.77,1.26,.21,2.46-.51,2.98-1.79,.62-1.54-.42-2.51-1.4-3.5-1.15-1.16-3.48-.98-3.68-3.2,5.23,.13,7.08,1.78,9.16,8.15,.93,7.57-.69,10.1-8.05,11.4-8.39,1.48-16.79,1.69-25.06-.97-3.66-1.18-6.73-3.17-9.29-5.97-2.91-3.18-3.03-7.49-.41-11.16Z"/>
  <path class="cls-4" d="M59.74,51.27c-2.03,7.83-.81,11.24,6.69,14.73,10.29,4.79,21.13,4.3,31.78,1.32,4.4-1.23,4.43-5.51,4.34-9.35,1.73,10.78,1.47,15.34-9.1,18.82-9.4,3.09-18.88,3.95-28.56,1.46-7.79-2-11.05-6.26-11.17-14.39-.07-4.57-.02-9.01,4.33-11.93,.49-.33,1.12-.44,1.69-.65Z"/>
  <path class="cls-3" d="M93.38,49.82c1.59,.86,3.29,1.57,4.75,2.62,1.48,1.06,2.35,2.59,1.45,4.51-.82,1.75-2.26,2.73-4.19,2.38-4.25-.78-8.38-2.13-12.71-2.63-2.18-.25-3.12-2.09-3.12-4.04,0-2.04,1.6-2.93,3.46-3.25,1.1-.19,2.21-.27,3.32-.4,2.35,.27,4.7,.55,7.04,.82Z"/>
</svg>