<?xml version="1.0" encoding="UTF-8"?>
<svg id="Layer_1" data-name="Layer 1" xmlns="http://www.w3.org/2000/svg" width="141" height="165.75" viewBox="0 0 141 165.75">
  <defs>
    <style>
      .cls-1 {
        fill: #373b3c;
      }

      .cls-1, .cls-2 {
        opacity: .5;
      }

      .cls-3 {
        fill: #f9fbf9;
      }

      .cls-4 {
        fill: #6a83b0;
      }

      .cls-5 {
        fill: #992b49;
      }

      .cls-6 {
        fill: #cf2e4a;
      }

      .cls-7 {
        fill: #94c9db;
      }

      .cls-8 {
        fill: #00002c;
      }

      .cls-9 {
        fill: #0c0c2f;
      }
    </style>
  </defs>
  <g class="cls-2">
    <path class="cls-8" d="M140.92,47.81c-1.96,3.68-3.16,7.85-6.77,10.45-1.55,3.42-4.9,4.21-7.94,5.47-10.35,3.35-20.89,3.94-31.59,2.19-2.09-.34-4.12-.9-6.13-1.53-6.87-2.17-11.17-6.69-12.56-13.82-1.3-6.65-2.01-13.4,.99-19.73,4.05-8.55,11.6-11.87,20.56-12.38,5.56-.31,11.15-.02,16.73-.09,3.95,.12,7.94,.05,11.62,1.85,.89,1.19,2.37,1.26,3.58,1.83,5.13,2.41,8.41,6.34,10.14,11.72,.39,1.21,.06,2.74,1.36,3.61v10.44Z"/>
    <path class="cls-8" d="M125.83,20.21c-4-.29-7.99-.59-11.99-.88-3.63-1.61-6.42-4.5-10.01-6.25-10.69-5.2-21.16-4.88-31.64,.45-2.14,1.09-3.84,2.66-5.38,4.45-3.54,5.09-4.15,11.14-5.18,16.94-2.72,15.4-3.68,31.01-4.8,46.6-.47,6.58,.09,13.37-3.15,19.68-4.85,9.44-12.25,14.8-22.82,15.46-4.57,.29-9.17,.11-13.76,0,8.06,5.94,9.3,6.21,19.18,7.96,10.31,1.83,19.95,5.26,26.62,14.13,2.68,3.56,6.3,4.1,10.35,2.99,4.03-1.1,7.44-3.37,10.72-5.84,4.89-3.68,9.84-7.14,16.29-7.53,3.13-.19,6.16,.54,9.27,.55,3.7,.01,6.42-1.42,7.66-4.76,4.73-12.74,10.75-25.2,9.24-39.41-.31-6.53,.7-13.06-.17-19.58-.12-.86-.09-1.73,.57-2.43,2.56-1.29,5.19-2.48,7.33-4.46,.9,11.12,1.09,22.26,.94,33.41-.08,5.71-.71,11.27-2.96,16.67-2.27,5.46-3.79,11.24-5.82,16.81-3.44,9.46-9.66,13.65-19.44,12-5.64-.95-10.25,.21-14.63,3.34-2.48,1.77-4.77,3.82-7.14,5.75-.47,.59-1.11,.84-1.81,.97-7.76,.54-15.55-.12-23.31,.4-.72,.04-1.39-.1-1.9-.66-6.52-8.91-14.85-14.35-26.3-14.13-4.77,.09-8.89-2.18-12.84-4.49-5.57-3.26-10.63-7.28-15.58-11.4-1.79-1.48-3.26-3.57-2.3-5.86,1.01-2.42,3.42-3.51,6.08-3.44,6.82,.19,13.63,.51,20.45,.72,2.84,.09,5.64-.17,8.54-1.73-6.54-3.94-6.52-10.46-6.76-16.55-.59-14.93,.77-29.74,3.82-44.4,.78-3.75,2.86-5.87,6.19-7.17,3.36-1.32,6.87-2.22,10.43-2.55,2.23-.21,2.92-1.09,3.15-3.15,.51-4.58,1.83-8.99,3.35-13.32,3.61-10.29,10.68-16.55,21.56-18.01,13.37-1.8,26.31-.69,37.82,7.19,4.31,2.94,8.06,6.57,10.15,11.56Z"/>
    <path class="cls-1" d="M83.53,146.29c.52-.02,1.05-.03,1.57-.05,12.13,.4,24.25,.99,35.96,4.58,2.54,.78,6.1,1.39,6.14,4.48,.05,3.38-3.67,4.06-6.3,4.81-10.41,2.98-21.14,4.12-31.89,4.55-17.1,.68-34.19,.19-51.01-3.49-2.4-.52-4.74-1.35-7.05-2.21-1.63-.61-3.37-1.46-3.42-3.51-.07-2.31,2.01-3.02,3.65-3.71,5.17-2.16,10.69-3.09,16.18-3.92,3.54-.53,7.14-.61,10.71-.89,.51,.02,1.02,.05,1.52,.07,3.16,.83,5.86,2.81,9.41,2.86,5.25,.08,9.87-1.65,14.52-3.59Z"/>
    <path class="cls-6" d="M126.82,62.73c1.88,7.48,.74,15.05,.66,22.59-.71,2.54-1.87,4.88-3.76,6.72-4.86,4.76-7.18,10.66-7.7,17.28-.3,3.85-2.42,5.74-5.84,6.74-5.72,1.67-11.36,3.56-16.31,7.04-.71,.5-1.54,.8-2.37,1.06-1.55,.48-3.36,1.2-4.58-.1-1.3-1.39,.39-2.7,.96-3.96,3.3-7.19,1.16-14.97-5.39-19.24-1.97-1.29-3.95-2.59-6.05-3.64-5.2-2.6-8.49-6.68-10.02-12.26-1.67-6.11-3.27-12.23-3.29-18.62-.02-9.31-.37-18.63,.11-27.91,.37-7.22-.19-14.69,3.22-21.5,5.57-6.11,12.93-8.19,20.74-8.46,10.37-.36,19.44,3.1,26.63,10.87-4.59,0-9.19,0-13.78,.03-17.23,.15-25.78,9.83-23.78,26.9,1.37,11.72,6.74,17.13,18.9,18.69,10.17,1.31,20.28,1.22,30.16-2.09,.45-.15,.98-.09,1.47-.13Z"/>
    <path class="cls-7" d="M89.45,29.78c2.59-2.45,5.95-2.07,9.07-2.35,6.24-.55,12.51-.94,18.75,.14-.95,1.28-2.49,.91-3.74,1.33-1.34,.45-2.68,.94-2.73,2.63-.05,1.59,.99,2.69,2.4,2.93,4.03,.7,7.99,1.78,12.05,2.36,1.23,.18,2.18-.38,2.74-1.5,.59-1.19,.06-2.12-.67-3.06-.8-1.03-2.37-1.53-2.25-3.2,4.86,.15,5.98,3.8,7.04,7.52,.85,8.2-.69,10.27-8.6,11.61-9.06,1.54-17.99,1.7-26.62-2.12-2.3-1.02-4.37-2.33-6.13-4.13-3.58-3.67-3.99-7.52-1.3-12.15Z"/>
    <path class="cls-4" d="M89.45,29.78c-1.31,10.81,4.8,17.14,17.15,18.07,6.02,.45,11.96,.16,17.91-.79,5.95-.94,7.28-2.72,7.59-10.49,2.25,11.78,.78,15.8-10.05,19.2-8.25,2.59-16.7,3.11-25.26,1.67-11.09-1.88-16.91-13.4-11.83-23.52,.96-1.91,2.28-3.54,4.49-4.14Z"/>
    <path class="cls-3" d="M125.05,29.05c1.14,.91,2.36,1.74,3.4,2.75,1.15,1.11,1.56,2.41,.7,4.01-.79,1.46-1.87,2.45-3.52,2.16-4.48-.8-8.95-1.7-13.4-2.7-1.92-.44-2.75-1.92-2.74-3.9,0-2.04,1.42-2.84,3.01-3.23,1.54-.38,3.16-.4,4.75-.58,2.6,.5,5.19,.99,7.78,1.49Z"/>
    <path class="cls-5" d="M66.47,16.93c-3.27,17.22-2.25,34.63-2.16,51.98,.03,5.33,1.58,10.52,3,15.67,1.49,5.42,4.67,9.45,9.77,11.93,1.22,.59,2.31,1.5,3.56,2,11.28,4.52,12.04,17.63,6.14,25.31,2.86,.55,5.27-.56,7.31-2.01,4.75-3.38,10.15-5.13,15.64-6.65,3.2-.88,5.06-2.29,5.31-6.02,.45-6.85,2.91-12.97,7.93-17.95,1.74-1.72,3.01-3.91,4.49-5.88,.1,10.53-.87,20.79-6.27,30.23-1.37,2.4-1.52,5.46-2.58,8.08-2.1,5.17-4.16,6.39-9.63,6.2-2.85-.1-5.69-.36-8.54-.38-6.86-.05-11.72,4.22-16.82,7.94-4.24,3.1-8.55,5.94-14.13,5.94-2.82,0-5.06-.88-6.75-3.17-7.27-9.87-17.75-13.45-29.28-14.82-7.34-.87-13.19-4.48-19.15-9.55,5.25,0,9.9-.07,14.54,.01,12.44,.23,25.6-8.59,26.43-25.61,.9-18.6,2.19-37.18,5.25-55.55,1.02-6.1,1.67-12.59,5.92-17.72Z"/>
    <path class="cls-5" d="M50.62,52.29c-1.17,13.94-2.33,27.87-3.55,41.81-.11,1.2-.61,2.4-1.1,3.53-.67,1.52-1.08,3.93-3.02,3.7-2.1-.25-4.42-1.44-4.98-3.91-.64-2.88-1.6-5.97-1.15-8.76,1.58-9.91,0-19.81,.51-29.7,.09-1.73-.11-3.49,.7-5.12,3.87-3.47,9.2-4.12,12.59-1.54Z"/>
    <path class="cls-6" d="M50.62,52.29c-4.45-1.59-8.51,.1-12.59,1.54,.05-7.39,2.45-9.79,9.41-9.79,3.05,0,4.48,.91,3.64,4.19-.33,1.31-.32,2.7-.47,4.06Z"/>
    <path class="cls-9" d="M83.53,146.29c-6.08,5.8-18.17,6.17-23.93,.73,1.77-1.34,3.83-.67,5.74-.7,6.06-.09,12.12-.03,18.19-.03Z"/>
  </g>
</svg>