<?xml version="1.0" encoding="UTF-8"?>
<svg id="Layer_1" data-name="Layer 1" xmlns="http://www.w3.org/2000/svg" width="133.5" height="180" viewBox="0 0 133.5 180">
  <defs>
    <style>
      .cls-1 {
        fill: #373b3c;
        opacity: .5;
      }

      .cls-2 {
        fill: #f9fbf9;
      }

      .cls-3 {
        fill: #6a83b0;
      }

      .cls-4 {
        fill: #f7bc0d;
      }

      .cls-5 {
        fill: #d58917;
      }

      .cls-6 {
        fill: #94c9db;
      }

      .cls-7 {
        fill: #00002c;
      }
    </style>
  </defs>
  <path class="cls-7" d="M105.23,91.1c2.06,21.01-.06,41.71-4.62,62.23-.43,1.93-.85,3.86-1.28,5.8,0,4.07-3.87,8.64-8.27,9.74-6.06,1.51-12.15,1.18-18.17-.14-3.76-.82-5.91-3.53-7.07-7.03-.55-1.65-.85-3.37-1.03-5.1-.13-2.14-.07-4.33-1.44-6.84-.63,2.62-.27,4.77-.32,6.88,.18,3.13-.44,6.19-1.01,9.22-.92,4.92-7.04,9.41-13.55,9.88-4.34,.31-8.72,.36-13.05-.02-8.55-.76-13.79-8.03-11.64-15.87-.05-1.11-.03-2.24-.15-3.34-.33-3.08,.15-6.69-1.33-9.08-1.52-2.44-5.46-1.04-8.29-1.59-5.32-1.03-8.61-4.2-10.43-9.05C.32,128.14-.08,119.07,.01,110.02c.1-10.3,1.69-20.48,3.11-30.68,.87-6.26,4.64-8.84,9.94-10.46,3.28-1,7.69-.15,9.73-2.55,1.92-2.26,1.67-6.32,2.47-9.56,.38-1.56,.97-3.06,1.45-4.6,3.68-11.68,11.71-18.11,23.88-19.31,13.48-1.33,26.42,.1,37.6,8.63,3.55,2.71,6.76,5.87,8.56,10.13-3.6,2.47-7.25,.32-10.87,.12-4.83-2.78-9.03-6.58-14.41-8.52-9.99-3.58-19.56-2.69-28.9,2.12-2.07,1.06-3.4,2.88-4.99,4.44-3.21,4.52-3.96,9.89-4.92,15.09-2.4,13.09-3.85,26.33-3.18,39.62,.88,17.34,.81,34.72,2.22,52.03,.82,10.06,1.44,10.63,11.45,10.45,1.5-.03,2.99-.1,4.45-.47,4.3-1.07,5.63-2.6,5.77-7,.15-4.72-.06-9.44,.08-14.15,.18-5.88,1.75-7.11,7.5-6.89,6.72,.26,13.46,.61,20.16-.5,1.11-.18,2.22-.32,3.35-.34,.88-.02,1.86-.03,2.31,.87,.56,1.11-.25,1.91-1,2.55-2.26,1.95-4.53,3.91-7.47,4.84-2.25,.71-4.67,1.1-4.52,4.43,.25,5.73,1.48,8.48,5.11,9.34,6,1.42,11.51,.85,13.41-7.5,3.09-13.49,4.15-27.21,5.94-40.85,.32-2.43,.49-4.96-.3-7.39-.46-2.97-.43-5.95-.12-8.93,1.98-3.75,4.49-5.06,7.41-3.89Z"/>
  <path class="cls-7" d="M105.23,91.1c-2.95-.31-4.7,1.78-6.72,3.32-3.95,2.43-8.48,2.86-12.9,3.39-8.59,1.03-17.16,.81-25.54-1.72-7.96-2.41-12.61-7.64-13.75-15.9-.6-4.33-.83-8.73-.11-12.99,1.08-6.46,4.57-11.51,10.77-14.28,9.13-4.08,18.61-3.76,28.17-2.01,3.9-.21,7.68,1.32,11.61,.71,.75,.43,1.48,.89,2.25,1.28,14.2,7.1,17.64,23.97,7.31,35.93-.6,.69-1.02,1.37-1.08,2.27Z"/>
  <path class="cls-1" d="M65.7,156.06c.48,2.41,.64,4.89,1.73,7.15,2.1,4.38,6.17,4.94,10.33,5.24,6.93,.51,13.91,1.39,19.24-4.85,1.2-1.4,1.45-3.06,2.35-4.48,2.12,2.12,5.26,1.95,7.7,3.42,2.26,1.36,5.07,2.4,4.99,5.41-.08,2.94-2.71,4.29-5.15,5.34-7.98,3.43-16.48,4.71-25.02,5.58-19.7,2-39.29,1.54-58.63-3.29-2.78-.7-5.49-1.61-7.97-3.05-1.85-1.08-3.68-2.33-3.63-4.79,.05-2.46,1.97-3.73,3.84-4.64,2.67-1.3,5.53-2.2,8.31-3.28,.27,1.82,.49,3.66,.82,5.47,.68,3.73,2.36,6.73,6.19,8.13,6.52,2.37,13.41,2.3,19.79,.75,9.23-2.26,10.85-5.26,11.39-15.15,.05-.99,.05-1.98,.08-2.97,1.22-.93,2.43-.93,3.65,0Z"/>
  <path class="cls-4" d="M85.14,50.91c-7.07,.41-14.19-.57-21.23,.8-11.09,2.15-16.9,9.07-17.03,20.09-.2,16.83,5.12,24.02,25.09,25.25,8.34,.51,16.67,.07,24.71-2.67,.54-.18,1.21,.02,1.82,.05,.06,3.03,.13,6.06,.19,9.1-1.78,16.86-10.95,27.36-27.22,26.85-4.23-.13-8.45,.14-12.65-.82-12.7-2.91-20.56-10.53-23.31-23.28-.63-2.92-1.29-5.89-1.32-8.82-.17-13.75-1.07-27.53,.71-41.24,.34-2.6,.66-5.43,2.74-7.5,2.97-4.9,8.07-6.4,13.09-7.54,13.16-2.98,24.7,.32,34.4,9.75Z"/>
  <path class="cls-5" d="M37.65,48.7c-2.87,8.65-2.54,17.63-2.63,26.55-.1,10.04-.72,20.1,1.43,30.05,3.17,14.66,11.93,22.68,26.97,23.88,6.92,.55,13.93,1.01,20.52-2.34,4.88-2.48,8.54-5.91,10.4-11.1,1.46-4.07,2.9-8.15,4.36-12.22,1.26,6.58,.06,13.07-.69,19.58-1.2,10.46-2.45,20.91-5.14,31.14-.86,3.26-2.16,5.88-5.71,6.56-4.21,.8-8.46,1.17-12.15-1.66-1.44-1.11-3.12-10.56-2.41-12.14,.5-1.12,1.6-1.08,2.52-1.27,4.67-.95,8.2-3.65,12.1-7.49-10.09,1.86-19.38,1.97-28.69,1.04-3.47-.35-3.79,2.19-3.86,4.62-.14,4.84-.06,9.68-.16,14.52-.13,7.07-1.63,8.74-8.64,9.48-2.6,.27-5.23,.28-7.85,.26-4.98-.05-6-1.04-6.66-6.02-1.15-8.62-1.28-17.3-1.64-25.97-.59-14.01-1.35-28.01-1.09-42.03,.26-14.03,1.55-27.95,6.18-41.35,.56-1.61,.95-3.39,2.86-4.08Z"/>
  <path class="cls-5" d="M21.43,83.78c.08,13.04,.12,26.09,.24,39.13,.04,4.34,.2,8.69,.48,13.03,.11,1.79-.53,2.35-2.23,2.59-5.36,.77-7.89-.61-9.82-5.72-2.24-5.91-2.37-12.17-2.6-18.35-.36-9.68,.13-19.37,.77-29.03,3.61-3.45,9.71-4.22,13.16-1.65Z"/>
  <path class="cls-4" d="M21.43,83.78c-4.66-1.59-8.89,.2-13.16,1.65,.22-1.34,.36-2.69,.68-4.01,1.08-4.46,7.34-7.46,11.56-5.58,1.05,.47,1.38,1.23,1.26,2.39-.2,1.84-.23,3.7-.33,5.55Z"/>
  <path class="cls-6" d="M60.49,61.41c2.24-2.48,5.28-2.11,8.17-2.28,4.59-.67,9.21-.18,13.8-.27,1.21,.66,.58,1.45,.06,2.13-1.84,2.42-.8,4.17,1.63,4.8,3.95,1.04,7.97,1.88,12,2.63,1.48,.27,2.73-.39,3.3-1.84,.62-1.56-.32-2.57-1.49-3.43-1.2-.88-2.79-1.11-3.81-2.29-.16-.35-.11-.68,.11-.99,5.59,.62,7.53,2.39,9.05,8.24,.86,7.87-.71,10.3-8.39,11.57-8.29,1.38-16.6,1.66-24.75-1.13-3-1.02-5.69-2.56-8.11-4.54-3.96-3.26-4.56-8.43-1.58-12.61Z"/>
  <path class="cls-3" d="M60.49,61.41c-2.84,9.34,.78,13.47,12.9,17,7.63,2.22,15.52,1.45,23.24-.02,5.19-.99,6.55-3.3,6.69-10.28,1.61,11.43,1.56,14.85-8.39,18.61-9.1,3.44-18.65,4.11-28.16,1.95-11.72-2.66-13.4-9.76-11.86-20.56,.47-3.3,2.34-5.6,5.57-6.69Z"/>
  <path class="cls-6" d="M94.27,59.87c0,.18-.03,.35-.07,.52-3.79,.85-7.58,1.53-11.19-.67-4.74-1.27-9.58-.12-14.35-.6,8.58-1.16,17.12-1.19,25.61,.74Z"/>
  <path class="cls-2" d="M83.01,59.73c3.77-.39,7.49-.15,11.19,.67,1.75,.64,3.58,1.12,5.05,2.34,1.35,1.12,2.08,2.43,1.36,4.24-.67,1.71-1.94,2.77-3.72,2.47-4.65-.78-9.27-1.74-13.88-2.74-1.67-.36-2.33-1.83-2.59-3.34-.36-2,1.22-2.79,2.6-3.65Z"/>
</svg>