<?xml version="1.0" encoding="UTF-8"?>
<svg id="Layer_1" data-name="Layer 1" xmlns="http://www.w3.org/2000/svg" width="141" height="165.75" viewBox="0 0 141 165.75">
  <defs>
    <style>
      .cls-1 {
        fill: #373b3c;
      }

      .cls-1, .cls-2 {
        opacity: .5;
      }

      .cls-3 {
        fill: #0b0b2f;
      }

      .cls-4 {
        fill: #f9fbf9;
      }

      .cls-5 {
        fill: #6a83b0;
      }

      .cls-6 {
        fill: #f7bc0d;
      }

      .cls-7 {
        fill: #d58917;
      }

      .cls-8 {
        fill: #94c9db;
      }

      .cls-9 {
        fill: #00002c;
      }
    </style>
  </defs>
  <g class="cls-2">
    <path class="cls-9" d="M.08,110.47c3.16-2.34,6.72-2.59,10.53-2.32,5.71,.4,11.44,.53,17.17,.67,2.64,.07,5.17-.67,8.04-1.64-6.67-3.81-6.75-10.34-7.05-16.55-.7-14.68,.9-29.21,3.55-43.65,.88-4.79,3.58-7.41,7.99-8.69,1.79-.52,3.61-1.39,5.4-1.36,5.36,.1,7.18-2.71,7.54-7.58,.19-2.54,1.26-5.03,1.97-7.53,3.72-13.12,12.78-19.68,26.1-20.57,10.16-.68,20.21,.17,29.47,4.9,6.54,3.33,12.05,7.87,15.13,14.78-4.28,.99-8.5,.66-12.66-.61-7.89-7.38-17.09-11.27-28.05-10.3-6.68,.59-12.86,2.53-17.96,7.13-4.32,5.29-5.03,11.89-6.1,18.17-3.2,18.88-4.18,37.99-5.54,57.07-1.04,14.63-11.89,23.85-26.59,25.01-3.72,.3-7.48-.02-12.08,.12,5.05,3.71,9.69,6.27,15.41,6.89,7.52,.81,14.61,3.16,21.26,6.8,3,1.64,5.46,3.91,7.69,6.47,4.39,5.04,9.63,6.06,15.6,2.99,2.45-1.26,4.8-2.71,6.87-4.5,6.46-5.58,13.79-7.89,22.42-7.44,9.34,.49,10.78-1.01,12.83-10.14,.28-1.22,.59-2.44,1.23-3.51,5.47-9.16,6.06-19.3,6.09-29.57-.06-7.42,.41-14.85-.23-22.26,2.34-2.32,4.76-4.47,8.44-4,.9,1.83,1.24,3.85,1.24,5.79,.03,12.16,.83,24.34-.49,36.49-.37,3.43-1.97,6.39-3.07,9.54-1.84,5.28-3.42,10.66-5.4,15.89-3.08,8.17-9.98,13.26-18.61,11.88-8.03-1.28-14.11,1.22-19.91,6.01-.85,.7-1.73,1.43-2.75,1.93-.62,.28-1.26,.43-1.94,.48-8.06,.45-16.15-.35-24.19,.61-.42,0-.83-.06-1.23-.17-1.47-.51-2.51-1.62-3.48-2.73-6.23-7.23-14.31-10.63-23.66-11.03-4.95-.21-9.24-1.98-13.29-4.43-5.11-3.09-9.93-6.6-14.51-10.45-1.58-1.33-2.57-2.96-3.22-4.86v-3.73Z"/>
    <path class="cls-9" d="M140.93,48.55c-2.2,3.54-3.54,7.66-6.88,10.45-2.3,1.69-4.76,3.07-7.52,3.85-.76,1.51-2.23,1.94-3.68,2.26-10.84,2.44-21.75,2.68-32.57,.21-8.78-2-14.08-7.44-15.15-16.68-.42-3.6-.63-7.19-.32-10.76,.54-6.14,3.2-11.38,8.49-14.63,9.43-5.78,19.75-5.95,30.27-3.78,4,1.55,8.36,.08,12.38,1.45,8.59,2.61,12.86,8.97,14.99,17.17v10.44Z"/>
    <path class="cls-6" d="M113.55,19.49c-5.83,.38-11.71-.47-17.52,.46-15.81,2.52-22.06,10.86-20.08,26.67,1.52,12.1,6.74,17.5,19.97,18.83,10.25,1.03,20.64,1.17,30.59-2.58,2.31,7.58,.92,15.29,.86,22.95-.61,2.34-1.84,4.32-3.48,6.07-4.31,4.58-7.06,9.92-7.58,16.23-.39,4.71-2.79,7.45-7.37,8.62-5.1,1.3-9.96,3.22-14.33,6.25-1.44,1-3.07,1.66-4.77,2.11-1.22,.32-2.56,.66-3.51-.42-1.06-1.22-.08-2.38,.59-3.36,2.63-3.83,2.32-8.01,1.53-12.22-.58-3.07-2.28-5.45-4.97-7.14-2.22-1.39-4.46-2.79-6.8-3.92-7.1-3.42-10.19-9.53-11.81-16.71-1.48-6.56-2.26-13.19-2.2-19.95,.1-11.3-.03-22.6,.83-33.87,.3-3.87,1.06-7.62,3.19-10.97,4.18-4.56,9.84-6.43,15.56-7.25,11.95-1.72,22.69,1.25,31.29,10.2Z"/>
    <path class="cls-7" d="M66.7,16.54c-3.02,9.12-2.73,18.62-2.83,28-.13,12.26-1.08,24.58,2.01,36.72,1.79,7.04,4.61,13.04,11.73,16.1,.68,.29,1.25,.86,1.95,1.11,11.82,4.29,13.3,17.38,6.78,25.9,3.17,.46,5.74-.88,7.98-2.43,4.5-3.13,9.5-4.87,14.7-6.23,3.38-.88,5.91-2.28,5.96-6.4,.14-9.87,6.78-16.44,12.41-23.49,.04,10.38-.67,20.59-6.25,29.81-1.57,2.59-1.25,5.76-2.57,8.5-2.41,5-4.01,6.12-9.5,5.96-4.1-.12-8.2-.58-12.31,.15-5.83,1.03-9.85,5.13-14.41,8.29-4.27,2.96-8.61,5.43-14.1,5.04-2.4-.17-4.38-.91-5.78-2.88-7.08-9.94-17.67-13.55-28.99-14.98-7.47-.95-13.28-4.32-19.67-9.36,5.53,0,10.17,.04,14.8,0,11.5-.12,21.09-7.46,24.83-18.09,2.18-6.21,1.36-12.51,1.92-18.75,1.55-17.41,2.41-34.9,6.34-52.01,.9-3.91,1.7-8.05,5.02-10.95Z"/>
    <path class="cls-1" d="M85.45,146.28c11.97,.39,23.92,1.01,35.47,4.53,2.56,.78,6.15,1.38,6.22,4.47,.08,3.41-3.68,4.08-6.32,4.83-10.6,3.02-21.54,4.18-32.49,4.57-16.97,.61-33.94,.17-50.65-3.44-2.56-.55-5.1-1.14-7.47-2.31-1.58-.78-3.33-1.57-3.29-3.64,.04-2.1,1.96-2.79,3.5-3.45,5.19-2.22,10.75-3.12,16.28-3.99,3.56-.56,7.19-.68,10.78-.99,.33,.05,.66,.1,.99,.15,8.65,5.13,17.1,3.4,25.49-.72,.5,0,.99,0,1.49-.01Z"/>
    <path class="cls-7" d="M50.17,52.5c-1.17,13.92-2.31,27.85-3.54,41.76-.12,1.33-.68,2.64-1.19,3.9-.58,1.45-1.24,3.59-2.78,3.49-2.13-.14-4.33-1.2-5.17-3.63-1.03-2.96-1.68-6.16-1.23-9.12,1.52-9.91-.01-19.82,.54-29.71,.1-1.71-.23-3.49,.72-5.09,3.44-3.2,8.84-3.88,12.65-1.6Z"/>
    <path class="cls-6" d="M50.17,52.5c-4.41-.95-8.56,.09-12.65,1.6,.01-7.38,2.48-9.72,9.72-9.59,2.88,.05,4.11,.98,3.34,3.98-.33,1.29-.29,2.67-.41,4.01Z"/>
    <path class="cls-3" d="M83.96,146.3c-6.65,6.26-19.45,6.63-25.49,.72,8.46-1.45,16.99-.44,25.49-.72Z"/>
    <path class="cls-8" d="M90.66,29.09c11.04-2.12,22.08-2.69,33.12,.03-1.25,1.26-2.75,.83-4.2,.59-2.09-.35-4.19-.45-6.29-.18-1.51,.19-2.56,.99-2.59,2.63-.03,1.46,.84,2.36,2.21,2.54,3.69,.48,7.27,1.51,10.9,2.23,1.58,.32,3.43,.42,4.17-1.46,.72-1.84-.65-2.92-1.97-3.95-.87-.68-2.56-.66-2.3-2.42,4.92,.39,6.44,1.78,8.26,7.54,1.12,7.93-.54,10.53-8.29,11.99-10.53,1.99-20.83,1.68-30.39-3.98-1.73-1.03-3.3-2.24-4.43-3.93-2.48-3.71-1.76-8.31,1.8-11.63Z"/>
    <path class="cls-5" d="M90.66,29.09c-4.17,6.63-3.09,11.12,3.88,15.02,10.54,5.9,21.7,5.63,32.87,2.45,4.82-1.37,4.75-5.82,4.56-9.92,2.23,11.44,1.54,15.77-9.28,19.27-9.24,2.99-18.78,3.6-28.28,1.2-10.18-2.58-14.92-14.92-9.29-23.85,1.28-2.02,3.23-3.39,5.54-4.17Z"/>
    <path class="cls-4" d="M123.72,29.1c1.28,.71,2.63,1.31,3.81,2.15,1.47,1.05,2.5,2.42,1.85,4.41-.64,1.95-2.08,2.82-4.01,2.5-4.62-.77-9.24-1.53-13.79-2.62-1.93-.46-2.4-2.41-2.15-4.25,.27-2.05,1.75-2.75,3.67-2.96,3.62-.4,7.12,.64,10.69,.8,0,0-.06-.02-.06-.02Z"/>
  </g>
</svg>