<?xml version="1.0" encoding="UTF-8"?>
<svg id="Layer_1" data-name="Layer 1" xmlns="http://www.w3.org/2000/svg" width="141" height="165.75" viewBox="0 0 141 165.75">
  <defs>
    <style>
      .cls-1 {
        fill: #373b3c;
      }

      .cls-1, .cls-2 {
        opacity: .5;
      }

      .cls-3 {
        fill: #f9fbf9;
      }

      .cls-4 {
        fill: #6a83b0;
      }

      .cls-5 {
        fill: #f7bc0d;
      }

      .cls-6 {
        fill: #d58917;
      }

      .cls-7 {
        fill: #0e0e30;
      }

      .cls-8 {
        fill: #94c9db;
      }

      .cls-9 {
        fill: #00002c;
      }
    </style>
  </defs>
  <g class="cls-2">
    <path class="cls-9" d="M131.12,57.53c.92,11.23,1.16,22.48,.91,33.73-.1,4.44-.38,8.92-1.07,13.3-1.46,9.23-7,15.42-15.53,18.89-2.5,1.02-4.07,2.5-4.39,4.95-1.17,8.89-5.96,14.94-14.09,18.53-1.45,1.38-3.19,.73-4.85,.71-7.37-.58-14.76-.07-22.13-.34-.95-.06-1.84-.27-2.49-1.04-6.35-6.33-14.83-6.11-22.83-7.37-2.22-.35-4.43-.77-6.66-.96-7.23-.62-12.13-4.64-15.89-10.48-2.42-3.77-4.69-7.61-6.54-11.69-1.64-3.64-4.18-6.38-7.76-8.26-4.44-2.33-5.85-4.72-4.61-7.33,1.14-2.39,5.94-3.69,9.46-2.2,4.23,1.79,8.36,3.83,12.43,5.96,1.72,.9,3.36,1.59,5.69,1.15-5.72-6.11-4.98-13.7-5.08-20.99-.18-13.19,1.2-26.24,3.91-39.18,.79-3.76,2.91-5.86,6.24-7.16,3.38-1.32,6.91-2.23,10.49-2.54,2.28-.2,2.87-1.15,3.14-3.18,.71-5.3,2.24-10.39,4.24-15.38,3.55-8.85,10.23-13.77,19.34-15.81,.7-.16,1.54,.09,1.94-.78h17.98c6.94,.55,13.38,2.58,19.21,6.41,3.9,2.57,7.19,5.76,9.82,9.59,.78,1.13,1.99,2.41,.48,3.92-3.77,1.16-7.4-.34-11.09-.59-3.74-1.97-6.69-5.07-10.55-6.96-10.9-5.34-21.58-5.02-32.26,.48-2.04,1.05-3.64,2.58-5.12,4.27-3.68,5.32-4.28,11.61-5.35,17.66-2.7,15.29-3.65,30.78-4.75,46.25-.35,4.92,.17,9.99-1.34,14.79-4.46,14.18-12.39,19.21-27.41,17.51,3.81,12,8.96,16.36,22.17,17.62,2.23,.21,4.49-.03,6.74,.08,5.08,.24,9.86,1.35,13.99,4.55,4.09,3.17,8.79,4.49,13.98,4.41,3.27-.05,6.49-.46,9.66-1.06,5.6-1.06,9.66-4.08,10.8-9.95,1.24-6.38,4.37-11.07,10.48-13.98,7.16-3.41,10.68-9.08,10.41-17.37-.15-4.65,.69-9.39,.53-14.11,.34-7,.47-14-.23-21,1.87-2.9,4.76-4.24,7.97-5.07Z"/>
    <path class="cls-9" d="M110.71,18.59c4.02,.29,8.03,.59,12.05,.88,7.24,1.01,13.34,6.9,14.6,13.94,.19,1.07-.21,2.25,.57,3.21v10.44c-1.96,3.69-3.19,7.84-6.81,10.46-2.16,1.97-4.79,3.17-7.37,4.46-3.71,2.65-8.09,3.1-12.4,3.6-7.97,.93-15.9,.72-23.77-1.2-9.03-2.2-14.27-7.66-15.48-16.89-.59-4.45-.91-8.95,.08-13.34,2-8.85,9.05-14.83,19.26-16.22,5.56-.75,11.21-.29,16.81-.2,.89,.01,1.68,.44,2.45,.84Z"/>
    <path class="cls-1" d="M93.09,147.02c1.27-.83,2.58,.38,3.86-.09,7.16,.95,14.35,1.71,21.27,3.94,.71,.23,1.45,.41,2.11,.75,1.63,.86,3.84,1.49,3.93,3.58,.11,2.32-2.02,3.28-3.9,3.98-9.09,3.38-18.67,4.34-28.22,5.02-19.22,1.38-38.39,.98-57.36-2.95-2.93-.61-5.86-1.25-8.46-2.8-3.33-1.98-3.39-4.23,.05-6.04,5.26-2.77,11.13-3.66,16.89-4.47,8.02-1.12,16.11-1.68,24.23-1.67,.76,0,1.51,.02,2.27,.02,7.73,1.79,15.54,1.29,23.34,.73Z"/>
    <path class="cls-5" d="M110.71,18.59c-4.62,0-9.24,0-13.85,.03-17.32,.15-25.92,9.82-23.91,26.89,1.38,11.72,6.77,17.13,19,18.69,10.22,1.31,20.39,1.22,30.32-2.09,.46-.15,.99-.09,1.48-.13,1.72,7.07,1.07,14.22,.65,21.36-.54,3.15-2.05,5.79-4.06,8.25-2.15,2.62-3.81,5.57-4.63,8.87-.83,3.34-2.83,5.72-5.47,7.75-2.07,1.6-4.41,2.83-6.4,4.54-2.41,2.06-4.23,4.47-5.25,7.55-1.49,4.48-4.8,7.45-8.88,9.64-1.34,.72-2.83,.95-4.35,.88-3.03-.14-3.87-1.15-2.93-4.04,1.08-3.32,2.07-6.6,2.05-10.16-.03-5.76-2.41-10.31-6.73-13.95-2.96-2.48-6.03-4.83-9.18-7.06-2.35-1.66-3.78-3.83-4.69-6.53-2.69-7.97-3.6-16.27-4.04-24.54-.48-8.92-.47-17.9,0-26.82,.39-7.23-.18-14.71,3.24-21.53,5.6-6.11,12.99-8.19,20.85-8.46,10.43-.36,19.54,3.11,26.77,10.86Z"/>
    <path class="cls-6" d="M63.08,16.19c-3.24,16.6-2.32,33.4-2.19,50.13,.05,5.76,1.5,11.53,2.45,17.27,.96,5.88,3.62,10.63,9.09,13.68,2.37,1.32,4.42,3.24,6.51,4.99,6.64,5.57,8.53,14.46,5,23.06-.55,1.35-1.91,3.12-1.05,4.08,1.13,1.27,3.39,.88,4.95,.25,4.39-1.78,8.17-4.55,9.6-9.24,1.4-4.61,4.39-7.68,8.2-10.2,4.51-2.98,8.8-5.99,9.73-12,.35-2.24,1.82-4.33,3.3-6.21,2.15-2.73,4.22-5.51,5.73-8.66,.5,6.47-.68,12.88-.82,19.34-.08,3.99-1.95,7.45-5.36,9.81-2.66,1.84-5.27,3.86-8.17,5.21-3.58,1.65-5.82,4.62-6.14,7.93-1.25,12.94-9.87,14.5-20.05,15.45-6.63,.62-12.62-.96-17.82-5.19-3.6-2.93-7.9-3.55-12.32-3.51-5.39,.04-10.68-.35-15.86-2.04-5.39-1.76-9.44-4.82-11.7-10.14-1.21-2.84-2.74-5.55-4.39-8.86,4.74,1.74,9.12,1.95,13.52,1.04,10.11-2.1,15.43-9.73,16.31-20.69,1.54-19.17,2.37-38.4,5.49-57.39,1.02-6.24,1.69-12.83,5.99-18.09Z"/>
    <path class="cls-6" d="M47.15,51.54c-1.57,13.66-1.61,27.45-3.51,41.07-.2,1.45-.62,2.93-1.26,4.24-.71,1.46-.92,4.02-2.97,3.72-2.25-.33-4.61-1.6-5.13-4.27-.54-2.78-1.45-5.73-1.01-8.42,1.63-9.9,0-19.8,.53-29.68,.09-1.73-.11-3.49,.71-5.12,3.89-3.47,9.25-4.12,12.65-1.54Z"/>
    <path class="cls-5" d="M47.15,51.54c-4.48-1.59-8.55,.1-12.65,1.54,.06-7.39,2.46-9.79,9.46-9.79,3.06,0,4.51,.91,3.66,4.19-.34,1.31-.33,2.7-.47,4.06Z"/>
    <path class="cls-7" d="M93.09,147.02c-7.87,2.5-15.66,2.51-23.34-.73,6.33,0,12.66,.01,18.99,0,1.5,0,2.98,0,4.35,.73Z"/>
    <path class="cls-8" d="M121.97,28.31c4.88,.15,6.02,3.8,7.08,7.52,.86,8.2-.68,10.35-8.64,11.58-9.08,1.4-18.1,1.77-26.78-2.1-2.31-1.03-4.39-2.33-6.15-4.13-3.59-3.67-4.01-7.52-1.3-12.14,2.6-2.46,5.98-2.07,9.12-2.35,6.28-.55,12.58-.94,18.85,.14-.95,1.28-2.5,.91-3.76,1.33-1.35,.45-2.7,.94-2.75,2.63-.05,1.59,.99,2.69,2.41,2.93,4.06,.7,8.04,1.78,12.11,2.36,1.23,.18,2.19-.38,2.75-1.5,.6-1.19,.06-2.12-.67-3.06-.81-1.03-2.38-1.53-2.27-3.2Z"/>
    <path class="cls-4" d="M86.18,29.03c-1.32,10.77,4.57,17.13,17.02,17.97,5.41,.37,10.84,.56,16.28-.54,8.67-1.74,9.23-2.16,9.57-10.64,2.27,11.78,.78,15.79-10.1,19.2-8.3,2.59-16.79,3.11-25.39,1.67-11.13-1.87-17-13.42-11.9-23.52,.96-1.9,2.29-3.54,4.52-4.13Z"/>
    <path class="cls-3" d="M121.97,28.31c1.15,.91,2.37,1.74,3.42,2.75,1.16,1.11,1.57,2.41,.7,4.01-.8,1.46-1.88,2.45-3.53,2.16-4.51-.8-9-1.7-13.47-2.7-1.93-.44-2.76-1.92-2.76-3.9,0-2.04,1.43-2.84,3.03-3.23,1.54-.38,3.18-.4,4.78-.58,2.61,.5,5.22,.99,7.83,1.49Z"/>
  </g>
</svg>