<?xml version="1.0" encoding="UTF-8"?>
<svg id="Layer_1" data-name="Layer 1" xmlns="http://www.w3.org/2000/svg" width="133.5" height="180" viewBox="0 0 133.5 180">
  <defs>
    <style>
      .cls-1 {
        fill: #373b3c;
        opacity: .5;
      }

      .cls-2 {
        fill: #f9fbf9;
      }

      .cls-3 {
        fill: #6a83b0;
      }

      .cls-4 {
        fill: #992b49;
      }

      .cls-5 {
        fill: #cf2e4a;
      }

      .cls-6 {
        fill: #94c9db;
      }

      .cls-7 {
        fill: #00002c;
      }
    </style>
  </defs>
  <path class="cls-7" d="M13.22,74.16c.4,11.56-.12,23.3,6.16,33.76,1.15,1.92-.13,2.18-1.22,3.04-7.75,6.13-14.2,13.24-17.32,22.9-1.95,6.04-.56,11.11,4.24,15.12,4.3,3.59,9.37,5.74,14.9,6.47,5.75,.76,9.72-1.62,12.39-7.53,2.51-5.55,6.39-10.09,10.11-14.75,3.08-3.86,7.62-5.47,12.14-6.99,1.24-.41,2.25,.09,3.19,.62,4.67,2.62,9.44,5.08,13.89,8.04,8.74,5.82,17.1,4.07,25.15-1.07,3.86-2.47,7.32-5.61,10.77-8.67,4.57-4.06,4.52-8.43,.15-12.9-.77-.79-1.5-1.62-2.4-2.59,7.47-4.67,8.55-12.36,9.5-19.9,2.08-16.39,.23-32.6-2.95-48.7-.61-3.08-2.27-5.16-5.19-6.32-4.89-1.94-9.87-3.56-15.22-3.04-1.69,.17-2.81,0-3.46-1.83-4.15-11.5-12.99-16.57-24.62-17.5-9.94-.8-19.71,.06-28.89,4.33-8.88,4.12-15.13,10.79-18.62,19.98,3.92-.21,7.62-1.51,11.4-2.38,2.58-1.76,4.43-4.3,6.82-6.29,10.84-9.05,28.11-8.34,38.77-2.79,1.57,.82,2.67,2.22,3.98,3.34,1.85,1.49,2.58,3.66,3.34,5.75,2.69,7.43,4.18,15.04,4.72,23,.44,6.47,.74,12.97,.87,19.41,.14,6.77,.13,13.68-1.81,20.4-2.67,9.24-8.84,14.81-17.63,17.85-6.49,2.24-13.08,4.17-19.54,6.48-6.43,2.31-11.39,5.99-14.16,12.44-1.37,3.21-3.1,6.27-4.69,9.38-1.53,3-3.75,4.51-7.21,4.18-1.61-.16-3.24-.1-4.82-.55-6.55-1.87-8.8-6.04-5.96-12.25,4.01-8.76,9.58-16.33,18.21-21.22,3.22-1.82,3.52-3.12,1.18-5.85-4.25-4.96-5.99-10.93-6.88-17.14-.55-3.8-1.18-7.65-1.02-11.54-.07-.6-.24-1.16-.55-1.68-2.38-1.5-4.45-3.82-7.74-2.99Z"/>
  <path class="cls-1" d="M60.54,179.9c13.53,.48,26.84-.96,39.92-4.47,2.42-.65,4.74-1.53,6.88-2.8,4.85-2.88,4.88-6.49-.09-9.24-5.28-2.92-11.12-4.4-17.02-5.24-19.71-2.81-39.47-2.79-59.18,.01-5.4,.77-10.74,2.17-15.7,4.56-2.24,1.08-4.81,2.28-4.86,5.15-.05,3.05,2.53,4.38,4.94,5.48,7.57,3.47,15.74,4.48,23.86,5.62,7.04,.99,14.15,1.18,21.26,.92Z"/>
  <path class="cls-7" d="M27.5,33.63c-3.98,.52-8.03,.75-11.56,2.98-12.9,5.46-14.23,28.96-3.92,36.18,.49,.34,.81,.91,1.22,1.37,2.52,1.05,5.03,2.09,7.55,3.14,.55,1.11,1.58,1.55,2.68,1.85,10.57,2.82,21.25,3.3,31.81,.37,11.26-3.12,14.87-7.86,15.77-19.43,.23-2.99,.34-6.01,0-8.98-.97-8.41-5.72-14.16-13.59-16.72-9.31-3.03-19.01-1.81-28.59-1.38-.48,.02-.92,.37-1.35,.62Z"/>
  <path class="cls-4" d="M20.7,78.8c0,6,.49,11.93,2.1,17.74,1.24,4.49,2.84,8.78,6.31,12.09,1.61,1.54,1.41,2.58-.63,3.6-9.13,4.57-14.82,12.37-19.12,21.22-3.83,7.88-.32,13.78,8.4,14.94,7.47,.99,8.28,.62,11.85-5.99,1.48-2.74,3-5.49,4.1-8.39,2.29-6.01,6.94-9.24,12.66-11.27,6.33-2.24,12.68-4.44,19.07-6.52,14.51-4.71,19.85-12.88,20.97-27.53,1.04-13.55,.32-27.13-1.37-40.62-.75-5.93-2.51-11.68-5.05-17.13-.6-1.29-.92-2.94-2.77-3.2-.33,.56-.49,1.2-.33,1.8,1.89,7.48,1.08,15.17,1.61,22.74,.63,9.07-.08,18.22-3.12,26.98-3.77,10.86-13.24,17.34-24.71,17.95-13.06,.69-22.02-4.86-27.79-16.27-.46-.91-.61-2.29-2.18-2.14Z"/>
  <path class="cls-5" d="M20.7,78.8c2.38,5.9,6.01,10.89,11.16,14.64,16.64,12.15,40.69,2.74,45.68-17.81,2.47-10.19,2.37-20.51,1.74-30.87-.35-5.71-.09-11.5-2.06-17.01-3.57-5.11-9.32-6.18-14.71-7.12-14.04-2.45-26.18,1.03-35.02,13,8.58,.32,17.21-.86,25.75,.72,10.96,2.02,16.93,9.2,16.91,20.28,0,3.11-.23,6.2-.66,9.3-.98,7.09-4.96,11.66-11.58,13.72-12.37,3.86-24.79,3.24-37.15-.34-.02,.5-.05,1-.07,1.5Z"/>
  <path class="cls-4" d="M92.58,47.83c.98,9.02,2.39,18.04,1.88,27.13-.46,8.17,.3,16.44-1.88,24.48-.51,1.88-.24,3.19,2.24,2.76,.57-.1,1.22,.16,1.82,.3,4.76,1.09,6.72,.11,8.7-4.39,2.21-5.01,2.54-10.43,2.72-15.73,.38-10.94,.56-21.91-.69-32.83-3.22-3.24-9.8-4.01-14.79-1.73Z"/>
  <path class="cls-4" d="M67.97,123.54c4.62,2.74,8.42,5.33,12.51,7.29,2.42,1.16,5.12-.2,7.62-.95,5.84-1.75,9.89-6.07,14.28-9.93,1.3-1.15,.55-2.08-.18-2.84-2.08-2.14-4.25-4.2-6.45-6.22-1.38-1.26-3.03-1.05-4.54-.27-2.76,1.42-5.67,2.68-8.15,4.51-4.44,3.26-9.03,6.19-15.08,8.41Z"/>
  <path class="cls-5" d="M92.58,47.83c5.08-.67,10.06-.59,14.79,1.73-.91-8.1-7.53-12.31-15.35-9.86-1.32,.42-1.03,1.23-.88,1.99,.41,2.06,.95,4.1,1.44,6.14Z"/>
  <path class="cls-6" d="M22.87,42.78c-5.12,.02-7.02,1.72-9.1,8.12-.93,7.8,.55,10.01,7.99,11.47,7.54,1.48,15.1,1.32,22.61-.24,4.5-.93,8.4-3.05,11.56-6.45,3.12-3.35,3.37-7.65,.68-11.52-2.62-2.68-6.1-2.17-9.34-2.46-6.39-.55-12.79-.88-19.17,.19,1.25,1.38,3.05,.77,4.55,1.27,1.32,.44,2.76,.83,2.81,2.54,.05,1.58-1.06,2.71-2.41,2.97-4.03,.76-7.97,1.88-12,2.56-1.41,.24-2.74-.48-3.24-1.99-.46-1.4,.48-2.31,1.35-3.24,1.13-1.21,3.48-1.02,3.72-3.24Z"/>
  <path class="cls-3" d="M56.6,44.17c3.59,10.12-3.69,14.74-12.89,17.02-7.38,1.83-15,1.58-22.5,.06-6.08-1.23-7.28-2.94-7.43-10.34-1.72,10.86-1.49,15.5,9.1,18.87,10.12,3.22,20.35,4.38,30.65,.77,6.12-2.15,8.96-6.15,9.05-12.6,.07-4.72,.61-9.59-3.98-12.89-.62-.45-1.19-.89-1.99-.88Z"/>
  <path class="cls-2" d="M22.87,42.78c-1.39,.71-2.86,1.31-4.17,2.16-1.62,1.06-2.85,2.47-2.06,4.65,.81,2.2,2.51,3.1,4.71,2.64,3.99-.84,7.87-2.1,11.97-2.49,2.34-.23,3.43-2.04,3.43-4.19,0-2.07-1.65-2.96-3.48-3.24-1.71-.26-3.45-.28-5.17-.4-1.68,.68-3.42,.94-5.22,.88Z"/>
</svg>