<?xml version="1.0" encoding="UTF-8"?>
<svg id="Layer_1" data-name="Layer 1" xmlns="http://www.w3.org/2000/svg" width="133.5" height="180" viewBox="0 0 133.5 180">
  <defs>
    <style>
      .cls-1 {
        fill: #0101ce;
      }

      .cls-2 {
        fill: #373b3c;
        opacity: .5;
      }

      .cls-3 {
        fill: #f9fbf9;
      }

      .cls-4 {
        fill: #6a83b0;
      }

      .cls-5 {
        fill: #f7bc0d;
      }

      .cls-6 {
        fill: #d58917;
      }

      .cls-7 {
        fill: #94c9db;
      }

      .cls-8 {
        fill: #00002c;
      }
    </style>
  </defs>
  <path class="cls-8" d="M103.91,98.03c.89,14.61-2,28.33-10.82,40.14-2.79,3.74-5.55,6.82-5.47,11.89,.04,2.76-1.67,5.4-4.19,7.11-2.87,2.89-3.64,6.37-3.6,10.42,.04,4.27-3.36,7.72-8.77,8.75-7.14,1.36-14.27,.78-21.12-1.94-2.31-.92-3.88-2.53-4.72-4.93-1.67-4.76-4.33-9.23-4.06-14.54-1.35-3.95-3.78-7.23-6.43-10.37-1.18-1.39-2.45-2.7-4.15-.53-.29,.37-.77,.63-1.2,.87-8.87,4.79-23.39-1.02-26.41-10.65C.13,125.21-.25,115.85,.11,106.5c.39-10.2,1.46-20.36,3.6-30.38,.72-3.34,2.31-5.6,5.52-6.88,4.52-1.8,9.07-3.24,14.02-2.9,1.3,.09,2.68,.44,3.43-1.3,4.85-11.36,14.81-14.58,25.72-16.08,14.55-2,28.19-.21,39.53,10.3,3.11,2.88,5.86,6.06,7.42,10.11-3.7,.31-7.08-1.49-10.71-1.61-4.08-3.37-7.97-6.98-13.35-8.31-10.67-2.63-21.21-2.21-31.66,1.04-5.37,2.14-8.37,6.65-10.5,11.58-4.03,9.29-6.98,18.93-6.79,29.27,.12,6.1-.15,12.2,.7,18.29,.51,3.66,1.57,7.04,3.41,10.19,1.31,2.24,2.96,3.97,5.81,4.05,2.05,.05,3.39,1.33,4.43,2.99,4.84,7.72,9.2,15.69,11.77,24.49,.87,2.98,2.5,4.67,5.64,5.05,2.69,.33,5.31,1.19,8.09,.84,2.91-.37,4.38-1.73,4.35-4.89-.06-5.61-1.12-11.15-.81-16.79,.29-5.31,1.25-6.38,6.62-6.83,5.44-.46,9.1-4.05,11.84-8.2,4.32-6.53,6.49-13.95,6.89-21.84,.1-2.26,.61-4.48,.7-6.74,2.24-2.28,5.03-3.42,8.12-3.93Z"/>
  <path class="cls-2" d="M41.17,154.93c1.42,4.07,3.17,8.05,4.17,12.22,1.18,4.94,4.67,6.86,8.92,7.71,4.84,.97,9.8,1.42,14.76,1,6.21-.52,10.18-4.53,9.87-10.56-.2-3.95,.75-6.7,4.55-8.12,3.51,1.81,7.49,2,11.14,3.32,2.2,.8,4.44,1.58,6.48,2.71,4.89,2.71,4.9,6.38,.11,9.23-3.12,1.86-6.56,2.86-10.08,3.65-22.15,4.95-44.39,5.03-66.69,1.23-5.1-.87-10.23-1.85-14.91-4.29-2.25-1.17-4.66-2.45-4.61-5.31,.05-2.87,2.55-4.14,4.81-5.16,9.16-4.13,18.95-5.39,28.84-6.17,1.04-.08,2.69,.7,2.64-1.47Z"/>
  <path class="cls-8" d="M88.49,67.13c3.82-.19,7.48,.4,10.88,2.25,8.64,4.98,12.01,12.71,9.5,21.42-.87,3.02-2.8,5.17-4.95,7.23-2.41,1.68-5.04,2.92-7.85,3.75-.62,1.44-1.94,1.93-3.27,2.2-12.66,2.56-25.31,3.19-37.81-.83-5.94-1.91-9.41-6.08-10.65-12.29-1.49-7.41-.96-14.16,5.15-19.51,3.22-2.82,7.15-4,11.16-4.8,7.71-1.55,15.53-1.25,23.34-1.02,1.67,.05,3.08,.87,4.51,1.61Z"/>
  <path class="cls-6" d="M96.01,108.48c-1.18,12.23-3.71,23.76-15.65,30.36-1.28,.71-2.55,1.34-4.21,1.08-3.81-.61-5.65,.95-5.56,4.78,.1,3.85,.47,7.7,.74,11.55,.16,2.23,.1,4.51,.34,6.69,.43,4.03-1.86,4.92-4.91,5.28-4.26,.49-8.36-.62-12.45-1.58-1.65-.39-1.82-1.89-2.17-3.19-2.6-9.59-7.54-18.08-12.42-26.59-.72-1.26-1.88-2.34-3.28-2.08-3.73,.7-5.37-1.78-6.96-4.29-2.61-4.11-3.41-8.77-3.79-13.53-1.19-14.82-.49-29.38,5.59-43.25,1.76-4.01,3.82-7.82,6.91-10.99,1.6-1.64,3.35-2.96,5.64-3.4,.4,1.21-.23,2.17-.72,3.17-5.87,11.86-6.61,24.36-4.3,37.14,.88,4.89,2.22,9.71,4.13,14.35,1.48,3.59,3.94,6.15,7.59,7.16,10.74,2.95,21.52,3.37,32.14-.52,4.55-1.67,8.07-4.77,10.44-9.12,.67-1.23,.99-2.93,2.9-3.01Z"/>
  <path class="cls-5" d="M96.01,108.48c-5.42,12.11-15.54,15.74-27.76,15.73-5.58,0-11.13,.02-16.57-1.51-4.84-1.36-8.14-4.14-10.01-9.03-5.36-14.02-6.47-28.26-3.04-42.87,.98-4.18,2.98-7.88,5.22-11.48,3.6-1.98,7.66-1.75,11.52-2.18,9.34-1.04,18.55-.58,27.01,4.24,2.47,1.41,4.8,3.05,6.12,5.75-8.42-.48-16.85-.79-25.24,.15-4.82,.54-9.61,1.63-13.29,5.14-10.12,9.63-6.2,26.86,7.25,30.37,12.92,3.37,26,2.99,38.86-1.01,1.55,2.25-.42,4.47-.06,6.7Z"/>
  <path class="cls-6" d="M19.39,82.21c-1.89,11.38-2.13,22.79-.82,34.25,.72,6.35,1.92,12.58,5.08,18.2,1.56,2.77,.36,2.99-2.02,3.06-9.05,.27-11.27-1.43-12.77-10.49-2.36-14.26-1.37-28.57-.5-42.87,2.91-3.21,6.94-3.99,11.04-2.14Z"/>
  <path class="cls-5" d="M19.39,82.21c-3.88-.33-7.59,.24-11.04,2.14,.74-8.08,2.79-9.99,10.67-10.08,1.95-.02,3.25,.13,2.1,2.65-.76,1.67-1.17,3.52-1.73,5.28Z"/>
  <path class="cls-1" d="M78.51,151.19c-.28-1.86-1.07-3.42,.94-4.2,.37-.14,1.22,.03,1.29,.25,.61,1.79-.69,2.64-2.23,3.95Z"/>
  <path class="cls-7" d="M94.83,75.29c4.17,.52,5.9,2.78,6.39,8.37-.32,3.6-2.4,5.59-5.78,6.36-9.62,2.21-19.2,2.15-28.68-.71-2.99-.9-5.75-2.37-8.06-4.53-2.89-2.7-3.04-5.93-.54-9.26,1.63-2.05,4.04-1.6,6.16-1.81,7.59-.75,15.2-.81,22.8-.03-1.03,1.73-2.79,1.08-4.28,1.31-1.34,.21-3.01,.21-3.04,1.99-.03,1.79,1.7,1.83,2.99,2.08,3.13,.62,6.29,1.08,9.42,1.7,1.57,.31,3.34,.69,4.36-.95,.94-1.52-.68-2.41-1.34-3.51-.19-.32-.34-.66-.41-1.02Z"/>
  <path class="cls-4" d="M58.16,75.52c-1.69,6.29-.83,8.46,5.15,11.2,10.82,4.96,22.05,4.6,33.33,1.96,2.51-.59,3.6-2.84,4.58-5.02,.45,8.28-.71,10.32-8.59,12.56-10.2,2.9-20.58,3.63-30.97,.83-8.23-2.22-11.6-8.91-8.72-16.94,.9-2.51,2.38-4.32,5.21-4.59Z"/>
  <path class="cls-3" d="M94.83,75.29c1.59,1.19,4.33,1.84,3.31,4.58-1.04,2.8-3.6,2.4-5.99,1.96-3.49-.65-6.99-1.31-10.51-1.8-2.15-.3-3.67-1.35-3.54-3.48,.13-2.08,2.02-2.57,3.86-2.66,1.72-.08,3.43-.13,5.15-.2,2.57,.54,5.14,1.07,7.71,1.61Z"/>
</svg>