<?xml version="1.0" encoding="UTF-8"?>
<svg id="Layer_1" data-name="Layer 1" xmlns="http://www.w3.org/2000/svg" width="133.5" height="180" viewBox="0 0 133.5 180">
  <defs>
    <style>
      .cls-1 {
        fill: #0101ce;
      }

      .cls-2 {
        fill: #373b3c;
        opacity: .5;
      }

      .cls-3 {
        fill: #f9fbf9;
      }

      .cls-4 {
        fill: #6a83b0;
      }

      .cls-5 {
        fill: #f7bc0d;
      }

      .cls-6 {
        fill: #d58917;
      }

      .cls-7 {
        fill: #94c9db;
      }

      .cls-8 {
        fill: #00002c;
      }
    </style>
  </defs>
  <path class="cls-8" d="M104.62,98.05c.86,14.6-2,28.31-10.91,40.12-2.81,3.72-5.59,6.81-5.49,11.89,.05,2.75-1.69,5.39-4.19,7.12-2.93,2.87-3.68,6.36-3.65,10.4,.03,4.27-3.38,7.72-8.82,8.75-7.19,1.36-14.36,.79-21.25-1.94-2.33-.92-3.92-2.53-4.75-4.93-1.66-4.76-4.39-9.22-4.06-14.54-2.5-7.03-7.33-12.02-13.92-15.24-3.19-1.56-6.85-.67-10.29-1.02-8.1-.82-11.92-3.52-14.29-11.28C-.07,117.35-.36,107,.28,96.66c.56-9.18,1.5-18.35,3.51-27.38,.75-3.35,2.51-5.45,5.65-6.82,5.88-2.57,11.96-3.34,18.24-2.58,1.57,.19,2.46-.13,3.42-1.38,2.92-3.8,6.96-5.94,11.5-7.2,12.73-3.55,25.53-4.85,38.08,.42,8.44,3.54,15.43,9.03,19.36,17.68-3.75,.5-7.13-1.48-10.78-1.6-5.54-5.51-12.1-8.95-19.96-9.66-8.58-.77-17.07-.47-25.32,2.39-5.41,2.14-8.46,6.64-10.58,11.58-4.05,9.43-7.08,19.18-6.85,29.66,.13,5.98-.13,11.96,.71,17.93,.52,3.66,1.58,7.04,3.46,10.19,1.33,2.22,2.98,3.94,5.83,4.14,1.99,.14,3.44,1.31,4.51,2.99,4.86,7.59,9.15,15.48,11.69,24.16,1.02,3.5,3.15,5.15,6.65,5.51,2.72,.28,5.39,.98,8.17,.45,2.33-.44,3.43-1.63,3.45-4.07,.04-4.62-.55-9.2-.63-13.81-.04-1.99-.25-3.99,0-5.98,.37-2.89,2.14-4.71,4.98-4.58,6.57,.29,10.5-3.8,13.62-8.46,4.3-6.41,6.36-13.77,6.74-21.52,.21-2.24,.4-4.49,.61-6.73,2.34-2.18,4.99-3.71,8.27-3.92Z"/>
  <path class="cls-2" d="M41.48,154.92c1.42,4.07,3.18,8.05,4.17,12.22,1.18,4.95,4.7,6.85,8.97,7.71,4.88,.98,9.87,1.41,14.86,1,6.23-.51,10.24-4.55,9.93-10.57-.2-3.95,.77-6.7,4.6-8.1,3.52,1.84,7.54,1.97,11.2,3.31,2.21,.81,4.48,1.58,6.52,2.72,4.94,2.75,4.92,6.34,.07,9.23-3.36,2-7.08,3.08-10.85,3.85-24.46,4.99-48.91,5.03-73.31-.43-3.04-.68-6-1.65-8.75-3.16-2.01-1.11-4.03-2.45-3.98-4.99,.04-2.56,2.19-3.79,4.19-4.82,5.14-2.62,10.72-3.98,16.35-4.93,4.65-.79,9.38-1.1,14.09-1.54,1.06-.1,2.03-.04,1.94-1.5Z"/>
  <path class="cls-8" d="M89.08,67.16c3.84-.21,7.47,.63,10.94,2.23,8.73,5.05,12.1,12.72,9.56,21.42-.88,3.01-2.8,5.18-4.97,7.24-2.57,1.39-5.06,2.94-7.91,3.75-.79,1.46-2.2,2-3.68,2.31-11.74,2.5-23.54,2.68-35.23-.06-6.74-1.58-11.58-5.53-13.09-12.82-1.55-7.51-1.17-14.4,5.11-19.87,3.24-2.82,7.2-4,11.23-4.8,7.76-1.54,15.63-1.25,23.49-1.02,1.68,.05,3.1,.87,4.54,1.61Z"/>
  <path class="cls-6" d="M96.74,107.71c-.48,9.68-2.71,18.85-9.34,26.2-3.05,3.38-6.54,6.83-12.16,5.62-2.5-.54-4.39,2.4-4.19,5.89,.36,6.19,1.06,12.36,1.03,18.59-.01,2.56-.96,3.39-3.31,3.88-4.97,1.04-9.64-.1-14.32-1.42-1.49-.42-1.62-1.78-1.93-2.95-2.61-9.6-7.61-18.07-12.48-26.6-.73-1.28-1.99-2.32-3.31-2.09-4.16,.69-5.69-2.19-7.38-4.94-2.41-3.94-3.08-8.38-3.46-12.88-1.24-14.82-.5-29.38,5.61-43.25,1.77-4.02,3.85-7.82,6.96-10.99,1.61-1.64,3.36-2.97,5.67-3.41,.44,1.36-.35,2.4-.91,3.5-4.79,9.55-5.89,19.68-5,30.21,.62,7.29,2.43,14.23,5.05,21.02,1.42,3.66,3.96,6.01,7.65,7.11,9.93,2.97,19.94,2.94,29.91,.32,5.82-1.53,10.19-5.11,13.08-10.45,.7-1.29,1.19-2.8,2.81-3.33Z"/>
  <path class="cls-5" d="M96.74,107.71c-4.59,12.11-14.31,16.12-26.24,16.45-6.09,.17-12.18,.27-18.17-1.37-5.18-1.42-8.57-4.33-10.53-9.5-5.33-14.04-6.36-28.28-2.83-42.85,.98-4.04,2.98-7.62,5.16-11.11,3.37-1.97,7.22-1.6,10.86-2.1,8.1-1.11,16.16-.76,23.9,2.23,4.09,1.58,7.89,3.67,10.18,7.69-8.47-.47-16.95-.76-25.41,.14-4.63,.49-9.15,1.66-12.86,4.61-6.49,5.15-6.5,12.1-5.07,19.43,1.22,6.29,5.36,9.81,11.14,11.28,13.31,3.4,26.63,3.18,39.83-.82,1.27,1.96,.1,3.94,.03,5.91Z"/>
  <path class="cls-6" d="M21.63,75.58c-5.24,17.52-5.01,35.12-.48,52.7,.61,2.35,.11,2.67-1.99,2.76-5.18,.22-7.19-.93-9.04-5.86-1.73-4.6-2.2-9.49-2.37-14.31-.39-11.08-.42-22.18,.67-33.25,3.12-3.38,8.75-4.26,13.21-2.05Z"/>
  <path class="cls-5" d="M21.63,75.58c-4.57-.38-9.06-.29-13.21,2.05,.78-8.45,6.43-12.11,15.15-9.91,1.26,.32,1.3,.83,.85,1.8-.94,2.01-1.86,4.04-2.78,6.06Z"/>
  <path class="cls-1" d="M78.96,151.22c-.14-1.86-1.03-3.44,1-4.2,.64-.24,1.34,0,1.41,.7,.18,1.71-1.04,2.43-2.41,3.5Z"/>
  <path class="cls-7" d="M58.56,75.54c1.65-2.03,4.07-1.6,6.21-1.8,7.89-.73,15.79-.88,23.68,.06-1.39,1.82-3.43,.96-5.19,1.24-1.25,.2-2.76,.27-2.91,1.79-.19,1.87,1.52,1.99,2.84,2.25,3.29,.65,6.62,1.14,9.92,1.78,1.48,.29,3.14,.53,4.09-.95,1-1.55-.64-2.43-1.3-3.53-.19-.32-.34-.66-.41-1.03,4.16,.51,5.88,2.75,6.41,8.35-.35,4.22-3.18,6.05-6.86,6.72-8.8,1.62-17.62,1.74-26.33-.64-3.77-1.03-7.32-2.56-10.01-5.55-2.54-2.82-2.56-5.49-.15-8.67Z"/>
  <path class="cls-4" d="M58.56,75.54c-1.65,6.14-.62,8.44,5.21,11.24,8,3.83,16.51,4.11,25.13,3.47,1.36-.1,2.7-.41,4.05-.53,4.11-.36,7.44-1.85,8.95-6.04,.44,8.61-1.87,11.59-11.14,13.34-8.41,1.59-16.87,2.41-25.46,.98-10.24-1.7-15.23-8.92-12-17.87,.91-2.51,2.4-4.32,5.25-4.59Z"/>
  <path class="cls-3" d="M95.5,75.33c1.61,1.21,4.41,1.89,3.28,4.64-1.12,2.76-3.71,2.31-6.14,1.84-3.42-.67-6.85-1.29-10.29-1.74-2.16-.28-3.78-1.24-3.71-3.4,.06-2.12,1.97-2.66,3.84-2.74,1.99-.09,3.99-.09,5.99-.13,2.35,.51,4.69,1.02,7.04,1.54Z"/>
</svg>