<?xml version="1.0" encoding="UTF-8"?>
<svg id="Layer_1" data-name="Layer 1" xmlns="http://www.w3.org/2000/svg" width="133.5" height="180" viewBox="0 0 133.5 180">
  <defs>
    <style>
      .cls-1 {
        fill: #373b3c;
        opacity: .5;
      }

      .cls-2 {
        fill: #f9fbf9;
      }

      .cls-3 {
        fill: #6a83b0;
      }

      .cls-4 {
        fill: #992b49;
      }

      .cls-5 {
        fill: #cf2e4a;
      }

      .cls-6 {
        fill: #94c9db;
      }

      .cls-7 {
        fill: #00002c;
      }
    </style>
  </defs>
  <path class="cls-7" d="M101.91,69.87c-.39,11.51,.13,23.2-6.1,33.61-1.11,1.86,0,2.17,1.13,3.05,7.35,5.71,13.49,12.44,16.78,21.35,2.96,8.02,.88,13.93-6.36,18.45-2.96,1.85-6.15,3.2-9.53,4.04-7.14,1.78-11.81-.24-14.9-6.91-2.49-5.38-6.22-9.83-9.78-14.42-3.1-3.99-7.65-5.74-12.28-7.28-1.37-.46-2.46,.11-3.51,.7-4.42,2.49-8.97,4.8-13.15,7.65-8.88,6.05-17.39,4.41-25.62-.98-3.82-2.49-7.26-5.6-10.69-8.64-3.65-3.25-4.05-6.38-1.78-10.64,.42-.78,1.41-1.31,.48-2.51C.99,100.13,.69,91.42,.2,82.92c-.8-13.71,.88-27.26,3.56-40.69,.61-3.05,2.17-5.17,5.08-6.35,4.62-1.87,9.29-3.48,14.36-3.11,1.74,.13,2.33-.57,2.77-2.11,4.48-15.74,13.43-22.43,29.73-22.57,8.65-.07,17.09,.81,25.01,4.52,8.8,4.12,15.04,10.72,18.48,19.89-3.91-.1-7.48-1.8-11.29-2.37-2.59-1.72-4.41-4.26-6.78-6.25-10.77-9.01-27.93-8.31-38.53-2.79-1.56,.81-2.65,2.2-3.96,3.33-1.84,1.48-2.58,3.63-3.33,5.72-2.65,7.4-4.19,14.97-4.65,22.9-.54,9.31-.68,18.59-.64,27.9,.02,3.77,.58,7.39,1.45,11.04,2.23,9.33,8.22,15.08,16.93,18.26,6.64,2.42,13.47,4.28,20.12,6.69,6.38,2.31,11.31,5.98,14.05,12.41,1.36,3.19,3.09,6.23,4.67,9.33,1.52,2.99,3.74,4.48,7.16,4.15,1.6-.15,3.22-.07,4.79-.52,6.49-1.85,8.66-5.98,5.98-12.2-3.83-8.89-9.87-16.01-18.15-21.1-3.16-1.94-3.55-3.11-1.23-5.82,4.31-5.04,6.1-11.09,6.9-17.42,.43-3.41,1.36-6.86,.72-10.37-.04-1.03,.28-1.94,.87-2.77,2.46-1.14,4.4-3.78,7.64-2.75Z"/>
  <path class="cls-1" d="M52.81,156.11c14.81,0,27.66,.33,40.18,3.98,3.22,.94,6.43,1.91,9.17,3.88,3.44,2.47,3.46,5.32,.01,7.79-3.28,2.35-7.1,3.45-10.99,4.28-25.43,5.43-50.81,5.43-76.11-.84-2.66-.66-5.2-1.66-7.47-3.2-3.9-2.64-3.83-5.91,.34-8.43,5.27-3.19,11.25-4.5,17.2-5.52,9.78-1.69,19.68-2.09,27.67-1.92Z"/>
  <path class="cls-7" d="M87.73,29.55c4.02,.21,7.93,.85,11.46,2.96,13.07,5.65,14.17,29.3,3.65,36.24-.39,.26-.63,.74-.93,1.12-2.51,1.06-5.03,2.12-7.54,3.18-.66,1.16-1.74,1.8-2.98,2.04-10.42,1.99-20.89,3.22-31.31,.18-11.12-3.24-14.76-7.89-15.63-19.4-.23-2.97-.22-5.97-.01-8.94,.56-7.97,6.82-15.15,15.31-17.25,8.55-2.11,17.28-.96,25.94-.95,.74,0,1.41,.45,2.05,.82Z"/>
  <path class="cls-4" d="M94.25,74.63c.06,10.79-.64,21.37-8.45,29.92-1.6,1.75-.49,2.5,1.01,3.28,8.96,4.68,14.75,12.32,18.97,21.19,3.68,7.74,.38,13.45-8.1,14.76-7.45,1.16-8.51,.67-12.09-5.99-1.47-2.73-2.97-5.47-4.08-8.35-2.29-5.98-6.91-9.19-12.6-11.2-6.3-2.22-12.61-4.4-18.96-6.48-14.42-4.75-19.66-12.69-20.78-27.43-1.02-13.49-.38-27.02,1.36-40.45,.78-6.02,2.55-11.86,5.18-17.38,.55-1.16,.88-2.68,2.61-2.81,.66,1.21,.29,2.45,.01,3.64-.78,3.3-.86,6.64-.83,10,.03,3.35-.32,6.69-.46,10.03-.4,9.95,.1,19.87,3.85,29.3,3.89,9.77,11.47,14.72,21.55,15.98,13.42,1.68,23.45-3.39,29.69-15.6,.49-.95,.78-2.15,2.1-2.4Z"/>
  <path class="cls-5" d="M94.25,74.63c-4.84,13.21-15.59,20.02-30.36,19.24-13.01-.69-22.56-8.88-25.85-22.24-2.49-10.11-2.46-20.38-1.81-30.68,.36-5.79,.03-11.68,2.1-17.27,3.42-5.02,9.01-6.05,14.25-7.02,14.1-2.61,26.26,.85,35.16,12.87-8.53,.33-17.11-.9-25.58,.72-11.15,2.12-16.89,9.16-16.81,20.54,.02,2.47,.24,4.95,.43,7.42,.74,9.27,6.29,14.29,14.88,16.15,11.32,2.46,22.6,2.07,33.73-1.33-.04,.53-.08,1.06-.12,1.59Z"/>
  <path class="cls-4" d="M22.28,48.93c-.35,6.56-1.48,13.09-1.14,19.67,.46,8.9-.28,17.88,1.92,26.65,.44,1.76,.27,2.72-2.07,2.6-2.51-.13-4.92,.8-6.67,2.75-1.91,2.13-2.76,.93-3.65-.91-2.5-5.18-2.81-10.83-3.01-16.36-.4-10.91-.56-21.85,.68-32.74,3.62-3.58,10.12-4.35,13.94-1.66Z"/>
  <path class="cls-4" d="M46.9,119.24c-5.12,2.25-8.77,7.4-14.62,7.2-4.87-.16-9.27-2.51-13.08-5.67-1.33-1.11-2.57-2.33-3.82-3.53q-3.37-3.23,.07-6.67c6.14-6.14,6.62-6.3,14.18-1.73,5.67,3.43,10.68,7.96,17.27,10.4Z"/>
  <path class="cls-5" d="M22.28,48.93c-4.83-.99-9.46-.28-13.94,1.66,.84-7.95,7.06-12.14,14.39-9.78,1.06,.34,.92,.86,.78,1.6-.41,2.17-.82,4.34-1.22,6.51Z"/>
  <path class="cls-6" d="M59.48,39.25c3.46-2,7.41-1.76,11.12-1.91,5.49-.22,11.05-.81,16.52,.45-1.24,1.36-3.03,.77-4.51,1.27-1.31,.44-2.74,.81-2.79,2.51-.05,1.57,1.05,2.74,2.38,2.95,4.02,.64,7.92,1.77,11.91,2.48,1.29,.23,2.49-.3,3.11-1.54,.76-1.52-.27-2.51-1.15-3.58-1.07-1.31-3.39-1.11-3.74-3.21,5.09,.02,6.97,1.71,9.04,8.09,.92,7.57-.69,10.14-8,11.39-8.57,1.47-17.18,1.86-25.6-1.16-3.21-1.15-5.95-3-8.27-5.47-3.44-3.64-3.42-8.41-.02-12.27Z"/>
  <path class="cls-3" d="M59.48,39.25c-3.03,7.22-1.91,10.72,4.78,14.88,3.54,2.2,7.49,3.46,11.54,3.7,5.52,.32,11.08,.6,16.62-.53,7.48-1.53,8.77-2.85,8.94-10.54,1.74,10.94,1.45,15.46-9.36,18.92-9.34,2.99-18.75,3.88-28.35,1.32-7.25-1.93-10.58-6.33-10.85-13.86-.21-5.91,.48-11.17,6.68-13.88Z"/>
  <path class="cls-2" d="M92.33,38.66c1.48,.78,3.06,1.42,4.43,2.37,1.47,1.02,2.53,2.43,1.76,4.41-.76,1.96-2.25,3.05-4.32,2.65-4.21-.82-8.32-2.09-12.61-2.64-2.16-.28-3.1-2.11-3.06-4.06,.04-1.99,1.58-2.98,3.46-3.22,1.7-.22,3.42-.27,5.14-.4,1.67,.67,3.41,.93,5.2,.88Z"/>
</svg>