<?xml version="1.0" encoding="UTF-8"?>
<svg id="Layer_1" data-name="Layer 1" xmlns="http://www.w3.org/2000/svg" width="141" height="165.75" viewBox="0 0 141 165.75">
  <defs>
    <style>
      .cls-1 {
        fill: #65657f;
      }

      .cls-2 {
        fill: #373b3c;
      }

      .cls-2, .cls-3 {
        opacity: .5;
      }

      .cls-4 {
        fill: #f9fbf9;
      }

      .cls-5 {
        fill: #6a83b0;
      }

      .cls-6 {
        fill: #f7bc0d;
      }

      .cls-7 {
        fill: #d58917;
      }

      .cls-8 {
        fill: #94c9db;
      }

      .cls-9 {
        fill: #0b0c2f;
      }

      .cls-10 {
        fill: #00002c;
      }
    </style>
  </defs>
  <g class="cls-3">
    <path class="cls-10" d="M132.57,58.25c1.22,15.57,1.81,31.14-.13,46.7-.25,1.98-.19,3.89,.14,5.88,1.12,6.82-2.71,13.17-9.19,15.55-1.04,.38-2.07,.96-3.15,1.08-9.75,1.04-16.64,6.44-21.74,14.4-1.26,1.97-3.99,2.54-4.44,5.12-1.02,.7-2.16,.28-3.25,.36-8.56,.01-17.13,.48-25.68-.29-.46-.17-.83-.44-1.13-.83-.88-1.02-2.01-1.92-2.61-3.08-2.94-5.61-7.67-7.28-13.66-6.79-7.33,.61-14.6,.39-21.73-1.85-7.88-2.48-13.1-7.49-14.71-15.67-.89-4.54-3.33-8-6.51-10.98-1.49-1.4-2.65-2.68-2-4.71,.69-2.17,2.61-2.93,4.67-3.07,4.61-.31,9.09,0,13.41,2.1,3.73,1.82,7.36,4.28,12.48,3.56-6.23-6.24-5.51-14.07-5.56-21.61-.08-13.3,1.16-26.49,4.05-39.52,.7-3.13,2.38-4.98,5.15-6.26,3.42-1.58,7.06-2.54,10.73-2.84,3.01-.25,3.47-1.65,3.84-4.15,.79-5.28,2.28-10.4,4.43-15.32,3.37-7.68,9.13-12.47,17.24-14.55,1.22-.31,2.75-.06,3.59-1.4h2.98c3.48,.64,6.96,.64,10.43,0h2.98c8.18,.59,15.75,2.89,22.43,7.84,3.24,2.4,5.93,5.27,8.17,8.59,.8,1.19,1.87,2.46,.47,3.96-3.88,.32-7.7-.02-11.45-1.1-4.92-3.07-9.27-7.05-15.02-8.8-10.17-3.09-25.95-1.36-32.27,6.61-4.4,6.82-5.04,14.72-6.22,22.41-2.3,14.97-3.74,30.02-3.91,45.19-.06,5.19-.96,10.31-2.94,15.26-4.98,12.46-17.67,17.66-29.91,12.03-1.2-.55-2.36-1.33-4.11-1.11,.69,3.52,1.26,6.9,2.73,10.04,1.05,2.26,2.91,3.66,5.24,4.46,3.67,1.27,7.43,2,11.32,1.87,5.23-.17,10.39,.28,15.54,1.27,5.29,1.01,9.7,3.21,13.51,7.18,7.88,8.2,21.08,7.04,27.86-2.19,2.05-2.8,3.86-5.72,6.71-7.9,3.62-2.78,7.47-4.87,11.99-5.62,.86-.14,1.71-.32,2.55-.51,7.84-1.76,8.73-2.95,7.73-10.89-.6-4.76,.37-9.42,.82-14.09,.39-3.97,.51-7.92,.46-11.89-.09-6.69,.79-13.39-.29-20.06,1.93-2.74,4.37-4.57,7.93-4.38Z"/>
    <path class="cls-10" d="M112.45,18.65c4.03,.51,8.07,1.02,12.1,1.52,6.15,0,13.08,6.18,14.11,12.52,.25,1.56,.13,3.18,.76,4.67v9.7c-1.74,4.06-3.69,7.99-6.85,11.18-2.45,1.25-4.91,2.5-7.36,3.75-1.23,1.6-3.04,2.06-4.87,2.44-9.68,2.03-19.42,2.3-29.16,.62-10.07-1.73-15.19-6.92-17.11-16.9-.78-4.06-.92-8.2-.34-12.22,1.07-7.38,5.02-13.04,12.1-15.7,8.63-3.25,17.6-3.58,26.62-1.59Z"/>
    <path class="cls-1" d="M90.24,.07c-3.48,1.2-6.96,1.21-10.43,0h10.43Z"/>
    <path class="cls-2" d="M64.01,146.22c.31,.03,.62,.05,.94,.08,8.91,2.49,17.82,3.11,26.73,.03,.8,.22,1.6,.43,2.39,.65,8.74-.03,17.25,1.45,25.62,3.87,1.3,.37,2.59,.9,3.74,1.59,3.33,1.99,3.33,4.1-.06,6.04-3.49,2-7.42,2.73-11.32,3.41-20.81,3.65-41.71,3.88-62.65,1.46-5.28-.61-10.59-1.3-15.71-2.87-1.53-.47-3.06-.99-4.53-1.63-1.49-.65-3.05-1.46-3.13-3.34-.1-2.17,1.78-2.86,3.3-3.57,2.81-1.3,5.84-1.99,8.86-2.7,8.49-2.02,17.19-2.18,25.82-3.03Z"/>
    <path class="cls-6" d="M112.45,18.65c-5.83,.1-11.75-.39-17.48,.4-15.86,2.19-21.93,10.63-20.22,26.54,1.32,12.31,6.58,17.95,23.27,19.27,9.16,.72,18.35,.23,27.19-2.86,1.97,6.91,1.03,13.93,.76,20.92-.56,1.1-.67,2.4-1.54,3.35-4.81,5.22-6.75,11.78-8.46,18.42-1.45,5.63-4.76,9.09-10.69,9.87-4.82,.63-8.03,3.59-10.39,7.66-2.43,4.17-6.08,6.06-10.88,5.64-2.99-.27-3.91-1.46-3.35-4.46,.43-2.33,1.58-4.44,2.31-6.68,2.22-6.83,.77-12.04-4.69-16.7-1.04-.88-2.01-1.92-3.23-2.51-8-3.88-10.46-11.15-11.8-19.11-2.5-14.8-1.83-29.67-1-44.56,.33-5.94,0-11.93,2.71-17.47,4.1-5.07,9.97-7.04,15.94-7.95,12.07-1.84,22.82,1.32,31.56,10.24Z"/>
    <path class="cls-7" d="M64.95,16.37c-3.01,16.84-2.49,33.85-2.09,50.8,.18,7.71,1.38,15.51,5.08,22.65,1.47,2.84,3.72,4.52,6.3,6.03,10.82,6.35,13.14,13.29,8.4,24.93-.77,1.88-2.5,4.31-.71,5.76,1.7,1.37,4.56,.97,6.76-.05,2.24-1.04,4.1-2.47,5.41-4.83,2.72-4.88,6.59-8.21,12.68-8.32,3.48-.06,7.22-4.34,8.09-8.19,1.44-6.42,3.29-12.71,7.54-17.97,1.16-1.44,2.38-2.84,3.57-4.26,.3,5.97-.33,11.88-1.12,17.78-.4,2.97-.35,5.93,.09,8.9,1.03,6.99-.34,9.28-7.37,10.59-6.34,1.18-12.21,2.98-17.04,7.51-2.13,1.99-3.66,4.4-5.14,6.8-5.34,8.66-17.08,8.35-24.13,6.48-1.07-.29-1.99-1-2.66-1.94-5.99-8.37-14.98-9.9-24.29-10.53-5.54-.38-11.12,.14-16.61-1.37-4.67-1.28-7.59-4-8.69-8.66-.62-2.65-1.01-5.35-2.2-7.84-.8-1.67,.03-2.13,1.48-1.6,1.85,.68,3.67,1.5,5.42,2.41,10.36,5.44,24.2-.99,27.95-11.79,2.21-6.38,2.44-12.82,2.7-19.36,.64-15.74,2.15-31.42,4.77-46.94,.98-5.84,1.65-12.11,5.81-17.01Z"/>
    <path class="cls-7" d="M49.13,51.62c-1.63,14.14-1.63,28.41-3.64,42.51-.14,.97-.46,1.95-.89,2.82-.76,1.54-.8,4.26-3.1,3.88-2.34-.38-4.78-1.62-5.26-4.55-.67-4.01-1.4-7.97-.57-12.13,1.68-8.37-.56-16.81,.14-25.23,.16-1.97-.07-3.98,.9-5.81,3.86-3.44,8.81-4.03,12.42-1.49Z"/>
    <path class="cls-6" d="M49.13,51.62c-4.37-1.45-8.37,.19-12.42,1.49-.38-6.85,2.41-9.72,9.21-9.7,2.95,.01,4.41,1.06,3.78,4.21-.26,1.32-.39,2.66-.57,4Z"/>
    <path class="cls-9" d="M91.67,146.33c-.73,2.29-2.86,2.07-4.54,2.31-6.61,.97-13.23,1.48-19.7-.86-.93-.33-1.89-.61-2.49-1.48,8.91,.01,17.82,.02,26.73,.03Z"/>
    <path class="cls-8" d="M88.77,28.53c1.43-1.15,3.26-1.31,4.88-1.4,8.09-.49,16.2-.99,24.31-.27,.55,.05,1.06,.48,1.59,.74-1.88,1.75-4.22,.83-6.35,1.06-1.77,.19-3.69,.27-3.8,2.59-.12,2.34,1.77,2.71,3.55,2.87,2.96,.28,5.77,1.26,8.66,1.84,1.83,.36,3.89,.83,4.93-1.25,1.04-2.07-.81-3.05-2.14-4.13-.74-.6-1.74-1.04-1.59-2.27,4.93,.09,6.7,3.45,7.75,7.54,1.01,8.32-.49,10.06-8.71,11.8-8.59,1.83-16.93,1.68-25.14-1.63-2.32-.94-4.44-2.18-6.42-3.67-4.94-3.72-5.51-9-1.52-13.81Z"/>
    <path class="cls-5" d="M88.77,28.53c-1.75,4.39-3.06,8.77,1.33,12.45,2.86,2.4,6.2,4.05,9.74,5.17,8.63,2.74,17.26,1.81,25.81-.41,5.31-1.38,4.87-5.8,4.91-9.9,2.23,12.37,.74,15.78-9.55,19.24-8.72,2.94-17.74,3.3-26.74,1.55-10.55-2.06-16.01-14.64-10.53-23.91,1.16-1.97,2.83-3.42,5.03-4.19Z"/>
    <path class="cls-4" d="M122.81,28.31c1.32,.87,2.74,1.62,3.94,2.63,1.17,.99,1.85,2.29,1.19,3.95-.68,1.69-1.89,2.45-3.7,2.49-2.53,.06-4.77-1.09-7.18-1.53-1.93-.35-3.9-.5-5.82-.89-2.24-.46-3.4-1.9-3.22-4.23,.18-2.29,1.69-3.17,3.77-3.2,2.58-.04,5.17,.04,7.76,.07,1.09,.24,2.17,.47,3.26,.71Z"/>
  </g>
</svg>