<?xml version="1.0" encoding="UTF-8"?>
<svg id="Layer_1" data-name="Layer 1" xmlns="http://www.w3.org/2000/svg" width="133.5" height="180" viewBox="0 0 133.5 180">
  <defs>
    <style>
      .cls-1 {
        fill: #1302a4;
      }

      .cls-2 {
        fill: #373b3c;
        opacity: .5;
      }

      .cls-3 {
        fill: #f9fbf9;
      }

      .cls-4 {
        fill: #6a83b0;
      }

      .cls-5 {
        fill: #94c9db;
      }

      .cls-6 {
        fill: #1d2b8b;
      }

      .cls-7 {
        fill: #00002c;
      }

      .cls-8 {
        fill: #233da3;
      }
    </style>
  </defs>
  <path class="cls-7" d="M103.72,79.91c.14,9.45-.36,18.86-2.52,28.07-.66,2.81-.11,3.91,2.59,4.75,7.47,2.33,13.52,6.75,18.19,13.03,3.49,4.69,3.25,9.51,.26,14.24-3.56,5.63-8.86,9.03-15.25,10.6-3.33,.82-6.67,.47-9.6-1.75-2.78-2.1-6.02-3.7-8.42-6.15-7.07-7.23-15.43-9.3-25.14-7.44-2.18,.42-4.47,.41-6.71,.4-2.18-.02-3.69,.8-5.07,2.51-7.44,9.15-21.75,13.98-33.82,9.47-7.14-2.67-12.26-8.14-16.4-14.2-2.65-3.88-2.35-8.58,.46-12.67,2.38-3.47,2.79-6.68,1.23-10.92C.35,101.24,.29,92.04,.64,82.97c.4-10.29,1.48-20.54,3.68-30.65,.7-3.21,2.31-5.4,5.37-6.58,4.31-1.66,8.65-3.27,13.35-3,2.22,.12,3.29-.48,3.91-2.77,1.11-4.08,2.94-7.95,5.54-11.31,3.91-5.05,9.36-7.87,15.53-8.92,11.53-1.96,22.87-1.26,33.69,3.63,8.94,4.04,15.18,10.65,18.6,19.85-3.94-.16-7.68-1.29-11.42-2.37-4.38-3.87-8.58-8.06-14.15-10.19-11.38-4.36-22.57-4.75-33.18,2.35-2.98,1.8-4.28,4.77-5.45,7.8-3.53,9.15-4.61,18.74-5.36,28.44-.71,9.06-.91,18.12-.61,27.17,.24,7.03,.34,14.19,3.59,20.76,.72,1.45,1.54,2.84,2.23,4.3,.52,1.1,1.29,2.3,.31,3.47-.94,1.12-2.3,.72-3.51,.55-2.07-.3-3.74-1.32-4.97-3.02-.66-.9-1.2-1.9-1.95-2.73-4.72-5.25-11.07-4.62-14.51,1.44-3.5,6.17-3.33,7.41,1.76,12.6,8.69,8.86,22.46,9.46,31.6,.86,4.06-3.82,8.29-5.28,13.76-5.16,6.83,.15,13.72-.12,19.93-3.77,8.03-4.72,12.5-11.9,14.76-20.66,.5-1.92,.79-3.9,1.14-5.85,.7-2.12,.37-4.31,.41-6.48,.07-2.93,.78-5.82,.56-8.77,2.33-2.36,4.98-4.08,8.47-4.05Z"/>
  <path class="cls-2" d="M55.52,179.91c-13.53,.46-26.84-.96-39.89-4.55-2.14-.59-4.23-1.47-6.23-2.45-2.04-1-4.05-2.4-3.98-4.95,.07-2.54,2.2-3.77,4.21-4.79,5.15-2.61,10.71-4.1,16.35-4.9,19.84-2.81,39.72-2.79,59.55,.04,5.51,.78,10.97,2.23,16.01,4.8,2.02,1.03,4.18,2.22,4.32,4.72,.16,2.74-2.03,4.15-4.18,5.2-7.85,3.81-16.41,4.81-24.9,6-7.05,.99-14.15,1.1-21.26,.89Z"/>
  <path class="cls-7" d="M103.72,79.91c-2.73,1.14-5.08,3.06-8.01,3.77-.73,1.3-1.96,1.88-3.33,2.18-11.64,2.5-23.22,3.08-34.69-.95-6.74-2.37-10.69-6.92-11.81-14.04-.77-4.96-1.14-9.93-.37-14.85,1.42-9.06,9.27-15.54,20.08-16.55,6.71-.63,13.47-.19,20.21-.16,1.15,0,2.19,.43,3.18,1,3.85,.69,7.87,.76,11.34,2.92,12.18,4.82,15.29,27.91,3.41,36.68Z"/>
  <path class="cls-8" d="M88.97,40.31c-8.7,.22-17.45-.94-26.1,.71-10.95,2.09-16.73,9.2-16.7,20.34,0,1.61,.04,3.23,.12,4.84,.57,11.06,4.95,16.65,15.87,18.98,11.24,2.39,22.5,2.03,33.54-1.5,1.15,2.91-.12,5.81-.02,8.72-.65,1.73-.16,3.62-.77,5.36-4.26,11.23-11.2,15.95-23.26,16.03-5.62,.03-11.17-.25-16.73-1.27-7.33-1.34-11.95-5.72-13.92-12.49-2.77-9.53-4.54-19.28-4.87-29.29-.24-7.43-.86-14.85-.67-22.29,.16-6,1.84-11.47,5.61-16.22,8.17-6.73,24.6-7.69,35.3-1.96,4.8,2.57,9.52,5.3,12.59,10.05Z"/>
  <path class="cls-6" d="M41.08,32.23c-5.4,9.86-4.57,20.55-4.19,31.18,.36,10.17,1.25,20.25,3.41,30.24,3.32,15.32,9.11,17.93,22.89,18.91,2.73,.19,5.48,.14,8.22,.14,11.9,.01,18.65-4.6,23.01-15.68,1.48,.41,.81,1.45,.7,2.33-1.34,13-7.21,23.09-19.27,28.93-3.95,1.91-8.46,1.79-12.77,2.18-2.35,.21-4.75,.19-7.1,0-3.8-.29-6.45,1.37-9.25,3.82-7.68,6.72-16.6,9.52-26.58,5.9-5.46-1.98-8.94-6.53-12.11-11.19-.27-.4-.45-.91-.5-1.39-.28-2.71,4.81-10.76,7.48-11.88,4.08-1.72,10.31,.56,12.51,4.62,.71,1.31,1.22,2.74,2.74,3.4,1.83,.79,4.15,1.95,5.58,.73,1.1-.93-.88-2.75-1.66-4.03-3.7-6.06-4.61-12.88-4.93-19.66-.91-19.62-.58-39.2,5.12-58.26,1.2-4.02,2.54-8.12,6.7-10.3Z"/>
  <path class="cls-6" d="M22.97,58.89c-.5,8.15-.99,16.3-1.5,24.44-.5,7.94,.77,15.77,1.37,23.64,.07,.85,.41,1.7-.19,2.7-3.15-1.36-6.47-1.42-9.71-.38-1.93,.62-2.1-.7-2.51-1.8-1.74-4.72-2-9.71-2.18-14.62-.38-10.77-.41-21.55,.71-32.3,3.47-3.46,10.3-4.28,14.02-1.69Z"/>
  <path class="cls-6" d="M86.15,130.95c3.92-2.94,7.31-6.2,9.74-10.34,1.5-2.56,3.7-2.19,5.87-1.34,6.02,2.36,9.99,7.24,14.21,11.78,.53,.57,.58,1.27,.41,2.08-1.91,9.08-11.81,12.73-19.02,6.96-3.67-2.94-7.29-5.94-11.21-9.14Z"/>
  <path class="cls-8" d="M22.97,58.89c-4.86-.95-9.52-.31-14.02,1.69,.96-8.29,5-11.22,13.38-9.83,1.35,.22,1.64,.77,1.48,1.93-.29,2.07-.56,4.14-.84,6.22Z"/>
  <path class="cls-1" d="M95.12,99.35c-.23-.78-.47-1.55-.7-2.33,.49-1.52,.24-3.24,1.26-4.62-.09,2.32,.55,4.71-.56,6.95Z"/>
  <path class="cls-5" d="M59.74,50.77c2.33-2.66,5.6-2.15,8.58-2.42,6-.54,12.02-1,18.02,.14-.84,1.1-2.22,1-3.34,1.48-1.07,.45-2.1,.97-2.14,2.3-.04,1.27,.75,2.23,1.84,2.56,4.16,1.25,8.37,2.37,12.67,3.01,1.29,.19,2.48-.46,3.05-1.73,.61-1.35-.23-2.32-1.04-3.32-1.27-1.56-3.8-1.43-4.65-3.51,5.73-.03,7.63,1.56,9.83,8.19,.92,7.77-.55,9.99-7.99,11.41-8.3,1.58-16.57,1.38-24.76-.88-3.84-1.06-7.01-3.16-9.66-6.06-2.91-3.19-3.04-7.49-.41-11.17Z"/>
  <path class="cls-4" d="M59.74,50.77c-2.37,8.14-.7,11.61,8.32,15.4,9.63,4.04,19.93,3.56,29.92,.8,4.69-1.29,4.55-5.61,4.57-9.5,1.71,10.84,1.49,15.4-9.11,18.79-8.5,2.72-17.15,3.72-26.04,2.13-9.95-1.77-13.59-6.12-13.7-16.16-.05-4.3,.53-8.17,4.35-10.81,.48-.33,1.12-.43,1.69-.64Z"/>
  <path class="cls-3" d="M92.72,49.27c1.57,.72,3.22,1.31,4.7,2.18,1.83,1.07,3.11,2.6,2.17,4.9-.88,2.17-2.67,2.83-4.87,2.42-3.53-.65-6.87-2.12-10.55-2.23-2.66-.08-4.65-1.52-4.6-4.34,.05-2.68,2.36-3.17,4.53-3.49,.74-.11,1.48-.14,2.23-.21,2.13,.26,4.26,.52,6.39,.78Z"/>
</svg>