<?xml version="1.0" encoding="UTF-8"?>
<svg id="Layer_1" data-name="Layer 1" xmlns="http://www.w3.org/2000/svg" width="133.5" height="180" viewBox="0 0 133.5 180">
  <defs>
    <style>
      .cls-1 {
        fill: #373b3c;
        opacity: .5;
      }

      .cls-2 {
        fill: #f9fbf9;
      }

      .cls-3 {
        fill: #6a83b0;
      }

      .cls-4 {
        fill: #94c9db;
      }

      .cls-5 {
        fill: #1d2b8b;
      }

      .cls-6 {
        fill: #00002c;
      }

      .cls-7 {
        fill: #233da3;
      }

      .cls-8 {
        fill: #1301a4;
      }
    </style>
  </defs>
  <path class="cls-6" d="M102.9,87.98c.25,9.2-.23,18.4-2.37,27.32-.94,3.93,.35,4.82,3.49,5.83,6.15,2,11.24,5.77,15.46,10.61,5.46,6.27,5.4,12.72-.09,19-2.39,2.73-5.36,4.78-8.63,6.34-5.58,2.66-10.77,2.54-16.03-1.3-5.68-4.15-10.71-9.22-17.19-12.29-1.56-.74-2.94-1-4.59-.87-5.43,.43-10.87,.84-16.32,1.07-2.15,.09-3.67,.77-5.07,2.47-4.03,4.91-9.09,8.33-15.39,9.7-2.78,2.15-5.76,3.02-9.14,1.51-10.61-.48-23.4-9.2-26.27-17.82-1.12-3.36-1.11-6.57,.73-9.66,2.5-4.18,3.68-9.34,8.94-11.7-7.09-4.57-8.21-11.85-9.16-18.97-2.19-16.54-.36-32.9,2.85-49.16,.6-3.04,2.3-5,5.18-6.27,5.57-2.46,11.31-3.47,17.36-2.86,1.26,.13,2.57,.57,3.5-1.13,4.94-9.05,13.43-12.07,22.95-12.74,9.6-.68,19.05,.21,27.95,4.4,8.83,4.15,15.04,10.69,18.45,19.86-4.01,.34-7.44-2-11.29-2.4-2.92-1.91-5.13-4.64-7.9-6.76-10-7.64-29.56-8.93-39.24-1.07-2.57,1.58-3.96,4-5.04,6.72-3.58,8.99-4.92,18.41-5.68,27.98-.43,5.44-.64,10.89-1.22,16.31-.57,5.33,.57,10.63,.73,15.95,.23,7.61,1.58,15.01,5.7,21.71,1.58,2.57,.5,3.9-2.57,3.8-2.72-.08-4.68-1.46-6.08-3.72-1.06-1.72-2.34-3.18-4.16-4.15-5-2.67-8.75-1.63-11.59,3.28-3.67,6.32-3.49,7.67,1.65,12.91,8.7,8.85,22.35,9.37,31.47,.74,3.92-3.71,8.01-5.23,13.34-5.08,6.67,.19,13.42-.05,19.52-3.46,8.46-4.73,13.12-12.21,15.34-21.42,.44-1.81,.7-3.66,1.05-5.49,.67-2.2,.36-4.46,.34-6.69,.11-2.71-.28-5.45,.39-8.13,2.28-2.64,5.17-4.08,8.65-4.36Z"/>
  <path class="cls-1" d="M27.03,157.38c3.13,.02,6.11-.9,9.14-1.51,1.41,1.66,3.25,.65,4.8,.59,14.5-.51,28.99-.74,43.36,1.62,5.73,.94,11.41,2.27,16.63,4.99,1.98,1.03,4.11,2.27,4.07,4.86-.04,2.53-2.05,3.88-4.07,4.9-7.2,3.63-15.08,4.89-22.91,5.76-20.29,2.25-40.54,2.14-60.54-2.71-3.01-.73-5.95-1.69-8.65-3.26-5.02-2.92-5.04-6.6,.09-9.4,5.16-2.81,10.89-3.94,16.57-5.16,.56-.12,1.27,.13,1.51-.69Z"/>
  <path class="cls-6" d="M88.24,48.4c4.04-.1,7.66,1.43,11.29,2.93,12,4.65,15.22,27.87,3.38,36.66-2.61,1.32-5.08,2.94-7.94,3.75-.74,1.28-1.93,1.94-3.31,2.19-11.57,2.09-23.09,3.28-34.52-.92-6.66-2.45-10.74-6.91-11.71-14.05-.83-6.17-1.74-12.38,.67-18.38,3.52-8.8,10.8-12.28,19.64-13.03,6.43-.54,12.9-.18,19.35-.15,1.15,0,2.18,.43,3.16,1Z"/>
  <path class="cls-7" d="M88.24,48.4c-8.53,.23-17.1-.88-25.59,.65-11.11,2.01-16.99,9.13-16.97,20.41,0,.12,0,.25,0,.37,.08,16.54,4.71,22.16,21.05,24.29,9.5,1.24,19.03,.76,28.25-2.39,.76,2.91-.03,5.8-.07,8.71-.59,1.74-.17,3.63-.74,5.38-4.23,11.22-11.13,15.96-23.12,16.03-5.46,.03-10.86-.24-16.27-1.19-7.93-1.39-12.39-6.25-14.6-13.6-2.44-8.11-3.96-16.46-4.17-24.88-.22-8.55-1.06-17.07-.93-25.62,.09-5.99,1.77-11.48,5.56-16.22,6.27-4.97,13.61-6.12,21.26-5.59,10.69,.74,19.64,5.1,26.35,13.65Z"/>
  <path class="cls-5" d="M40.62,40.33c-6.45,11.83-4.07,24.58-3.86,37.11,.14,8.33,1.46,16.51,3.2,24.64,2.9,13.56,8.34,18.11,22.29,18.55,2.85,.09,5.71-.1,8.54,.16,12.6,1.2,19.67-7.37,22.88-15.72,1.53,.39,.79,1.46,.69,2.34-1.31,13.02-7.19,23.09-19.18,28.94-3.92,1.91-8.41,1.8-12.71,2.17-2.46,.21-4.97,.17-7.44,0-3.51-.23-6.02,1.26-8.57,3.58-7.46,6.78-16.15,9.55-26.03,6.35-5.7-1.85-9.18-6.53-12.56-11.16-.28-.39-.48-.89-.56-1.37-.54-3.08,4.89-11.24,8.21-12.38,3.87-1.32,9.73,.99,11.63,4.98,1.83,3.84,4.82,4.48,8.72,4.13-.24-.67-.3-1.18-.57-1.56-5.42-7.82-6.09-16.88-6.73-25.94-.49-6.94-.39-13.88,.18-20.82,.99-12.1,1.43-24.29,5.89-35.83,1.26-3.27,2.58-6.48,5.99-8.17Z"/>
  <path class="cls-5" d="M23.67,56.89c-.78,11.36-2.21,22.66-2.56,34.05-.16,5.23,.26,10.4,.62,15.59,.12,1.68,1.69,4.44-.98,5.1-2.89,.71-6.24,1.12-8.51-1.97-1.65-2.25-2.48-4.83-2.99-7.53-.84-4.39-1.33-8.83-1.4-13.29-.17-10.04-.1-20.08,.79-30.1,3.24-3.58,10.81-4.51,15.03-1.86Z"/>
  <path class="cls-5" d="M85.43,139.01c3.73-2.78,7.11-5.91,9.43-9.93,1.54-2.67,3.64-2.79,6.01-1.83,5.96,2.4,9.95,7.23,14.15,11.77,.5,.54,.6,1.23,.45,2.07-1.62,8.85-11.51,12.82-18.52,7.33-3.79-2.96-7.45-6.09-11.51-9.41Z"/>
  <path class="cls-7" d="M23.67,56.89c-5.15-.54-10.27-.82-15.03,1.86,.77-8.19,8.61-12.94,16.11-9.85,1.19,.49,1.01,1.28,.79,2.06-.56,2-1.25,3.96-1.88,5.93Z"/>
  <path class="cls-8" d="M94.35,107.41c-.23-.78-.46-1.56-.69-2.34,.44-1.54,.31-3.23,1.23-4.64-.05,2.33,.57,4.72-.54,6.98Z"/>
  <path class="cls-4" d="M92.63,57.4c5.21,.12,6.91,1.64,9.11,8.14,.92,7.75-.53,10.1-7.94,11.37-8.59,1.47-17.2,1.88-25.64-1.14-3.22-1.15-5.96-3-8.29-5.46-3.45-3.64-3.44-8.4-.03-12.28,3.47-2.01,7.42-1.76,11.13-1.91,5.49-.22,11.06-.81,16.54,.44-1.24,1.37-3.04,.77-4.54,1.27-1.32,.44-2.73,.83-2.79,2.54-.05,1.41,.91,2.55,2.1,2.78,4.13,.8,8.11,2.27,12.3,2.71,1.42,.15,2.73-.53,3.18-2.06,.41-1.4-.55-2.29-1.43-3.2-1.14-1.18-3.48-1-3.69-3.23Z"/>
  <path class="cls-3" d="M59.84,58.05c-3.02,7.25-1.91,10.68,4.8,14.88,3.43,2.15,7.27,3.35,11.19,3.66,6.15,.49,12.35,.59,18.48-.71,5.99-1.28,7.27-3,7.43-10.33,1.7,10.8,1.47,15.31-9.1,18.83-9.64,3.21-19.34,3.89-29.2,1.29-5.75-1.51-9.83-5.95-10.14-11.44-.36-6.34-.87-12.92,6.54-16.19Z"/>
  <path class="cls-2" d="M92.63,57.4c1.27,.66,2.58,1.26,3.81,1.99,1.8,1.06,3.21,2.46,2.44,4.78-.8,2.4-2.69,3.18-5.01,2.64-3.83-.91-7.6-2.03-11.55-2.44-2.36-.25-3.44-2.03-3.42-4.16,.02-2.27,1.88-3.05,3.81-3.32,1.58-.22,3.2-.21,4.8-.3,1.65,.65,3.34,.99,5.12,.82Z"/>
</svg>