<?xml version="1.0" encoding="UTF-8"?>
<svg id="Layer_2" data-name="Layer 2" xmlns="http://www.w3.org/2000/svg" width="120.86" height="81.42" xmlns:xlink="http://www.w3.org/1999/xlink" viewBox="0 0 120.86 81.42">
  <defs>
    <style>
      .cls-1 {
        stroke-width: 4.37px;
      }

      .cls-1, .cls-2 {
        fill: none;
        stroke: #fff;
        stroke-linecap: round;
        stroke-linejoin: round;
      }

      .cls-3 {
        fill: #abb;
      }

      .cls-4 {
        fill: #cdd;
      }

      .cls-5 {
        fill: #bbc;
      }

      .cls-6 {
        fill: #334;
      }

      .cls-7 {
        fill: url(#linear-gradient);
      }

      .cls-2 {
        stroke-width: 4.43px;
      }
    </style>
    <linearGradient id="linear-gradient" x1="73.72" y1="61.2" x2="73.72" y2="21.72" gradientUnits="userSpaceOnUse">
      <stop offset="0" stop-color="#942110"/>
      <stop offset="1" stop-color="#cd3400"/>
    </linearGradient>
  </defs>
  <g id="Layer_1-2" data-name="Layer 1">
    <g>
      <g>
        <g>
          <polygon class="cls-2" points="118.64 41.77 2.37 5.71 2.22 76.43 118.64 41.77"/>
          <polygon class="cls-6" points="118.64 41.77 2.37 5.71 2.22 76.43 118.64 41.77"/>
        </g>
        <polygon class="cls-7" points="108.23 41.77 39.21 21.72 39.21 61.2 108.23 41.77"/>
        <polygon class="cls-5" points="5.79 10.37 32.99 41.46 97.97 41.77 5.79 10.37"/>
        <polygon class="cls-4" points="5.79 10.37 32.99 41.46 6.26 72.55 5.79 10.37"/>
        <polygon class="cls-3" points="97.97 41.77 6.26 72.55 32.99 41.46 97.97 41.77"/>
      </g>
      <g>
        <g>
          <path class="cls-1" d="M12.28,60.25l.13-8.29,.13-8.28c0-3.01-.07-7.57-.2-13.67-.13-6.06-.2-10.62-.2-13.67v-.4c0-1.17,.11-2.24,.34-3.23,.27-1.21,.99-1.82,2.16-1.82,3.14,0,5.63,1.01,7.48,3.03,1.84,2.02,2.76,4.69,2.76,8.02,0,2.02-.54,4.13-1.62,6.33s-2.36,3.84-3.84,4.92c2.6,1.75,4.52,4.01,5.76,6.77,1.23,2.76,1.85,5.8,1.85,9.13,0,1.57-.54,3.53-1.62,5.86-1.3,2.78-3.08,4.78-5.32,5.99-1.35,.67-2.83,1.01-4.45,1.01h-.27c-2.07,0-3.1-.56-3.1-1.68Zm6.74-30.98c.67-1.26,1.3-2.78,1.89-4.58,.13-.49,.36-1.12,.67-1.89v-2.36c0-1.35-.49-2.65-1.48-3.91-.99-1.26-2.11-1.89-3.37-1.89-.63,0-.94,.7-.94,2.09,0,2.96,.04,5.61,.13,7.95l.13,7.48c1.17-.27,2.16-1.23,2.96-2.9Zm2.56,26.13c1.3-1.71,1.95-3.75,1.95-6.13,0-2.06-.17-3.96-.5-5.69-.34-1.73-.77-3.04-1.31-3.94-.49-.85-.99-1.57-1.48-2.16-.49-.58-.92-.97-1.28-1.15l-.54-.2h-2.42c.22,5.16,.34,12.6,.34,22.29,2.2-.31,3.95-1.32,5.25-3.03Z"/>
          <path class="cls-1" d="M45.11,60.99c-.34-.27-.51-.72-.51-1.35v-8.82c-.58-.4-1.68-.76-3.3-1.08-1.62-.31-3.14-.52-4.58-.61-.49,.94-.85,2.09-1.08,3.44l-.27,1.35c-.05,.32-.18,1.01-.4,2.09-.23,1.08-.47,2.01-.74,2.8-.27,.79-.54,1.4-.81,1.85-1.71,0-2.69-.45-2.96-1.35,.49-.72,1.05-2.83,1.68-6.33l2.22-12.33c.99-5.84,1.9-10.82,2.73-14.95,.83-4.13,1.72-7.59,2.66-10.37,1.03-3.1,2.02-4.65,2.96-4.65s1.66,.18,2.16,.54c0,1.8,.43,6.13,1.28,13,.9,6.74,1.35,11.34,1.35,13.81s.25,5.79,.74,10.24c.45,4.54,.67,8.15,.67,10.84,0,1.53-.74,2.29-2.22,2.29-.72,0-1.25-.13-1.58-.4Zm-.57-14.28c-.13-1.98-.36-4.42-.67-7.34-1.03-10.15-1.55-16.37-1.55-18.66v-.54c-.45,.45-1.07,2.48-1.85,6.1-.79,3.62-1.52,7.49-2.19,11.62-.67,4.13-1.03,6.87-1.08,8.22,1.89,.54,3.88,.81,5.99,.81,.36,0,.81-.07,1.35-.2Z"/>
          <path class="cls-1" d="M62.76,61.59c-1.06-.58-1.96-1.37-2.73-2.36-.67-.94-1.28-2.14-1.82-3.6-.54-1.46-.94-2.97-1.21-4.55-.54-2.65-.9-6.13-1.08-10.44-.04-1.03-.07-2.81-.07-5.32v-4.24c.04-1.21,.07-2.47,.07-3.77,0-2.65,.16-4.74,.47-6.26-.13-.67-.2-1.37-.2-2.09,0-2.69,1.01-4.87,3.03-6.53s4.58-2.49,7.68-2.49c1.17,0,2.24,.31,3.23,.94,.99,.63,1.48,1.41,1.48,2.36,0,.45-.18,.81-.54,1.08-.36,.27-.81,.4-1.35,.4-.45,0-.93-.07-1.45-.2-.52-.13-.84-.34-.98-.61h-.88v-.13c-1.66,0-3.05,.36-4.18,1.08-.81,.58-1.44,1.55-1.89,2.9-.18,.5-.31,1.12-.4,1.89-.09,.76-.13,1.46-.13,2.09-.05,.36-.07,1.08-.07,2.16l.13,2.36,.07,2.29c0,.67-.09,1.46-.27,2.36-.23,1.12-.34,1.91-.34,2.36v1.62c0,1.75,.07,4.15,.2,7.21,.04,2.56,.34,5.12,.88,7.68,.4,2.38,1.17,4.4,2.29,6.06,1.08,1.71,2.54,2.56,4.38,2.56,.76,0,1.71-.4,2.83-1.21,1.21-.81,2.07-1.21,2.56-1.21,.63,0,1.28,.34,1.95,1.01,0,1.66-.63,2.94-1.89,3.84-1.17,.81-2.56,1.32-4.18,1.55-.9,.09-1.62,.13-2.16,.13-1.26,0-2.41-.29-3.47-.88Z"/>
          <path class="cls-1" d="M94.65,62.8c-.22-.04-.47-.07-.74-.07-1.21-6.87-2.42-12.62-3.64-17.24-1.21-4.62-2.74-8.98-4.58-13.07l-1.41,2.63c-.4,.76-.63,1.44-.67,2.02-.13,1.35-.2,2.33-.2,2.96,0,1.35,.07,3.41,.2,6.2,.13,2.74,.2,4.83,.2,6.26v5.52c0,2.38-.76,3.57-2.29,3.57-1.3,0-1.95-1.26-1.95-3.77,0-1.98,.13-5.01,.4-9.09,.31-3.77,.47-6.78,.47-9.03l.07-5.79v-7c0-2.47-.16-5.05-.47-7.75-.31-2.78-.47-4.89-.47-6.33,0-.58,.18-1.08,.54-1.48,.36-.4,.81-.61,1.35-.61,1.66,0,2.49,1.82,2.49,5.46l-.27,13.81,1.28-3.3c1.48-3.77,3.01-7.5,4.58-11.18,.9-2.02,1.71-3.61,2.42-4.78,.76-1.21,1.37-1.82,1.82-1.82,.49,0,.93,.17,1.31,.51,.38,.34,.57,.75,.57,1.25,0,.45-1.21,3.23-3.64,8.35-2.38,4.89-3.77,8.15-4.18,9.77v1.21c.67,1.71,2.47,7.17,5.39,16.4,2.92,9.23,4.38,14.11,4.38,14.65s-.21,.99-.64,1.35c-.43,.36-.93,.54-1.52,.54-.27,0-.54-.04-.81-.13Z"/>
        </g>
        <g>
          <path d="M12.28,60.25l.13-8.29,.13-8.28c0-3.01-.07-7.57-.2-13.67-.13-6.06-.2-10.62-.2-13.67v-.4c0-1.17,.11-2.24,.34-3.23,.27-1.21,.99-1.82,2.16-1.82,3.14,0,5.63,1.01,7.48,3.03,1.84,2.02,2.76,4.69,2.76,8.02,0,2.02-.54,4.13-1.62,6.33s-2.36,3.84-3.84,4.92c2.6,1.75,4.52,4.01,5.76,6.77,1.23,2.76,1.85,5.8,1.85,9.13,0,1.57-.54,3.53-1.62,5.86-1.3,2.78-3.08,4.78-5.32,5.99-1.35,.67-2.83,1.01-4.45,1.01h-.27c-2.07,0-3.1-.56-3.1-1.68Zm6.74-30.98c.67-1.26,1.3-2.78,1.89-4.58,.13-.49,.36-1.12,.67-1.89v-2.36c0-1.35-.49-2.65-1.48-3.91-.99-1.26-2.11-1.89-3.37-1.89-.63,0-.94,.7-.94,2.09,0,2.96,.04,5.61,.13,7.95l.13,7.48c1.17-.27,2.16-1.23,2.96-2.9Zm2.56,26.13c1.3-1.71,1.95-3.75,1.95-6.13,0-2.06-.17-3.96-.5-5.69-.34-1.73-.77-3.04-1.31-3.94-.49-.85-.99-1.57-1.48-2.16-.49-.58-.92-.97-1.28-1.15l-.54-.2h-2.42c.22,5.16,.34,12.6,.34,22.29,2.2-.31,3.95-1.32,5.25-3.03Z"/>
          <path d="M45.11,60.99c-.34-.27-.51-.72-.51-1.35v-8.82c-.58-.4-1.68-.76-3.3-1.08-1.62-.31-3.14-.52-4.58-.61-.49,.94-.85,2.09-1.08,3.44l-.27,1.35c-.05,.32-.18,1.01-.4,2.09-.23,1.08-.47,2.01-.74,2.8-.27,.79-.54,1.4-.81,1.85-1.71,0-2.69-.45-2.96-1.35,.49-.72,1.05-2.83,1.68-6.33l2.22-12.33c.99-5.84,1.9-10.82,2.73-14.95,.83-4.13,1.72-7.59,2.66-10.37,1.03-3.1,2.02-4.65,2.96-4.65s1.66,.18,2.16,.54c0,1.8,.43,6.13,1.28,13,.9,6.74,1.35,11.34,1.35,13.81s.25,5.79,.74,10.24c.45,4.54,.67,8.15,.67,10.84,0,1.53-.74,2.29-2.22,2.29-.72,0-1.25-.13-1.58-.4Zm-.57-14.28c-.13-1.98-.36-4.42-.67-7.34-1.03-10.15-1.55-16.37-1.55-18.66v-.54c-.45,.45-1.07,2.48-1.85,6.1-.79,3.62-1.52,7.49-2.19,11.62-.67,4.13-1.03,6.87-1.08,8.22,1.89,.54,3.88,.81,5.99,.81,.36,0,.81-.07,1.35-.2Z"/>
          <path d="M62.76,61.59c-1.06-.58-1.96-1.37-2.73-2.36-.67-.94-1.28-2.14-1.82-3.6-.54-1.46-.94-2.97-1.21-4.55-.54-2.65-.9-6.13-1.08-10.44-.04-1.03-.07-2.81-.07-5.32v-4.24c.04-1.21,.07-2.47,.07-3.77,0-2.65,.16-4.74,.47-6.26-.13-.67-.2-1.37-.2-2.09,0-2.69,1.01-4.87,3.03-6.53s4.58-2.49,7.68-2.49c1.17,0,2.24,.31,3.23,.94,.99,.63,1.48,1.41,1.48,2.36,0,.45-.18,.81-.54,1.08-.36,.27-.81,.4-1.35,.4-.45,0-.93-.07-1.45-.2-.52-.13-.84-.34-.98-.61h-.88v-.13c-1.66,0-3.05,.36-4.18,1.08-.81,.58-1.44,1.55-1.89,2.9-.18,.5-.31,1.12-.4,1.89-.09,.76-.13,1.46-.13,2.09-.05,.36-.07,1.08-.07,2.16l.13,2.36,.07,2.29c0,.67-.09,1.46-.27,2.36-.23,1.12-.34,1.91-.34,2.36v1.62c0,1.75,.07,4.15,.2,7.21,.04,2.56,.34,5.12,.88,7.68,.4,2.38,1.17,4.4,2.29,6.06,1.08,1.71,2.54,2.56,4.38,2.56,.76,0,1.71-.4,2.83-1.21,1.21-.81,2.07-1.21,2.56-1.21,.63,0,1.28,.34,1.95,1.01,0,1.66-.63,2.94-1.89,3.84-1.17,.81-2.56,1.32-4.18,1.55-.9,.09-1.62,.13-2.16,.13-1.26,0-2.41-.29-3.47-.88Z"/>
          <path d="M94.65,62.8c-.22-.04-.47-.07-.74-.07-1.21-6.87-2.42-12.62-3.64-17.24-1.21-4.62-2.74-8.98-4.58-13.07l-1.41,2.63c-.4,.76-.63,1.44-.67,2.02-.13,1.35-.2,2.33-.2,2.96,0,1.35,.07,3.41,.2,6.2,.13,2.74,.2,4.83,.2,6.26v5.52c0,2.38-.76,3.57-2.29,3.57-1.3,0-1.95-1.26-1.95-3.77,0-1.98,.13-5.01,.4-9.09,.31-3.77,.47-6.78,.47-9.03l.07-5.79v-7c0-2.47-.16-5.05-.47-7.75-.31-2.78-.47-4.89-.47-6.33,0-.58,.18-1.08,.54-1.48,.36-.4,.81-.61,1.35-.61,1.66,0,2.49,1.82,2.49,5.46l-.27,13.81,1.28-3.3c1.48-3.77,3.01-7.5,4.58-11.18,.9-2.02,1.71-3.61,2.42-4.78,.76-1.21,1.37-1.82,1.82-1.82,.49,0,.93,.17,1.31,.51,.38,.34,.57,.75,.57,1.25,0,.45-1.21,3.23-3.64,8.35-2.38,4.89-3.77,8.15-4.18,9.77v1.21c.67,1.71,2.47,7.17,5.39,16.4,2.92,9.23,4.38,14.11,4.38,14.65s-.21,.99-.64,1.35c-.43,.36-.93,.54-1.52,.54-.27,0-.54-.04-.81-.13Z"/>
        </g>
      </g>
    </g>
  </g>
</svg>