<?xml version="1.0" encoding="UTF-8"?>
<svg xmlns="http://www.w3.org/2000/svg" width="54.33" height="85.26" xmlns:xlink="http://www.w3.org/1999/xlink" viewBox="0 0 54.33 85.26">
  <defs>
    <style>
      .cls-1 {
        fill: url(#linear-gradient-2);
      }

      .cls-2 {
        fill: #0068c9;
      }

      .cls-3, .cls-4 {
        fill: #fff;
      }

      .cls-5 {
        fill: #95908f;
      }

      .cls-5, .cls-6 {
        opacity: .67;
      }

      .cls-5, .cls-6, .cls-7 {
        mix-blend-mode: multiply;
      }

      .cls-4 {
        mix-blend-mode: overlay;
        opacity: .45;
      }

      .cls-8 {
        isolation: isolate;
      }

      .cls-9 {
        fill: #908a88;
      }

      .cls-10 {
        fill: #ff341c;
      }

      .cls-11 {
        fill: url(#linear-gradient-3);
      }

      .cls-12 {
        fill: url(#linear-gradient);
      }

      .cls-13 {
        fill: url(#linear-gradient-4);
      }

      .cls-7 {
        fill: url(#linear-gradient-5);
        opacity: .69;
      }
    </style>
    <linearGradient id="linear-gradient" x1="11.15" y1="29.54" x2="43.18" y2="29.54" gradientUnits="userSpaceOnUse">
      <stop offset="0" stop-color="#bbb"/>
      <stop offset="1" stop-color="#fff"/>
    </linearGradient>
    <linearGradient id="linear-gradient-2" x1="40.05" y1="70.98" x2="11.57" y2="42.5" gradientTransform="translate(77.8 18.73) rotate(77.2)" xlink:href="#linear-gradient"/>
    <linearGradient id="linear-gradient-3" x1="12.31" y1="43.25" x2="46.77" y2="77.7" gradientTransform="translate(77.8 18.73) rotate(77.2)" xlink:href="#linear-gradient"/>
    <linearGradient id="linear-gradient-4" x1="53.89" y1="84.82" x2=".73" y2="31.66" xlink:href="#linear-gradient"/>
    <linearGradient id="linear-gradient-5" x1="33.32" y1="14" x2="28.22" y2="16.48" gradientUnits="userSpaceOnUse">
      <stop offset="0" stop-color="#fff"/>
      <stop offset="1" stop-color="#02183c"/>
    </linearGradient>
  </defs>
  <g class="cls-8">
    <g id="Layer_2" data-name="Layer 2">
      <g id="Layer_3" data-name="Layer 3">
        <g>
          <path class="cls-12" d="M16.32,37.6v-5.75c0-2.88,2.33-5.22,5.22-5.22h11.27c2.88,0,5.22,2.33,5.22,5.22v5.75h5.16v-5.75c0-5.72-4.66-10.38-10.38-10.38h-11.27c-5.72,0-10.38,4.66-10.38,10.38v5.75h5.16Z"/>
          <circle class="cls-1" cx="27.17" cy="58.1" r="27.17" transform="translate(-35.51 71.71) rotate(-77.2)"/>
          <circle class="cls-11" cx="27.17" cy="58.1" r="25.79" transform="translate(-35.51 71.71) rotate(-77.2)"/>
          <g>
            <circle class="cls-13" cx="27.17" cy="58.1" r="21.99"/>
            <path class="cls-4" d="M6.63,59.55c0-12.15,9.85-21.99,21.99-21.99,5.7,0,10.88,2.19,14.79,5.75-4.02-4.42-9.8-7.2-16.24-7.2-12.15,0-21.99,9.85-21.99,21.99,0,6.44,2.79,12.22,7.2,16.25-3.56-3.91-5.75-9.09-5.75-14.79Z"/>
            <path class="cls-5" d="M41.1,41.08c3.11,3.79,6.01,9.68,6.01,14.97,0,12.15-9.85,21.99-21.99,21.99-5.29,0-11.17-2.91-14.97-6.01,4.03,4.92,10.16,8.06,17.01,8.06,12.15,0,21.99-9.85,21.99-21.99,0-6.86-3.14-12.98-8.06-17.01Z"/>
            <g class="cls-6">
              <path class="cls-9" d="M28.38,51.8c0-1.24-.95-1.96-2.61-1.96-1.86,0-4.21,1.11-6.33,2.9l-2.25-4.4c2.94-2.15,6.13-3.46,9.46-3.46,4.63,0,7.99,2.41,7.99,6.04,0,2.48-1.89,5.06-4.44,7.63l-4.7,4.7h9.79v4.79H17.88l-.03-3.95,8.32-8.55c1.27-1.3,2.22-2.77,2.22-3.75Z"/>
            </g>
          </g>
          <g>
            <path class="cls-2" d="M30.09,0l-9.8,26.55c-.51,1.38,.51,2.85,1.99,2.85h2.04L35.17,0h-5.08Z"/>
            <polygon class="cls-3" points="35.17 0 24.31 29.41 29.4 29.41 40.25 0 35.17 0"/>
            <path class="cls-10" d="M40.25,0l-8.29,22.47-2.54,6.9v.04s3.59,0,3.59,0c.5,0,.96-.17,1.33-.49,.29-.22,.51-.53,.66-.9L45.33,0h-5.09Z"/>
            <path class="cls-7" d="M37.68,20.76l-2.69,7.27c-.14,.37-.37,.67-.66,.9-.37,.32-.83,.49-1.33,.49h-10.74c-1.47,0-2.49-1.47-1.99-2.86L30.05,.11l7.63,20.65Z"/>
            <path class="cls-2" d="M23.66,0h-5.08l10.84,29.36v.04h3.59c.5,0,.96-.17,1.33-.49l-2.38-6.45L23.66,0Z"/>
            <polygon class="cls-3" points="13.49 0 24.35 29.41 29.43 29.41 18.58 0 13.49 0"/>
            <path class="cls-10" d="M8.41,0l10.34,28.02c.31,.83,1.1,1.39,1.99,1.39h3.61L13.49,0h-5.08Z"/>
          </g>
        </g>
      </g>
    </g>
  </g>
</svg>