<?xml version="1.0" encoding="UTF-8"?>
<svg id="Layer_2" data-name="Layer 2" xmlns="http://www.w3.org/2000/svg" width="25.71" height="34.31" viewBox="0 0 25.71 34.31">
  <defs>
    <style>
      .cls-1 {
        fill: #f9fbf9;
      }

      .cls-2 {
        fill: #6a83b0;
      }

      .cls-3 {
        fill: #373b3c;
        opacity: .4;
      }

      .cls-4 {
        fill: #94c9db;
      }

      .cls-5 {
        fill: #1d2b8b;
      }

      .cls-6 {
        fill: #233da3;
      }
    </style>
  </defs>
  <g id="Layer_3" data-name="Layer 3">
    <g>
      <path d="M21.42,12.72c.03,1.96-.07,3.92-.52,5.84-.13,.58-.03,.82,.53,.99,1.55,.48,2.82,1.39,3.76,2.71,.84,1.2,.65,2.53-.5,3.69-.46,.46-.98,.83-1.57,1.12-1.18,.58-2.29,.58-3.4-.24-1.18-.86-2.23-1.91-3.57-2.56-.32-.16-.62-.2-.96-.17-1.1,.09-2.21,.18-3.32,.22-.51,.02-.85,.19-1.18,.58-1.67,2-4.59,2.86-7.01,1.88-1.54-.62-2.77-1.77-3.49-3.34-.31-.67-.23-1.36,.15-2.01,.35-.6,.67-1.22,1.03-1.81,.08-.14,.18-.23,.06-.4C.19,17.46,.17,15.42,.11,13.42c-.08-2.59,.25-5.15,.76-7.69,.14-.67,.49-1.11,1.12-1.36,1.06-.42,2.14-.75,3.3-.6,.34,.05,.52-.05,.65-.37C6.87,1.09,8.75,.21,11.06,.04c1.97-.14,3.92,.04,5.75,.88,1.87,.86,3.19,2.23,3.91,4.17-.8-.08-1.57-.3-2.35-.5-.7-.52-1.26-1.21-2.04-1.64-2.59-1.43-5.17-1.6-7.75,.01-.62,.37-.89,.99-1.13,1.62-.73,1.9-1.01,3.89-1.1,5.92-.06,1.18-.26,2.37-.21,3.55,.1,2.46-.1,4.98,1.24,7.24,.14,.24,.33,.51,.11,.79-.21,.27-.52,.16-.8,.11-.49-.08-.84-.38-1.09-.8-.29-.49-.71-.81-1.24-1-.77-.27-1.35-.09-1.83,.57,0,0-.02,.03-.04,.06-1.03,1.5-.45,3.07,1.51,3.94,1.91,.84,3.69,.38,5.21-.87,.88-.73,1.72-1.1,2.85-1.06,1.31,.04,2.65,.03,3.85-.63,2.46-1.36,3.5-3.54,3.5-6.28,.06-.85,.27-1.69,.26-2.56,.48-.5,1.03-.88,1.77-.84Z"/>
      <path class="cls-3" d="M11.39,34.29c-2.77,.1-5.5-.21-8.17-.94-.5-.14-.98-.32-1.42-.59-.96-.59-.97-1.32,.02-1.87,1.11-.62,2.34-.93,3.59-1.11,4.05-.58,8.11-.57,12.16,0,1.12,.16,2.22,.45,3.25,.94,.49,.23,1.05,.48,1.04,1.12-.01,.62-.56,.89-1.06,1.12-1.57,.7-3.26,.91-4.94,1.15-1.48,.21-2.98,.23-4.47,.19Z"/>
      <path d="M18.37,4.48c.81,.1,1.63,.14,2.35,.61,2.51,.96,3.16,5.82,.71,7.62-.55,.26-1.1,.52-1.66,.78-.17,.3-.45,.41-.76,.47-2.07,.42-4.14,.58-6.21,.05-2.39-.61-3.24-1.59-3.45-4.03-.06-.64-.05-1.29,0-1.94,.12-1.55,1.29-3,2.91-3.47,1.89-.55,3.84-.32,5.77-.26,.12,0,.24,.09,.35,.15Z"/>
      <path class="cls-6" d="M18.37,4.48c-1.77,.05-3.56-.18-5.32,.14-2.31,.42-3.54,1.9-3.53,4.24,0,.51,.04,1.03,.08,1.54,.16,1.96,1.33,3.01,3.15,3.4,2.36,.5,4.7,.43,7.01-.3,.27,.86-.14,1.69-.15,2.54-.3,2.24-2.53,3.9-4.6,3.74-1.23-.1-2.46,.03-3.69-.25-1.48-.34-2.42-1.21-2.86-2.63-.53-1.68-.93-3.4-.96-5.16-.04-1.86-.26-3.7-.19-5.56,.05-1.25,.38-2.38,1.17-3.37,1.3-1.04,2.83-1.27,4.42-1.16,2.23,.15,4.08,1.06,5.48,2.84Z"/>
      <path class="cls-5" d="M8.47,2.8c-1.12,2.03-.94,4.23-.87,6.42,.07,2.14,.25,4.27,.71,6.37,.62,2.86,1.75,3.83,4.68,3.92,.41,.01,.83-.02,1.24,.03,2.77,.32,4.44-1.03,5.39-3.51,.25,2.75-1.63,5.95-4.14,6.83-1.01,.35-2.12,.44-3.21,.37-1.13-.08-2.01,.22-2.92,1.02-1.46,1.27-3.28,1.73-5.19,1.01-1.13-.42-1.85-1.36-2.52-2.32-.04-.06-.07-.14-.09-.21-.13-.63,.97-2.35,1.67-2.6,.8-.29,2.02,.2,2.44,.99,.16,.3,.28,.61,.63,.74,.36,.14,.83,.37,1.09,.13,.23-.22-.17-.57-.33-.84-.77-1.26-.96-2.68-1.02-4.09-.19-4.21-.15-8.41,1.18-12.48,.23-.72,.53-1.41,1.26-1.78Z"/>
      <path class="cls-5" d="M4.87,7.1c-.17,2.31-.41,4.63-.5,6.94-.05,1.28,.11,2.58,.26,3.86,.06,.52-.13,.6-.55,.66-.95,.13-1.43-.13-1.84-1.03-.47-1.06-.53-2.21-.57-3.34-.09-2.25-.08-4.49,.14-6.74,.67-.67,2.03-.83,3.04-.36Z"/>
      <path class="cls-5" d="M17.79,23.34c.82-.63,1.54-1.35,2.08-2.24,.26-.43,.66-.36,1.03-.23,1.33,.46,2.17,1.53,3.07,2.51,.09,.1,.09,.22,.07,.36-.26,1.77-2.37,2.68-3.77,1.61-.83-.64-1.63-1.32-2.48-2.01Z"/>
      <path class="cls-6" d="M4.87,7.1c-1.05-.14-2.07-.11-3.04,.36,.19-1.68,1.53-2.54,3.15-2.04,.23,.07,.19,.18,.15,.33-.09,.45-.18,.9-.26,1.36Z"/>
      <path class="cls-4" d="M19.29,6.36c1.08,.02,1.47,.37,1.89,1.69,.19,1.61-.11,2.08-1.65,2.37-1.69,.32-3.37,.29-5.04-.16-.79-.21-1.46-.63-2.02-1.22-.72-.76-.71-1.75,0-2.55,.72-.42,1.54-.37,2.31-.4,1.14-.05,2.3-.17,3.44,.09-.26,.29-.63,.16-.94,.27-.27,.09-.57,.18-.58,.53,0,.29,.19,.53,.44,.58,.86,.15,1.69,.45,2.55,.56,.29,.04,.57-.11,.66-.43,.09-.29-.11-.48-.3-.67-.24-.25-.72-.21-.77-.67Z"/>
      <path class="cls-2" d="M12.47,6.49c-.69,1.59-.32,2.59,1.4,3.3,2.09,.87,4.28,.82,6.42,.2,.93-.27,.88-1.16,.88-1.95,.36,2.25,.31,3.19-1.87,3.91-1.96,.65-3.95,.83-5.97,.3-1.5-.39-2.2-1.32-2.25-2.88-.04-1.23,.1-2.32,1.39-2.88Z"/>
      <path class="cls-1" d="M19.29,6.36c.33,.18,.68,.33,.98,.55,.31,.22,.49,.54,.3,.94-.17,.36-.47,.57-.87,.49-.88-.17-1.73-.44-2.63-.55-.45-.05-.64-.43-.64-.84,0-.43,.34-.62,.72-.67,.35-.05,.71-.06,1.07-.08,.34,.13,.7,.21,1.07,.17Z"/>
    </g>
  </g>
</svg>