<?xml version="1.0" encoding="UTF-8"?>
<svg id="Layer_2" data-name="Layer 2" xmlns="http://www.w3.org/2000/svg" width="26.9" height="37.65" viewBox="0 0 26.9 37.65">
  <defs>
    <style>
      .cls-1 {
        fill: #5a8170;
        stroke-width: .73px;
      }

      .cls-1, .cls-2 {
        stroke: #000;
      }

      .cls-1, .cls-2, .cls-3 {
        stroke-linecap: round;
        stroke-linejoin: round;
      }

      .cls-4 {
        fill: #2b3a36;
        opacity: .5;
      }

      .cls-2, .cls-5, .cls-3, .cls-6 {
        fill: none;
      }

      .cls-2, .cls-3 {
        stroke-width: .6px;
      }

      .cls-5 {
        stroke: #294139;
        stroke-width: .48px;
      }

      .cls-5, .cls-6 {
        stroke-miterlimit: 10;
      }

      .cls-3, .cls-6 {
        stroke: #fff;
      }

      .cls-6 {
        stroke-width: .25px;
      }
    </style>
  </defs>
  <g id="Layer_3" data-name="Layer 3">
    <g>
      <path class="cls-4" d="M.04,23.35l.04,2.16,8.04,11.31c.61,.8,1.7,1.05,2.59,.6l15.84-8.65,.19-2.3L.04,23.35Z"/>
      <polygon class="cls-1" points="26.54 10.04 10.58 16.81 .52 7.13 16.47 .36 26.54 10.04"/>
      <polygon class="cls-1" points="26.54 10.04 10.58 16.81 10.47 33.03 26.42 26.26 26.54 10.04"/>
      <polygon class="cls-5" points="25.16 12.01 11.94 17.62 11.85 31.06 25.06 25.45 25.16 12.01"/>
      <polyline class="cls-5" points="11.85 22.77 15.71 21.13 18.03 25.87 21.46 24.37 22.01 18.46 25.06 17.16"/>
      <polygon class="cls-1" points=".48 7.09 10.58 16.81 10.47 33.03 .36 23.31 .48 7.09"/>
      <polygon class="cls-5" points="1.56 9.91 9.47 17.52 9.38 30.22 1.47 22.61 1.56 9.91"/>
      <polyline class="cls-5" points="9.38 23.14 7.07 20.91 5.89 24.67 3.81 22.67 3.52 17.5 1.47 15.53"/>
      <polygon class="cls-5" points="24.13 9.77 11.13 15.29 2.93 7.4 15.93 1.89 24.13 9.77"/>
      <g>
        <path class="cls-3" d="M11.42,13.43c-.05,.06-.16,.03-.2-.03s-.06-.14-.06-.22c0-.27,.04-.53,.14-.78,.05,.13,.09,.25,.14,.38,.02,.04,.04,.09,.08,.1,.04,0,.07-.02,.1-.05,.15-.13,.28-.27,.4-.43l.12,.3c.28-.27,.49-.61,.62-.97,.1,.27,.23,.52,.41,.74,.03,.04,.08,.09,.13,.09,.04,0,.08-.03,.11-.06,.2-.19,.38-.39,.56-.61-.01,.11,0,.22,.06,.31,.16-.11,.29-.28,.35-.46l.11,.13c.13-.14,.23-.3,.32-.47l.21,.29c.3-.18,.51-.5,.54-.85"/>
        <path class="cls-2" d="M12.17,4.34c.14-.05,.29,.04,.39,.15s.18,.24,.3,.33c.04,.02,.08,.04,.12,.04,.04,0,.08-.04,.11-.08,.16-.19,.22-.46,.17-.7,.16,.19,.54,.16,.67,.38"/>
        <path class="cls-2" d="M13.99,3.73c.22,.28,.43,.57,.62,.87,.07-.03,.12-.09,.13-.16"/>
        <path class="cls-2" d="M14.73,3.87c-.05-.26-.04-.53,.02-.78-.02,.33,.04,.66,.16,.96,.08-.08,.15-.18,.2-.29"/>
        <path class="cls-2" d="M15.26,3.13l.23,.52"/>
        <path class="cls-3" d="M10.34,5.27c.17,.11,.32,.26,.42,.43"/>
        <path class="cls-3" d="M18.21,24.04c.1,.12,.16,.28,.18,.43"/>
        <path class="cls-3" d="M18.67,23.92c.16,.16,.32,.32,.47,.49,.02-.03,.04-.05,.06-.08"/>
        <path class="cls-3" d="M19.59,23.49c.11,.15,.22,.3,.31,.46"/>
        <path class="cls-3" d="M20.41,23.25v.47"/>
        <path class="cls-3" d="M4.62,22.07l-.1,.26"/>
        <path class="cls-3" d="M4.93,22.18c.05,.03,.04,.11,.02,.17-.04,.12-.08,.24-.12,.36"/>
        <path class="cls-3" d="M5.58,22.21c-.11,.23-.22,.46-.39,.64-.08,.09-.17,.17-.21,.28"/>
      </g>
      <path class="cls-6" d="M5.54,22.84s.05,.1,.04,.15-.04,.1-.07,.15c-.07,.11-.14,.22-.21,.33"/>
      <path class="cls-6" d="M4.28,22.01v.38"/>
      <path class="cls-6" d="M4.71,22.34l-.26,.34"/>
    </g>
  </g>
</svg>