<?xml version="1.0" encoding="UTF-8"?>
<svg id="Layer_2" data-name="Layer 2" xmlns="http://www.w3.org/2000/svg" width="196.32" height="77.33" viewBox="0 0 196.32 77.33">
  <defs>
    <style>
      .cls-1 {
        stroke: #fff;
        stroke-miterlimit: 10;
        stroke-width: 4px;
      }

      .cls-2 {
        fill: #fff;
      }
    </style>
  </defs>
  <g id="Layer_1-2" data-name="Layer 1">
    <g>
      <rect class="cls-1" x="2" y="2" width="192.32" height="72" rx="10.89" ry="10.89"/>
      <g>
        <path class="cls-2" d="M38.75,62.71c-.34-.56-.5-1.18-.5-1.85v-.17c.19-.75,.28-1.42,.28-2.02,0-.67-.06-1.59-.17-2.75-.15-1.08-.22-2-.22-2.75v-1.23c.04-.34,.06-.73,.06-1.18,0-.41-.04-.99-.11-1.74l-1.46,.17c-.75,.11-1.29,.17-1.62,.17-.71,0-1.44-.3-2.18-.9,0-.78,.09-1.51,.28-2.18-.19-.93-.28-1.98-.28-3.14,0-1.08,.15-3.01,.45-5.77,.26-2.39,.39-4.28,.39-5.66v-10.36c0-.48,.13-.78,.39-.9,.19-.11,.41-.17,.67-.17,.48,0,.89,.12,1.2,.36,.32,.24,.48,.57,.48,.98,0,.82-.04,1.55-.11,2.18l-.11,2.19v.5c-.04,.15-.06,.32-.06,.5,0,.3,.04,.64,.11,1.01v.22c.11,.93,.17,1.92,.17,2.97,0,1.83-.13,4.2-.39,7.11-.26,2.91-.39,5.28-.39,7.11,0,.26,.04,.69,.11,1.29,.86-.07,1.53-.19,2.02-.34,0-1.34,.09-3.98,.28-7.9,.15-3.14,.22-5.71,.22-7.73,0-.37,.16-.68,.48-.92,.32-.24,.64-.36,.98-.36l.9,1.01v2.69c0,4.85-.04,9.19-.11,13,.04,0,.1,0,.2-.03,.09-.02,.25-.03,.48-.03,.26-.04,.58-.06,.95-.06,1.12,0,1.68,.39,1.68,1.18,0,.9-.75,1.34-2.24,1.34-.63,0-.95,.17-.95,.5,0,1.57,.06,3.39,.17,5.46s.26,3.3,.45,3.67c-.08,.3-.11,.65-.11,1.06,0,.49,.08,.86,.22,1.12v1.01c0,.6-.1,1.1-.31,1.51-.21,.41-.53,.62-.98,.62-.52,0-.95-.28-1.29-.84Z"/>
        <path class="cls-2" d="M60.23,62.24c-.24-.35-.36-.79-.36-1.32l.11-9.41c.11-4.56,.17-8.08,.17-10.59,0-8.7-.49-15.37-1.46-20,.56-.86,1.27-1.29,2.13-1.29,1.38,0,2.64,.31,3.78,.92,1.14,.62,2.08,1.45,2.83,2.49,1.46,2.17,2.18,4.59,2.18,7.28s-.6,5.3-1.79,7.51c-1.2,2.2-2.93,3.92-5.21,5.15l.11,5.66,.11,2.97c.04,.64,.06,1.55,.06,2.75,.11,2.5,.17,4.54,.17,6.11,0,.71-.15,1.27-.45,1.68-.3,.41-.77,.62-1.4,.62-.41,0-.74-.18-.98-.53Zm5.49-26.27c.69-1.51,1.04-3.22,1.04-5.13v-.06c0-.86-.09-1.94-.28-3.25-.11-.45-.32-.9-.62-1.34s-.47-.71-.5-.78c-.26-.37-.95-.95-2.07-1.74l-1.46-1.06c0,1.9,.11,4.86,.34,8.85l.34,8.85c1.46-1.38,2.53-2.83,3.22-4.34Z"/>
        <path class="cls-2" d="M79.14,62.71c-.6,.37-1.23,.56-1.91,.56-.45,0-.83-.2-1.15-.59-.32-.39-.48-.81-.48-1.26,0-3.14,.13-7.32,.39-12.55,.22-5.56,.34-9.73,.34-12.49v-.39c-.22-2.35-.34-4.11-.34-5.27,0-3.55,.65-5.32,1.96-5.32,.37,0,.7,.14,.98,.42s.42,.61,.42,.98c0,.45-.06,1.16-.17,2.13-.11,.93-.17,1.64-.17,2.13,0,2.5,.02,4.76,.06,6.78,.04,1.98,.06,4.22,.06,6.72-.19,.56-.28,1.34-.28,2.35v.67l-.11,4.43c-.08,1.31-.11,2.8-.11,4.48,0,2.58,.62,3.87,1.85,3.87,.07,0,.2,0,.36-.03,.17-.02,.4-.03,.7-.03,.34-.04,.77-.06,1.29-.06,2.02,0,3.02,.56,3.02,1.68,0,.37-.17,.69-.5,.95-.34,.26-.75,.43-1.23,.5-1.34-.45-3.01-.67-4.99-.67Z"/>
        <path class="cls-2" d="M99.64,62.6c-.41-.26-.62-.75-.62-1.46,0-1.12-.19-3.03-.56-5.71l-.22-1.18-5.55-.84c-.22,.86-.54,2.6-.95,5.21-.22,1.83-.58,3.04-1.06,3.64-.26,.34-.63,.5-1.12,.5-.45,0-.86-.14-1.23-.42-.37-.28-.56-.62-.56-1.04l.11-.28,.06-.22c2.46-9.6,4.33-19.06,5.6-28.4,0-.15,.02-.4,.06-.76,.04-.35,.07-.87,.11-1.54,.11-1.38,.23-2.48,.36-3.31,.13-.82,.34-1.44,.64-1.85h1.91c.52,0,.97,.12,1.34,.36,.37,.24,.56,.59,.56,1.04,0,2.84,.39,7.06,1.18,12.66,.75,5.75,1.12,9.79,1.12,12.1,0,.22,.09,.8,.28,1.74,.19,.86,.28,1.42,.28,1.68s.19,1.38,.56,3.36c.34,1.79,.5,2.95,.5,3.47v.06c0,.82-.3,1.34-.9,1.57-.86,0-1.49-.13-1.91-.39Zm-1.96-12.44c0-3.36-.3-7.66-.9-12.88l-.56-5.83c-1.61,8.78-2.71,15.41-3.3,19.89,.56,.37,2.2,.67,4.93,.9-.11-.56-.17-1.25-.17-2.07Z"/>
        <path class="cls-2" d="M110.29,62.04c.41-.78,.62-3.96,.62-9.52,0-1.31-.09-2.73-.28-4.26l-.17-1.62c-.11-1.01-.17-1.77-.17-2.3v-1.46c-.37-.93-1.06-2.67-2.04-5.21-.99-2.54-1.78-4.67-2.38-6.39-.71-1.98-1.06-3.32-1.06-4.03v-.28l1.29-.95c.63,.08,1.31,.9,2.02,2.46,.6,1.38,1.26,3.36,1.99,5.94,.73,2.58,1.09,3.94,1.09,4.09,.15-.41,.45-1.81,.9-4.2,.45-2.39,.95-4.5,1.51-6.33,.63-1.83,1.29-2.75,1.96-2.75,.37,0,.7,.11,.98,.34s.42,.5,.42,.84c0,1.9-.52,4.59-1.57,8.07-1.12,3.77-1.68,6.5-1.68,8.18v16.86c0,2.5-.62,3.75-1.85,3.75-.64,0-1.16-.41-1.57-1.23Z"/>
        <path class="cls-2" d="M124.37,62.71c-.39-.34-.61-.75-.64-1.23v-2.58c-.04-.34-.06-.73-.06-1.18,0-.78-.06-1.98-.17-3.58l-.11-3.59c0-1.83,.06-4.56,.17-8.18,.15-3.25,.22-5.97,.22-8.18,0-.52-.06-1.31-.17-2.35-.11-1.08-.17-1.87-.17-2.35,0-2.65,.78-3.98,2.35-3.98,1.23,0,2.66,.24,4.29,.73,1.62,.49,2.44,1.06,2.44,1.74,0,.37-.16,.72-.48,1.04-.32,.32-.7,.57-1.15,.76-1.57-.56-2.99-.93-4.26-1.12,.04,.56,.06,1.36,.06,2.41,0,1.49-.02,2.84-.06,4.03-.11,1.79-.17,3.14-.17,4.03l.17,.9,.9-.06c.3-.04,.67-.06,1.12-.06,1.79,0,2.69,.52,2.69,1.57,0,.41-.17,.76-.5,1.04-.34,.28-.77,.42-1.29,.42-.67,0-1.2-.04-1.57-.11h-1.4c.07,.97,.11,2.39,.11,4.26s-.02,3.55-.06,5.04c-.11,2.28-.17,3.98-.17,5.1,0,2.09,.04,3.14,.11,3.14l1.85-.06c.63-.04,1.4-.06,2.3-.06,1.42,0,2.13,.45,2.13,1.34,0,.52-.23,.92-.7,1.2s-1.04,.42-1.71,.42h-4.76c-.49,0-.92-.17-1.32-.5Z"/>
        <path class="cls-2" d="M146.59,60.75c-.78-1.94-1.36-3.94-1.74-5.99l-.39-1.9c-1.08-5.34-1.77-8.38-2.07-9.13h-.67c0,1.08-.02,2.07-.06,2.97v3.08c0,5,.35,8.91,1.06,11.71l-.62,1.51h-1.57l-.73-.84,.06-3.75c0-3.36-.17-8.46-.5-15.29-.3-7.28-.45-12.38-.45-15.29,0-1.79,.62-2.69,1.85-2.69,2.02,0,3.67,.52,4.96,1.57,1.29,1.05,1.93,2.5,1.93,4.37v3.92c0,.56-.09,1.2-.28,1.93-.19,.73-.39,1.32-.62,1.76l-1.06,2.02-.9,1.68,.28,1.34,.79,3.98c.52,2.88,1.03,5.21,1.51,7s1.08,3.42,1.79,4.87l.34,.67c.37,.75,.56,1.34,.56,1.79,0,.37-.11,.7-.34,.98-.22,.28-.52,.42-.9,.42-.82,0-1.57-.9-2.24-2.69Zm-2.55-23.16c.58-1.85,.87-3.56,.87-5.13,0-1.19-.15-2.31-.45-3.36-.19-.6-.5-1.05-.92-1.37-.43-.32-.96-.48-1.6-.48l-.11,.28-.11,.5,.11,6.61c.08,1.94,.11,4.05,.11,6.33,.82-.41,1.52-1.54,2.1-3.39Z"/>
        <path class="cls-2" d="M154.85,62.54c-.47-.37-.74-.86-.81-1.46l.62-.95c.22,0,.58,.08,1.06,.22,.56,.11,.99,.17,1.29,.17,.67,0,1.28-.3,1.82-.9,.54-.6,.94-1.38,1.2-2.35,.49-1.79,.73-3.4,.73-4.82,0-2.46-.78-5.06-2.35-7.79l-.62-1.06c-.71-1.23-1.31-2.33-1.79-3.31-.49-.97-.9-2.02-1.23-3.14-.45-1.46-.67-2.91-.67-4.37,0-1.64,.37-3.36,1.12-5.15,.37-.86,.91-1.56,1.6-2.1,.69-.54,1.46-.81,2.32-.81,.67,0,1.3,.22,1.88,.64,.58,.43,.87,.94,.87,1.54,0,.34-.13,.6-.39,.78-.26,.19-.58,.28-.95,.28-.41,0-.8-.11-1.18-.34-.82,.04-1.48,.77-1.96,2.18-.41,1.31-.62,2.39-.62,3.25,0,1.08,.17,2.18,.5,3.28,.34,1.1,.77,2.1,1.29,3l1.23,2.24,1.96,3.7c.52,1.05,.94,2.26,1.26,3.64,.32,1.38,.48,2.78,.48,4.2,0,2.28-.52,4.44-1.57,6.5-.52,1.05-1.26,1.89-2.21,2.52-.95,.63-2.01,.95-3.17,.95v.17c-.67-.11-1.24-.36-1.71-.73Z"/>
      </g>
    </g>
  </g>
</svg>