<?xml version="1.0" encoding="UTF-8"?>
<svg id="Layer_2" data-name="Layer 2" xmlns="http://www.w3.org/2000/svg" width="45.43" height="88.85" viewBox="0 0 45.43 88.85">
  <defs>
    <style>
      .cls-1 {
        fill: #fff;
      }

      .cls-2 {
        fill: none;
        stroke: #000;
        stroke-linecap: round;
        stroke-linejoin: round;
        stroke-width: 3.38px;
      }

      .cls-3 {
        stroke: #fff;
        stroke-miterlimit: 10;
        stroke-width: 3px;
      }
    </style>
  </defs>
  <g id="Layer_1-2" data-name="Layer 1">
    <g>
      <rect class="cls-3" x="1.5" y="12.48" width="39.32" height="39.32" rx="3.64" ry="3.64"/>
      <g>
        <path class="cls-2" d="M8.43,33.57c-.39-.39-.71-.74-.97-1.06-.25-.31-.38-.59-.38-.83,0-.25,.12-.48,.34-.67,.23-.2,.5-.36,.83-.48,.32-.13,.67-.22,1.03-.28,.37-.06,.67-.09,.93-.09,.27,0,.5,.06,.67,.19,.18,.13,.39,.31,.62,.55,1.59,1.6,3.04,3.31,4.34,5.14,1.3,1.83,2.5,3.65,3.6,5.45,2.12-5.87,4.59-11.57,7.41-17.08,2.82-5.52,5.99-10.68,9.52-15.5,.34-.48,.87-.84,1.59-1.09,.72-.25,1.53-.38,2.43-.38,.29,0,.52,.06,.69,.17,.17,.11,.25,.27,.25,.47s-.03,.38-.08,.52c-.05,.14-.17,.34-.36,.57-1.88,2.49-3.71,5.11-5.49,7.84-1.77,2.73-3.47,5.61-5.08,8.64-1.61,3.03-3.14,6.21-4.58,9.53-1.44,3.33-2.77,6.82-3.97,10.49-.03,.1-.13,.19-.28,.27-.15,.08-.34,.14-.56,.19-.22,.05-.47,.09-.74,.11s-.54,.04-.81,.04c-.39,0-.75-.04-1.07-.11-.32-.08-.56-.24-.71-.5-.81-1.39-1.57-2.62-2.27-3.68-.7-1.06-1.4-2.05-2.11-2.97s-1.46-1.81-2.23-2.67c-.77-.87-1.63-1.79-2.58-2.77Z"/>
        <path class="cls-1" d="M8.43,33.57c-.39-.39-.71-.74-.97-1.06-.25-.31-.38-.59-.38-.83,0-.25,.12-.48,.34-.67,.23-.2,.5-.36,.83-.48,.32-.13,.67-.22,1.03-.28,.37-.06,.67-.09,.93-.09,.27,0,.5,.06,.67,.19,.18,.13,.39,.31,.62,.55,1.59,1.6,3.04,3.31,4.34,5.14,1.3,1.83,2.5,3.65,3.6,5.45,2.12-5.87,4.59-11.57,7.41-17.08,2.82-5.52,5.99-10.68,9.52-15.5,.34-.48,.87-.84,1.59-1.09,.72-.25,1.53-.38,2.43-.38,.29,0,.52,.06,.69,.17,.17,.11,.25,.27,.25,.47s-.03,.38-.08,.52c-.05,.14-.17,.34-.36,.57-1.88,2.49-3.71,5.11-5.49,7.84-1.77,2.73-3.47,5.61-5.08,8.64-1.61,3.03-3.14,6.21-4.58,9.53-1.44,3.33-2.77,6.82-3.97,10.49-.03,.1-.13,.19-.28,.27-.15,.08-.34,.14-.56,.19-.22,.05-.47,.09-.74,.11s-.54,.04-.81,.04c-.39,0-.75-.04-1.07-.11-.32-.08-.56-.24-.71-.5-.81-1.39-1.57-2.62-2.27-3.68-.7-1.06-1.4-2.05-2.11-2.97s-1.46-1.81-2.23-2.67c-.77-.87-1.63-1.79-2.58-2.77Z"/>
      </g>
    </g>
  </g>
</svg>