<?xml version="1.0" encoding="UTF-8"?>
<svg id="Layer_2" data-name="Layer 2" xmlns="http://www.w3.org/2000/svg" width="172.75" height="116.39" xmlns:xlink="http://www.w3.org/1999/xlink" viewBox="0 0 172.75 116.39">
  <defs>
    <style>
      .cls-1 {
        fill: #abb;
      }

      .cls-2 {
        stroke-width: 6.25px;
      }

      .cls-2, .cls-3 {
        fill: none;
        stroke: #fff;
        stroke-linecap: round;
        stroke-linejoin: round;
      }

      .cls-3 {
        stroke-width: 6.33px;
      }

      .cls-4 {
        fill: #cdd;
      }

      .cls-5 {
        fill: #bbc;
      }

      .cls-6 {
        fill: #334;
      }

      .cls-7 {
        fill: url(#linear-gradient);
      }
    </style>
    <linearGradient id="linear-gradient" x1="105.37" y1="87.48" x2="105.37" y2="31.04" gradientUnits="userSpaceOnUse">
      <stop offset="0" stop-color="#942110"/>
      <stop offset="1" stop-color="#cd3400"/>
    </linearGradient>
  </defs>
  <g id="Layer_1-2" data-name="Layer 1">
    <g>
      <g>
        <g>
          <polygon class="cls-3" points="169.59 59.7 3.39 8.16 3.17 109.25 169.59 59.7"/>
          <polygon class="cls-6" points="169.59 59.7 3.39 8.16 3.17 109.25 169.59 59.7"/>
        </g>
        <polygon class="cls-7" points="154.7 59.7 56.05 31.04 56.05 87.48 154.7 59.7"/>
        <polygon class="cls-5" points="8.28 14.82 47.16 59.26 140.04 59.7 8.28 14.82"/>
        <polygon class="cls-4" points="8.28 14.82 47.16 59.26 8.94 103.7 8.28 14.82"/>
        <polygon class="cls-1" points="140.04 59.7 8.94 103.7 47.16 59.26 140.04 59.7"/>
      </g>
      <g>
        <g>
          <path class="cls-2" d="M14.28,88.62c-1.03-.58-1.54-1.25-1.54-2.02s.19-1.4,.58-1.88c.39-.48,.93-.72,1.64-.72,.64,0,1.57,.26,2.79,.77,1.35,.51,2.18,.77,2.5,.77,1.22,0,2.33-.53,3.32-1.59s1.78-2.46,2.36-4.19c1.16-3.21,1.73-6.1,1.73-8.67,0-2.76-.43-5.66-1.3-8.71-.87-3.05-2.04-6.02-3.51-8.91l-1.54-3.08c-1.61-3.21-2.84-5.74-3.71-7.61-.87-1.86-1.62-3.88-2.26-6.06-.96-3.08-1.44-6.07-1.44-8.95,0-2.31,.4-4.49,1.2-6.55,.8-2.05,2-3.79,3.61-5.2,1.6-1.54,3.59-2.31,5.97-2.31,1.16,0,2.28,.34,3.37,1.01,1.09,.67,1.86,1.53,2.31,2.55l-1.64,2.02c-1.67,0-2.92-.32-3.75-.96-1.16,.13-2.17,.69-3.03,1.68-.87,1-1.53,2.13-1.97,3.42-.39,1.22-.58,2.44-.58,3.66,0,2.44,.34,4.93,1.01,7.46,.67,2.54,1.56,4.93,2.65,7.17l6.74,13.48c1.09,2.31,1.96,4.91,2.6,7.8,.64,2.89,.96,5.78,.96,8.67,0,4.24-1.03,8.22-3.08,11.94-1.09,1.93-2.5,3.45-4.24,4.57-1.73,1.12-3.66,1.68-5.78,1.68-2.31,0-4.3-.42-5.97-1.25Z"/>
          <path class="cls-2" d="M49.8,86.21l-.1-3.75c-.07-1.09-.1-2.31-.1-3.66l.1-3.27c-.19-.71-.67-7.73-1.44-21.08-.77-13.35-1.22-21.92-1.35-25.71-3.72-.13-6.1-.51-7.12-1.16-.71-.51-1.06-1.09-1.06-1.73,0-.51,.34-.98,1.01-1.4,.67-.42,1.36-.63,2.07-.63,1.8,0,3.98,.13,6.55,.39,2.44,.32,4.62,.48,6.55,.48h1.54c1.99,0,2.98,.77,2.98,2.31,0,.77-.32,1.4-.96,1.88-.64,.48-1.38,.72-2.21,.72-.58,0-1.41-.1-2.5-.29l-1.92-.39-.1,.48-.1,.48c0,5.71,.54,14.83,1.64,27.34,1.03,11.75,1.54,20.86,1.54,27.34,0,.77-.34,1.44-1.01,2.02-.67,.58-1.43,.87-2.26,.87l-1.73-1.25Z"/>
          <path class="cls-2" d="M84.75,87.94c-.71-.45-1.06-1.28-1.06-2.5,0-1.93-.32-5.2-.96-9.82l-.38-2.02-9.53-1.44c-.38,1.48-.93,4.46-1.64,8.95-.38,3.15-1,5.23-1.83,6.26-.45,.58-1.09,.87-1.92,.87-.77,0-1.48-.24-2.12-.72-.64-.48-.96-1.07-.96-1.78l.19-.48,.1-.39c4.24-16.49,7.44-32.76,9.63-48.81,0-.26,.03-.69,.1-1.3,.06-.61,.13-1.49,.19-2.65,.19-2.37,.4-4.27,.63-5.68,.22-1.41,.59-2.47,1.11-3.18h3.27c.9,0,1.67,.21,2.31,.63,.64,.42,.96,1.01,.96,1.78,0,4.88,.67,12.13,2.02,21.76,1.28,9.88,1.93,16.82,1.93,20.8,0,.38,.16,1.38,.48,2.98,.32,1.48,.48,2.44,.48,2.89s.32,2.38,.96,5.78c.58,3.08,.87,5.07,.87,5.97v.1c0,1.41-.51,2.31-1.54,2.7-1.48,0-2.57-.23-3.27-.67Zm-3.37-21.37c0-5.78-.51-13.16-1.54-22.14l-.96-10.01c-2.76,15.08-4.65,26.47-5.68,34.18,.96,.64,3.79,1.16,8.47,1.54-.19-.96-.29-2.15-.29-3.56Z"/>
          <path class="cls-2" d="M110.84,84.76c-1.35-3.34-2.34-6.77-2.98-10.3l-.67-3.27c-1.86-9.18-3.05-14.41-3.56-15.69h-1.16c0,1.86-.03,3.56-.1,5.1v5.29c0,8.6,.61,15.31,1.83,20.12l-1.06,2.6h-2.7l-1.25-1.44,.1-6.45c0-5.78-.29-14.54-.87-26.28-.51-12.52-.77-21.28-.77-26.28,0-3.08,1.06-4.62,3.18-4.62,3.47,0,6.31,.9,8.52,2.7,2.21,1.8,3.32,4.3,3.32,7.51v6.74c0,.96-.16,2.07-.48,3.32-.32,1.25-.67,2.26-1.06,3.03l-1.83,3.47-1.54,2.89,.48,2.31,1.35,6.84c.9,4.94,1.76,8.95,2.6,12.03,.83,3.08,1.86,5.87,3.08,8.38l.58,1.16c.64,1.28,.96,2.31,.96,3.08,0,.64-.19,1.2-.58,1.69-.38,.48-.9,.72-1.54,.72-1.41,0-2.7-1.54-3.85-4.62Zm-4.38-39.81c.99-3.18,1.49-6.11,1.49-8.81,0-2.05-.26-3.98-.77-5.78-.32-1.03-.85-1.81-1.59-2.36-.74-.54-1.65-.82-2.74-.82l-.19,.48-.19,.87,.19,11.36c.13,3.34,.19,6.96,.19,10.88,1.41-.71,2.61-2.65,3.61-5.82Z"/>
          <path class="cls-2" d="M131.64,86.21l-.1-3.75c-.07-1.09-.1-2.31-.1-3.66l.1-3.27c-.19-.71-.67-7.73-1.44-21.08-.77-13.35-1.22-21.92-1.35-25.71-3.72-.13-6.1-.51-7.12-1.16-.71-.51-1.06-1.09-1.06-1.73,0-.51,.34-.98,1.01-1.4,.67-.42,1.36-.63,2.07-.63,1.8,0,3.98,.13,6.55,.39,2.44,.32,4.62,.48,6.55,.48h1.54c1.99,0,2.98,.77,2.98,2.31,0,.77-.32,1.4-.96,1.88-.64,.48-1.38,.72-2.21,.72-.58,0-1.41-.1-2.5-.29l-1.92-.39-.1,.48-.1,.48c0,5.71,.54,14.83,1.64,27.34,1.03,11.75,1.54,20.86,1.54,27.34,0,.77-.34,1.44-1.01,2.02-.67,.58-1.43,.87-2.26,.87l-1.73-1.25Z"/>
        </g>
        <g>
          <path d="M14.28,88.62c-1.03-.58-1.54-1.25-1.54-2.02s.19-1.4,.58-1.88c.39-.48,.93-.72,1.64-.72,.64,0,1.57,.26,2.79,.77,1.35,.51,2.18,.77,2.5,.77,1.22,0,2.33-.53,3.32-1.59s1.78-2.46,2.36-4.19c1.16-3.21,1.73-6.1,1.73-8.67,0-2.76-.43-5.66-1.3-8.71-.87-3.05-2.04-6.02-3.51-8.91l-1.54-3.08c-1.61-3.21-2.84-5.74-3.71-7.61-.87-1.86-1.62-3.88-2.26-6.06-.96-3.08-1.44-6.07-1.44-8.95,0-2.31,.4-4.49,1.2-6.55,.8-2.05,2-3.79,3.61-5.2,1.6-1.54,3.59-2.31,5.97-2.31,1.16,0,2.28,.34,3.37,1.01,1.09,.67,1.86,1.53,2.31,2.55l-1.64,2.02c-1.67,0-2.92-.32-3.75-.96-1.16,.13-2.17,.69-3.03,1.68-.87,1-1.53,2.13-1.97,3.42-.39,1.22-.58,2.44-.58,3.66,0,2.44,.34,4.93,1.01,7.46,.67,2.54,1.56,4.93,2.65,7.17l6.74,13.48c1.09,2.31,1.96,4.91,2.6,7.8,.64,2.89,.96,5.78,.96,8.67,0,4.24-1.03,8.22-3.08,11.94-1.09,1.93-2.5,3.45-4.24,4.57-1.73,1.12-3.66,1.68-5.78,1.68-2.31,0-4.3-.42-5.97-1.25Z"/>
          <path d="M49.8,86.21l-.1-3.75c-.07-1.09-.1-2.31-.1-3.66l.1-3.27c-.19-.71-.67-7.73-1.44-21.08-.77-13.35-1.22-21.92-1.35-25.71-3.72-.13-6.1-.51-7.12-1.16-.71-.51-1.06-1.09-1.06-1.73,0-.51,.34-.98,1.01-1.4,.67-.42,1.36-.63,2.07-.63,1.8,0,3.98,.13,6.55,.39,2.44,.32,4.62,.48,6.55,.48h1.54c1.99,0,2.98,.77,2.98,2.31,0,.77-.32,1.4-.96,1.88-.64,.48-1.38,.72-2.21,.72-.58,0-1.41-.1-2.5-.29l-1.92-.39-.1,.48-.1,.48c0,5.71,.54,14.83,1.64,27.34,1.03,11.75,1.54,20.86,1.54,27.34,0,.77-.34,1.44-1.01,2.02-.67,.58-1.43,.87-2.26,.87l-1.73-1.25Z"/>
          <path d="M84.75,87.94c-.71-.45-1.06-1.28-1.06-2.5,0-1.93-.32-5.2-.96-9.82l-.38-2.02-9.53-1.44c-.38,1.48-.93,4.46-1.64,8.95-.38,3.15-1,5.23-1.83,6.26-.45,.58-1.09,.87-1.92,.87-.77,0-1.48-.24-2.12-.72-.64-.48-.96-1.07-.96-1.78l.19-.48,.1-.39c4.24-16.49,7.44-32.76,9.63-48.81,0-.26,.03-.69,.1-1.3,.06-.61,.13-1.49,.19-2.65,.19-2.37,.4-4.27,.63-5.68,.22-1.41,.59-2.47,1.11-3.18h3.27c.9,0,1.67,.21,2.31,.63,.64,.42,.96,1.01,.96,1.78,0,4.88,.67,12.13,2.02,21.76,1.28,9.88,1.93,16.82,1.93,20.8,0,.38,.16,1.38,.48,2.98,.32,1.48,.48,2.44,.48,2.89s.32,2.38,.96,5.78c.58,3.08,.87,5.07,.87,5.97v.1c0,1.41-.51,2.31-1.54,2.7-1.48,0-2.57-.23-3.27-.67Zm-3.37-21.37c0-5.78-.51-13.16-1.54-22.14l-.96-10.01c-2.76,15.08-4.65,26.47-5.68,34.18,.96,.64,3.79,1.16,8.47,1.54-.19-.96-.29-2.15-.29-3.56Z"/>
          <path d="M110.84,84.76c-1.35-3.34-2.34-6.77-2.98-10.3l-.67-3.27c-1.86-9.18-3.05-14.41-3.56-15.69h-1.16c0,1.86-.03,3.56-.1,5.1v5.29c0,8.6,.61,15.31,1.83,20.12l-1.06,2.6h-2.7l-1.25-1.44,.1-6.45c0-5.78-.29-14.54-.87-26.28-.51-12.52-.77-21.28-.77-26.28,0-3.08,1.06-4.62,3.18-4.62,3.47,0,6.31,.9,8.52,2.7,2.21,1.8,3.32,4.3,3.32,7.51v6.74c0,.96-.16,2.07-.48,3.32-.32,1.25-.67,2.26-1.06,3.03l-1.83,3.47-1.54,2.89,.48,2.31,1.35,6.84c.9,4.94,1.76,8.95,2.6,12.03,.83,3.08,1.86,5.87,3.08,8.38l.58,1.16c.64,1.28,.96,2.31,.96,3.08,0,.64-.19,1.2-.58,1.69-.38,.48-.9,.72-1.54,.72-1.41,0-2.7-1.54-3.85-4.62Zm-4.38-39.81c.99-3.18,1.49-6.11,1.49-8.81,0-2.05-.26-3.98-.77-5.78-.32-1.03-.85-1.81-1.59-2.36-.74-.54-1.65-.82-2.74-.82l-.19,.48-.19,.87,.19,11.36c.13,3.34,.19,6.96,.19,10.88,1.41-.71,2.61-2.65,3.61-5.82Z"/>
          <path d="M131.64,86.21l-.1-3.75c-.07-1.09-.1-2.31-.1-3.66l.1-3.27c-.19-.71-.67-7.73-1.44-21.08-.77-13.35-1.22-21.92-1.35-25.71-3.72-.13-6.1-.51-7.12-1.16-.71-.51-1.06-1.09-1.06-1.73,0-.51,.34-.98,1.01-1.4,.67-.42,1.36-.63,2.07-.63,1.8,0,3.98,.13,6.55,.39,2.44,.32,4.62,.48,6.55,.48h1.54c1.99,0,2.98,.77,2.98,2.31,0,.77-.32,1.4-.96,1.88-.64,.48-1.38,.72-2.21,.72-.58,0-1.41-.1-2.5-.29l-1.92-.39-.1,.48-.1,.48c0,5.71,.54,14.83,1.64,27.34,1.03,11.75,1.54,20.86,1.54,27.34,0,.77-.34,1.44-1.01,2.02-.67,.58-1.43,.87-2.26,.87l-1.73-1.25Z"/>
        </g>
      </g>
    </g>
  </g>
</svg>