<?xml version="1.0" encoding="UTF-8"?>
<svg id="Layer_2" data-name="Layer 2" xmlns="http://www.w3.org/2000/svg" width="411.06" height="340.96" xmlns:xlink="http://www.w3.org/1999/xlink" viewBox="0 0 411.06 340.96">
  <defs>
    <style>
      .cls-1 {
        stroke: url(#linear-gradient);
        stroke-width: 8.16px;
      }

      .cls-1, .cls-2, .cls-3, .cls-4, .cls-5, .cls-6 {
        fill: none;
      }

      .cls-1, .cls-3, .cls-4, .cls-6 {
        stroke-linecap: round;
        stroke-linejoin: round;
      }

      .cls-2 {
        stroke: #f7941e;
      }

      .cls-2, .cls-5 {
        stroke-miterlimit: 10;
        stroke-width: 9.47px;
      }

      .cls-3 {
        stroke: #6dcff6;
      }

      .cls-3, .cls-4 {
        stroke-width: 34.29px;
      }

      .cls-4 {
        stroke: #252d80;
      }

      .cls-5 {
        stroke: #f15a29;
      }

      .cls-7 {
        fill: url(#linear-gradient);
      }

      .cls-8 {
        fill: #ffdc0c;
      }

      .cls-6 {
        stroke: #004d9a;
        stroke-width: 16.33px;
      }
    </style>
    <linearGradient id="linear-gradient" x1="121.38" y1="145.28" x2="121.38" y2="265.22" gradientTransform="translate(118.81) skewX(-10.97)" gradientUnits="userSpaceOnUse">
      <stop offset="0" stop-color="#fff"/>
      <stop offset="1" stop-color="#95ffef"/>
    </linearGradient>
  </defs>
  <g id="Layer_1-2" data-name="Layer 1">
    <g>
      <g>
        <path class="cls-8" d="M147.32,76.44s-.76,.69-2.23,2.01c-1.46,1.35-3.68,3.27-6.46,5.91-5.56,5.27-13.59,13.18-22.88,24.06-1.16,1.37-2.35,2.77-3.56,4.2-1.17,1.47-2.37,2.99-3.6,4.53-2.51,3.05-4.89,6.44-7.47,9.89-4.99,7.03-10.09,14.85-14.98,23.52-9.64,17.35-18.9,38.16-23.4,62.19-2.22,11.98-3.14,24.74-2.03,37.76,.63,6.5,1.83,13.03,3.6,19.5,1.92,6.43,4.48,12.74,7.78,18.76,3.28,6.03,7.53,11.63,12.28,16.71,1.26,1.25,2.48,2.7,3.8,3.8,1.3,1.15,2.61,2.3,3.92,3.45,1.41,1.07,2.83,2.14,4.25,3.21,1.41,1.09,2.98,1.96,4.46,2.96,6.09,3.78,12.69,6.85,19.61,9.22,6.96,2.3,14.22,3.86,21.63,4.82,7.41,1.01,14.99,1.18,22.59,.93,7.61-.22,15.26-1.14,22.87-2.46,15.25-2.59,30.36-7.12,45.05-13.01,7.3-3.06,14.58-6.27,21.63-10.01,7.12-3.59,14.05-7.61,20.88-11.82,13.56-8.51,26.6-18.24,38.65-28.72,3-2.75,6.17-5.44,9.06-8.2,2.88-2.77,5.82-5.47,8.6-8.39l4.23-4.31,4.08-4.45c2.77-2.92,5.31-6.03,7.94-9.05,5.12-6.18,10.06-12.48,14.6-19.04,4.67-6.47,8.86-13.23,12.9-20.03,7.86-13.73,14.46-28.06,19.12-42.81,2.36-7.36,4.33-14.8,5.6-22.31,1.31-7.49,2.19-15.03,2.21-22.5,.07-7.47-.46-14.88-1.77-22.08-1.39-7.19-3.51-14.15-6.41-20.7-.78-1.61-1.43-3.28-2.31-4.83-.87-1.56-1.73-3.11-2.59-4.66-.98-1.47-1.95-2.95-2.92-4.42-.93-1.5-2.13-2.8-3.17-4.21-.52-.66-1.12-1.46-1.57-2l-1.82-1.99c-1.22-1.29-2.39-2.72-3.67-3.81-1.26-1.16-2.48-2.35-3.76-3.48-1.35-1.07-2.69-2.15-4.03-3.22-5.51-4.1-11.4-7.51-17.5-10.3-6.16-2.65-12.46-4.75-18.81-6.27-12.73-2.91-25.5-3.77-37.67-3.23-24.43,1.13-46.32,7.4-64.84,14.55-9.27,3.64-17.71,7.61-25.37,11.57-3.77,2.08-7.46,3.97-10.83,6.03-1.7,1-3.37,1.98-4.99,2.94-1.59,1.01-3.14,1.99-4.65,2.95-12.07,7.7-21.01,14.55-27,19.32-3,2.39-5.21,4.33-6.74,5.58-1.52,1.27-2.3,1.93-2.3,1.93Zm0,0s.78-.66,2.29-1.94c1.53-1.26,3.73-3.22,6.72-5.62,5.97-4.81,14.87-11.71,26.91-19.48,12.02-7.76,27.24-16.32,45.69-23.99,18.47-7.5,40.35-14.01,65.01-15.91,12.31-.88,25.31-.36,38.46,2.28,6.56,1.39,13.11,3.37,19.57,5.96,6.4,2.73,12.65,6.12,18.54,10.27,1.44,1.09,2.88,2.17,4.32,3.27,1.41,1.17,2.77,2.43,4.16,3.64,1.45,1.21,2.59,2.53,3.86,3.81l1.87,1.94c.73,.81,1.22,1.45,1.84,2.19,1.15,1.45,2.44,2.81,3.47,4.37,1.07,1.53,2.15,3.07,3.22,4.61,.95,1.62,1.92,3.24,2.88,4.86,.97,1.62,1.72,3.37,2.59,5.06,3.26,6.87,5.71,14.2,7.38,21.76,1.59,7.59,2.36,15.39,2.49,23.25,.18,7.87-.53,15.78-1.69,23.66-1.13,7.89-2.97,15.71-5.22,23.44-4.53,15.47-11.2,30.41-19.09,44.76-15.93,28.63-37.85,54.37-62.64,76.17-12.69,10.93-26.02,20.74-40.1,29.49-14.06,8.72-28.88,16.12-44.14,22.07-15.3,5.82-31.02,10.37-46.97,12.69-7.96,1.16-15.96,1.9-23.93,1.93-7.95,.06-15.89-.33-23.66-1.6-7.77-1.22-15.38-3.07-22.67-5.69-7.26-2.7-14.18-6.14-20.53-10.32-1.55-1.1-3.18-2.08-4.65-3.27-1.48-1.18-2.95-2.35-4.42-3.52-1.39-1.3-2.78-2.59-4.17-3.88-1.43-1.28-2.5-2.65-3.77-3.97-4.95-5.57-9.21-11.54-12.49-17.97-3.29-6.4-5.78-13.06-7.6-19.78-1.66-6.76-2.72-13.52-3.19-20.21-.79-13.38,.5-26.33,3.07-38.39,5.31-24.16,14.78-44.93,24.76-62.18,10.15-17.21,20.73-31.1,30.09-41.93,9.36-10.84,17.44-18.7,23.03-23.95,2.8-2.63,5.03-4.53,6.5-5.87,1.47-1.32,2.24-2,2.24-2Z"/>
        <g>
          <g>
            <path class="cls-5" d="M74.61,123.27V59.75h9.07v54.45h36.3v9.07h-45.37Z"/>
            <path class="cls-5" d="M131.16,123.27v-4.54h-4.54v-4.54h-4.54v-31.76h4.54v-4.54h4.54v-4.54h27.22v4.54h4.54v4.54h4.54v31.76h-4.54v4.54h-4.54v4.54h-27.22Zm4.54-9.07h18.15v-4.54h4.54v-22.69h-4.54v-4.54h-18.15v4.54h-4.54v22.69h4.54v4.54Z"/>
            <path class="cls-5" d="M174.1,114.2h-4.54v-9.07h9.07v4.54h4.54v4.54h18.15v-9.07h-9.07v-4.54h-9.07v-4.54h-9.07v-4.54h-4.54v-9.07h4.54v-4.54h4.54v-4.54h27.22v4.54h4.54v4.54h4.54v9.07h-9.07v-4.54h-4.54v-4.54h-18.15v9.07h13.61v4.54h9.07v4.54h4.54v4.54h4.54v9.07h-4.54v4.54h-4.54v4.54h-27.22v-4.54h-4.54v-4.54Z"/>
            <path class="cls-5" d="M248.8,114.2h4.54v9.07h-9.07v-4.54h-4.54v-4.54h-4.54v-31.76h-9.07v-9.07h9.07v-13.61h9.07v13.61h9.07v9.07h-9.07v27.22h4.54v4.54Z"/>
            <path class="cls-5" d="M315.62,114.2h4.54v9.07h-9.07v-4.54h-4.54v-4.54h-4.54v-22.69h-9.07v-9.07h18.15v27.22h4.54v4.54Zm-4.54-49.91v9.07h-9.07v-9.07h9.07Z"/>
            <path class="cls-5" d="M340.41,86.97v36.3h-9.07v-49.91h9.07v4.54h4.54v-4.54h22.69v4.54h4.54v4.54h4.54v40.83h-9.07v-36.3h-4.54v-4.54h-18.15v4.54h-4.54Z"/>
          </g>
          <g>
            <path class="cls-2" d="M74.61,117.59V54.07h9.07v54.45h36.3v9.07h-45.37Z"/>
            <path class="cls-2" d="M131.16,117.59v-4.54h-4.54v-4.54h-4.54v-31.76h4.54v-4.54h4.54v-4.54h27.22v4.54h4.54v4.54h4.54v31.76h-4.54v4.54h-4.54v4.54h-27.22Zm4.54-9.07h18.15v-4.54h4.54v-22.69h-4.54v-4.54h-18.15v4.54h-4.54v22.69h4.54v4.54Z"/>
            <path class="cls-2" d="M174.1,108.52h-4.54v-9.07h9.07v4.54h4.54v4.54h18.15v-9.07h-9.07v-4.54h-9.07v-4.54h-9.07v-4.54h-4.54v-9.07h4.54v-4.54h4.54v-4.54h27.22v4.54h4.54v4.54h4.54v9.07h-9.07v-4.54h-4.54v-4.54h-18.15v9.07h13.61v4.54h9.07v4.54h4.54v4.54h4.54v9.07h-4.54v4.54h-4.54v4.54h-27.22v-4.54h-4.54v-4.54Z"/>
            <path class="cls-2" d="M248.8,108.52h4.54v9.07h-9.07v-4.54h-4.54v-4.54h-4.54v-31.76h-9.07v-9.07h9.07v-13.61h9.07v13.61h9.07v9.07h-9.07v27.22h4.54v4.54Z"/>
            <path class="cls-2" d="M315.62,108.52h4.54v9.07h-9.07v-4.54h-4.54v-4.54h-4.54v-22.69h-9.07v-9.07h18.15v27.22h4.54v4.54Zm-4.54-49.91v9.07h-9.07v-9.07h9.07Z"/>
            <path class="cls-2" d="M340.41,81.29v36.3h-9.07v-49.91h9.07v4.54h4.54v-4.54h22.69v4.54h4.54v4.54h4.54v40.83h-9.07v-36.3h-4.54v-4.54h-18.15v4.54h-4.54Z"/>
          </g>
          <g>
            <path class="cls-8" d="M74.61,117.59V54.07h9.07v54.45h36.3v9.07h-45.37Z"/>
            <path class="cls-8" d="M131.16,117.59v-4.54h-4.54v-4.54h-4.54v-31.76h4.54v-4.54h4.54v-4.54h27.22v4.54h4.54v4.54h4.54v31.76h-4.54v4.54h-4.54v4.54h-27.22Zm4.54-9.07h18.15v-4.54h4.54v-22.69h-4.54v-4.54h-18.15v4.54h-4.54v22.69h4.54v4.54Z"/>
            <path class="cls-8" d="M174.1,108.52h-4.54v-9.07h9.07v4.54h4.54v4.54h18.15v-9.07h-9.07v-4.54h-9.07v-4.54h-9.07v-4.54h-4.54v-9.07h4.54v-4.54h4.54v-4.54h27.22v4.54h4.54v4.54h4.54v9.07h-9.07v-4.54h-4.54v-4.54h-18.15v9.07h13.61v4.54h9.07v4.54h4.54v4.54h4.54v9.07h-4.54v4.54h-4.54v4.54h-27.22v-4.54h-4.54v-4.54Z"/>
            <path class="cls-8" d="M248.8,108.52h4.54v9.07h-9.07v-4.54h-4.54v-4.54h-4.54v-31.76h-9.07v-9.07h9.07v-13.61h9.07v13.61h9.07v9.07h-9.07v27.22h4.54v4.54Z"/>
            <path class="cls-8" d="M315.62,108.52h4.54v9.07h-9.07v-4.54h-4.54v-4.54h-4.54v-22.69h-9.07v-9.07h18.15v27.22h4.54v4.54Zm-4.54-49.91v9.07h-9.07v-9.07h9.07Z"/>
            <path class="cls-8" d="M340.41,81.29v36.3h-9.07v-49.91h9.07v4.54h4.54v-4.54h22.69v4.54h4.54v4.54h4.54v40.83h-9.07v-36.3h-4.54v-4.54h-18.15v4.54h-4.54Z"/>
          </g>
        </g>
        <g>
          <g>
            <path class="cls-4" d="M58.27,269.82c-.36-.76-.43-1.69-.21-2.81l2.62-13.51,2.62-13.51,4.4-24.29c1.79-10.83,3.21-18.93,4.25-24.29l1.01-4.4,1.91-9.87c2.12-10.93,3.08-16.4,2.87-16.4h-17.16c-.81,0-1.5-.2-2.08-.61-.58-.4-.8-.96-.66-1.67,.16-.81,.42-1.37,.78-1.67,.36-.3,1.22-.56,2.58-.76,1.48-.3,3.53-.46,6.16-.46h15.18l16.73-.15c1.21,0,2.01,.2,2.39,.61,.38,.41,.48,1.06,.3,1.97-.29,1.52-1.4,2.28-3.33,2.28h-13.51l-1.4,.15-1.55,8.81-2.29,11.84-11.95,61.64-2.44,12.6-2.03,11.24-.06,.3c-.16,.81-.34,1.5-.55,2.05-.21,.56-.5,.99-.86,1.29-.4,.5-.96,.76-1.67,.76-1.01,0-1.7-.38-2.06-1.14Z"/>
            <path class="cls-4" d="M115.28,270.2c3.12-18.72,5.5-32.29,7.13-40.69l-.34-.61,.87-1.37c.35-1.82,.51-3.69,.48-5.62l-2.16-.61c-.97,.3-2.01,.46-3.12,.46-.81,0-2.43-.25-4.86-.76-1.62-.5-3.14-.76-4.56-.76l-1.79,.61c-.69,3.54-1.36,6.73-2.01,9.57-.65,2.83-1.32,6.02-2.01,9.56l.19,.61c-.55,2.83-1.22,7.09-2.02,12.75-.78,5.57-1.44,9.77-1.99,12.6-.22,1.12-.6,2.05-1.15,2.81-.55,.76-1.23,1.14-2.04,1.14-2.23,0-2.75-3.04-1.58-9.11,1-5.16,1.95-9.82,2.86-13.97l2.83-13.82c1.78-9.21,2.59-14.17,2.43-14.88,.7-1.01,1.6-4.35,2.7-10.02,.94-4.86,1.88-10.78,2.83-17.76l.84-5.92,1.99-11.84c.14-.71,.52-1.37,1.14-1.97,.62-.61,1.29-.91,2-.91,2.02,0,2.47,2.94,1.33,8.81-1.33,6.88-2.59,13.11-3.77,18.67-1.28,5.57-2.57,11.69-3.86,18.37-.24,1.21,3.49,1.82,11.19,1.82h.61c1.92,0,3.39-.38,4.4-1.14,1.01-.76,1.69-2.05,2.04-3.87,1.04-5.36,2.04-12.35,3-20.95,1.2-9.31,2.25-16.3,3.15-20.95,.12-.61,.47-1.14,1.07-1.59,.59-.46,1.25-.68,1.95-.68l1.28,.46c.69,.1,1.11,.25,1.28,.46-1.53,7.9-3.51,19.69-5.94,35.38-2.45,15.79-4.44,27.63-5.97,35.53-2.31,11.95-3.9,21.97-4.76,30.06l-1.39,1.67c.2-1.01-1.22-1.52-4.26-1.52Zm5.64-54.96l.25,.3h-.3l.06-.3Z"/>
            <path class="cls-4" d="M139.99,268.83l.38-1.97c.2-.5,.37-1.11,.5-1.82l-.49-.61c1.22-2.13,2.03-4.2,2.42-6.23,.45-2.33,.95-5.67,1.49-10.02l1.64-10.02c.98-5.06,2.6-12.65,4.87-22.77,2.15-9.01,3.83-16.65,5.05-22.93l1.46-9.11c.33-2.73,.81-5.77,1.46-9.11,.29-1.52,.86-2.6,1.7-3.26,.83-.66,2.01-.99,3.53-.99,1.01,0,1.76,.3,2.25,.91,.18,.1,1.61,.3,4.29,.61,2.47,.3,4.56,.76,6.26,1.37,1.8,.61,2.62,1.37,2.44,2.28-.2,1.01-1.36,2.03-3.47,3.04-5.4-1.92-9.31-2.88-11.74-2.88l-.94,.91c-.08,.91-.45,3.09-1.11,6.53-.84,4.35-1.7,8.25-2.57,11.69-.79,3.54-1.6,7.49-2.45,11.84-.55,2.83-.12,4.25,1.3,4.25l2.46-.15c.83-.1,1.7-.15,2.61-.15,3.95,0,5.75,.91,5.39,2.73-.22,1.12-.65,2.05-1.3,2.81-.65,.76-1.49,1.14-2.5,1.14-1.52,0-2.6-.4-3.26-1.21l-4.71-.76h-.76l-.91,.76-.09,.46c-.13,1.72-.8,5.72-2.02,12-.76,3.95-1.51,7.54-2.24,10.78l-2.24,10.78c-.77,3.95-1.4,8-1.9,12.15-.35,2.33-.14,3.87,.62,4.63,.76,.76,2.36,1.14,4.79,1.14l2.76-.15c.93-.1,1.95-.15,3.07-.15,2.93,0,4.28,.66,4.02,1.97-.35,1.82-2.76,2.73-7.21,2.73h-12.45c-1.82,0-2.63-1.06-2.42-3.19Z"/>
            <path class="cls-4" d="M201.94,273.16c-.93-.15-1.91-.48-2.92-.99-1.1-.61-1.84-1.47-2.23-2.58,.24-1.21,.91-1.82,2.02-1.82s2.46,.36,4.05,1.06c1.46,.81,2.75,1.21,3.86,1.21,2.22,0,4.45-.91,6.68-2.73,2.23-1.82,4.13-4.2,5.71-7.14,3.14-5.77,5.15-10.88,6.01-15.33,.96-4.96,1.22-9.97,.79-15.03-.44-5.06-1.39-9.82-2.85-14.27-.29-1.11-.83-2.78-1.61-5.01-1.55-5.06-2.71-9.01-3.47-11.84-.77-2.83-1.33-5.97-1.67-9.41-.54-4.55-.29-9.46,.73-14.73,.65-3.34,1.8-6.55,3.46-9.64,1.66-3.09,3.87-5.74,6.63-7.97,2.98-2.33,6.04-3.49,9.18-3.49,1.21,0,2.59,.48,4.12,1.44,1.53,.96,2.21,1.9,2.04,2.81-.16,.81-.54,1.21-1.15,1.21s-1.37-.25-2.28-.76c-.81-.51-1.62-.76-2.43-.76-2.33,0-4.55,.86-6.65,2.58-2.11,1.72-3.81,3.85-5.11,6.38-1.12,2.13-1.93,4.46-2.42,6.98-.76,3.95-1.05,8.02-.85,12.22,.2,4.2,.8,8.12,1.82,11.77l3.17,11.08,.9,3.19c1.28,4.35,2.23,7.95,2.85,10.78,.61,2.83,.98,6.02,1.11,9.57,.19,4.76-.13,9.31-.98,13.66-1.14,5.87-3.81,11.84-8.03,17.92-2.09,2.94-4.57,5.31-7.46,7.14-2.88,1.82-5.84,2.73-8.88,2.73-1.82,0-3.2-.08-4.13-.23Z"/>
            <path class="cls-4" d="M254.34,267.92l.94-5.62c.21-1.62,.52-3.44,.91-5.47,.2-1.01,.41-1.87,.65-2.58l.68-2.73c.2-1.01,.23-2.23,.1-3.64,1.31-6.78,3.25-19.38,5.81-37.81,2.44-17.81,4.23-29.91,5.36-36.29-6.28,0-10.45-.15-12.51-.46-1.93-.51-2.78-1.31-2.57-2.43,.72-1.11,1.79-1.67,3.21-1.67,3.04,0,7.4,.2,13.09,.61,5.16,.51,9.52,.76,13.06,.76h3.19l3.22-.15c1.82,0,2.61,.66,2.35,1.97-.12,.61-.54,1.09-1.27,1.44-.73,.36-1.55,.53-2.46,.53-2.03,0-4.13-.1-6.32-.3l-6.47-.3c-.41,0-.64,.15-.7,.46-.16,.3-.4,1.27-.71,2.88-1.9,9.82-4.18,24.7-6.83,44.64-2.89,20.65-5.2,35.48-6.95,44.49-.14,.71-.7,1.37-1.67,1.97-.98,.61-1.87,.91-2.68,.91l-1.43-1.21Z"/>
            <path class="cls-4" d="M313.59,270.88c-.34-.36-.46-1.29-.37-2.81,.52-7.39,.86-11.99,1.01-13.82l.42-6.07c-2.13-.5-4.61-.76-7.44-.76l-5.41-.3c-2.37-.3-4.11-.46-5.22-.46-.61,0-1.01,.25-1.21,.76-.06,.3-.14,.46-.24,.46l-.89,3.04c-.46,1.82-1.72,5.47-3.79,10.93-1.04,2.73-2.06,4.86-3.06,6.38-1.14,1.72-2.07,2.58-2.78,2.58-.61,0-1.21-.28-1.81-.83-.6-.55-.84-1.14-.72-1.75l.24-.46,.24-.46c3.21-7.19,6.12-14.32,8.7-21.41l3.65-9.41,4.06-11.54,3.61-10.02c1.04-2.73,2.8-7.14,5.29-13.21,2.75-6.88,4.52-11.59,5.32-14.12,.16-.3,.73-2.18,1.7-5.62,1.15-3.85,2.05-6.68,2.71-8.5,.81-2.63,1.41-4.15,1.79-4.56h1.06c.28,.1,.63,.15,1.03,.15,1.21,0,2.18-.3,2.91-.91,.71,0,1.3,.23,1.77,.68,.47,.46,.64,.99,.53,1.59-.94,4.86-1.67,10.43-2.17,16.7-.22,3.24-.44,5.92-.65,8.05-1.42,13.06-3.33,37.55-5.74,73.49l-.09,.46c-.2,1.01-.75,1.77-1.65,2.28-1.52,0-2.45-.18-2.78-.53Zm1.09-26.8c1.81-14.58,4.05-36.08,6.73-64.53l-16.05,40.54c-4.58,11.64-7.17,18.98-7.76,22.02-.1,.51,1.74,.96,5.5,1.37,3.77,.41,7.12,.61,10.06,.61h1.52Z"/>
            <path class="cls-4" d="M354.85,271.87c-.96-1.32-1.6-4.81-1.92-10.48-.32-5.67-.4-12.04-.24-19.13,.31-5.77,.25-11.49-.17-17.16-.23-5.06-.91-7.59-2.02-7.59h-.46c-2.23,0-3.48,.71-3.75,2.13-1.41,7.29-3.16,18.37-5.23,33.25-1.36,9.11-1.94,14.42-1.72,15.94l-1.71,2.58h-2.13l-.98-1.21c7.44-46.76,12.81-78.65,16.11-95.65,.21-1.11,.47-2.02,.76-2.73,.29-.71,.74-1.37,1.37-1.97,.54-.71,1.32-1.06,2.33-1.06,5.16,0,9.07,1.27,11.71,3.8,2.65,2.53,3.51,6.17,2.59,10.93l-2.15,11.08c-.37,1.92-1.51,4.5-3.4,7.74-1.89,3.24-3.86,6.22-5.91,8.96l-2.71,3.8c.11,5.16,.51,14.45,1.21,27.86,.69,13.41,1.11,20.52,1.26,21.33,.08,.1,.16,.36,.23,.76,.07,.41,.28,1.01,.63,1.82,.43,1.42,.55,2.63,.36,3.64-.27,1.42-.97,2.13-2.08,2.13l-1.98-.76Zm-.93-61.04c1.89-1.92,3.58-4.4,5.08-7.44,2.81-6.17,4.58-11.08,5.28-14.73,.45-2.33,.7-4.25,.74-5.77,.04-1.52-.07-3.14-.35-4.86-.53-3.54-3.07-5.31-7.62-5.31-.51,0-1,.43-1.46,1.29-.47,.86-.79,1.75-.97,2.66-1.31,6.78-2.4,12.91-3.26,18.37-.96,5.46-2.09,11.59-3.41,18.37l.24,.3c1.92,0,3.83-.96,5.72-2.88Z"/>
          </g>
          <g>
            <path class="cls-3" d="M50.11,261.66c-.36-.76-.43-1.69-.21-2.81l2.62-13.51,2.62-13.51,4.4-24.29c1.79-10.83,3.21-18.93,4.25-24.29l1.01-4.4,1.91-9.87c2.12-10.93,3.08-16.4,2.87-16.4h-17.16c-.81,0-1.5-.2-2.08-.61-.58-.4-.8-.96-.66-1.67,.16-.81,.42-1.37,.78-1.67,.36-.3,1.22-.56,2.58-.76,1.48-.3,3.53-.46,6.16-.46h15.18l16.73-.15c1.21,0,2.01,.2,2.39,.61,.38,.41,.48,1.06,.3,1.97-.29,1.52-1.4,2.28-3.33,2.28h-13.51l-1.4,.15-1.55,8.81-2.29,11.84-11.95,61.64-2.44,12.6-2.03,11.24-.06,.3c-.16,.81-.34,1.5-.55,2.05-.21,.56-.5,.99-.86,1.29-.4,.51-.96,.76-1.67,.76-1.01,0-1.7-.38-2.06-1.14Z"/>
            <path class="cls-3" d="M107.12,262.04c3.12-18.72,5.5-32.29,7.13-40.69l-.34-.61,.87-1.37c.35-1.82,.51-3.69,.48-5.62l-2.16-.61c-.97,.3-2.01,.46-3.12,.46-.81,0-2.43-.25-4.86-.76-1.62-.5-3.14-.76-4.56-.76l-1.79,.61c-.69,3.54-1.36,6.73-2.01,9.57-.65,2.83-1.32,6.02-2.01,9.57l.19,.61c-.55,2.83-1.22,7.09-2.02,12.75-.78,5.57-1.44,9.77-1.99,12.6-.22,1.12-.6,2.05-1.15,2.81-.55,.76-1.23,1.14-2.04,1.14-2.23,0-2.75-3.04-1.58-9.11,1-5.16,1.95-9.82,2.86-13.97l2.83-13.82c1.78-9.21,2.59-14.17,2.43-14.88,.7-1.01,1.6-4.35,2.7-10.02,.94-4.86,1.88-10.78,2.83-17.76l.84-5.92,1.99-11.84c.14-.71,.52-1.37,1.14-1.97,.62-.61,1.29-.91,2-.91,2.02,0,2.47,2.94,1.33,8.81-1.33,6.88-2.59,13.11-3.77,18.68-1.28,5.57-2.57,11.69-3.86,18.37-.24,1.21,3.49,1.82,11.19,1.82h.61c1.92,0,3.39-.38,4.4-1.14,1.01-.76,1.69-2.05,2.04-3.87,1.04-5.36,2.04-12.35,3-20.95,1.2-9.31,2.25-16.3,3.15-20.95,.12-.61,.47-1.14,1.07-1.59,.59-.46,1.25-.68,1.95-.68l1.28,.46c.69,.1,1.11,.25,1.28,.46-1.53,7.9-3.51,19.69-5.94,35.38-2.45,15.79-4.44,27.63-5.97,35.53-2.31,11.94-3.9,21.97-4.76,30.06l-1.39,1.67c.2-1.01-1.22-1.52-4.26-1.52Zm5.64-54.96l.25,.3h-.3l.06-.3Z"/>
            <path class="cls-3" d="M131.83,260.67l.38-1.97c.2-.5,.37-1.11,.5-1.82l-.49-.61c1.22-2.12,2.03-4.2,2.42-6.22,.45-2.33,.95-5.67,1.49-10.02l1.64-10.02c.98-5.06,2.6-12.65,4.87-22.78,2.15-9.01,3.83-16.65,5.05-22.93l1.46-9.11c.33-2.73,.81-5.77,1.46-9.11,.29-1.52,.86-2.6,1.7-3.26,.83-.66,2.01-.99,3.53-.99,1.01,0,1.76,.3,2.25,.91,.18,.1,1.61,.3,4.29,.61,2.47,.3,4.56,.76,6.26,1.37,1.8,.61,2.62,1.37,2.44,2.28-.2,1.01-1.36,2.03-3.47,3.04-5.4-1.92-9.31-2.88-11.74-2.88l-.94,.91c-.08,.91-.45,3.09-1.11,6.53-.84,4.35-1.7,8.25-2.57,11.69-.79,3.54-1.6,7.49-2.45,11.84-.55,2.83-.12,4.25,1.3,4.25l2.46-.15c.83-.1,1.7-.15,2.61-.15,3.95,0,5.75,.91,5.39,2.73-.22,1.11-.65,2.05-1.3,2.81-.65,.76-1.49,1.14-2.5,1.14-1.52,0-2.6-.4-3.26-1.21l-4.71-.76h-.76l-.91,.76-.09,.46c-.13,1.72-.8,5.72-2.02,11.99-.76,3.95-1.51,7.54-2.24,10.78l-2.24,10.78c-.77,3.95-1.4,8-1.9,12.15-.35,2.33-.14,3.87,.62,4.63,.76,.76,2.36,1.14,4.79,1.14l2.76-.15c.93-.1,1.95-.15,3.07-.15,2.93,0,4.28,.66,4.02,1.97-.35,1.82-2.76,2.73-7.21,2.73h-12.45c-1.82,0-2.63-1.06-2.42-3.19Z"/>
            <path class="cls-3" d="M193.77,265c-.93-.15-1.91-.48-2.92-.99-1.1-.61-1.84-1.47-2.23-2.58,.24-1.21,.91-1.82,2.02-1.82s2.46,.36,4.05,1.06c1.46,.81,2.75,1.21,3.86,1.21,2.22,0,4.45-.91,6.68-2.73,2.23-1.82,4.13-4.2,5.71-7.14,3.14-5.77,5.15-10.88,6.01-15.33,.96-4.96,1.22-9.97,.79-15.03-.44-5.06-1.39-9.82-2.85-14.27-.29-1.11-.83-2.78-1.61-5.01-1.55-5.06-2.71-9.01-3.47-11.84-.77-2.83-1.33-5.97-1.67-9.41-.54-4.55-.29-9.46,.73-14.73,.65-3.34,1.8-6.55,3.46-9.64,1.66-3.09,3.87-5.74,6.63-7.97,2.98-2.33,6.04-3.49,9.18-3.49,1.21,0,2.59,.48,4.12,1.44,1.53,.96,2.21,1.9,2.04,2.81-.16,.81-.54,1.21-1.15,1.21s-1.37-.25-2.28-.76c-.81-.51-1.62-.76-2.43-.76-2.33,0-4.55,.86-6.65,2.58-2.11,1.72-3.81,3.85-5.11,6.38-1.12,2.13-1.93,4.46-2.42,6.98-.76,3.95-1.05,8.02-.85,12.22,.2,4.2,.8,8.12,1.82,11.77l3.17,11.08,.9,3.19c1.28,4.35,2.23,7.95,2.85,10.78,.61,2.83,.98,6.02,1.11,9.57,.19,4.76-.13,9.31-.98,13.67-1.14,5.87-3.81,11.84-8.03,17.92-2.09,2.94-4.57,5.31-7.46,7.14-2.88,1.82-5.84,2.73-8.88,2.73-1.82,0-3.2-.08-4.13-.23Z"/>
            <path class="cls-3" d="M246.18,259.76l.94-5.62c.21-1.62,.52-3.44,.91-5.47,.2-1.01,.41-1.87,.65-2.58l.68-2.73c.2-1.01,.23-2.23,.1-3.64,1.31-6.78,3.25-19.38,5.81-37.81,2.44-17.81,4.23-29.91,5.36-36.29-6.28,0-10.45-.15-12.51-.46-1.93-.51-2.78-1.31-2.57-2.43,.72-1.11,1.79-1.67,3.21-1.67,3.04,0,7.4,.2,13.09,.61,5.16,.51,9.52,.76,13.06,.76h3.19l3.22-.15c1.82,0,2.61,.66,2.35,1.97-.12,.61-.54,1.09-1.27,1.44-.73,.36-1.55,.53-2.46,.53-2.03,0-4.13-.1-6.32-.3l-6.47-.3c-.41,0-.64,.15-.7,.46-.16,.3-.4,1.27-.71,2.88-1.9,9.82-4.18,24.7-6.83,44.64-2.89,20.65-5.2,35.48-6.95,44.49-.14,.71-.7,1.37-1.67,1.97-.98,.61-1.87,.91-2.68,.91l-1.43-1.21Z"/>
            <path class="cls-3" d="M305.43,262.72c-.34-.36-.46-1.29-.37-2.81,.52-7.39,.86-12,1.01-13.82l.42-6.07c-2.13-.51-4.61-.76-7.44-.76l-5.41-.3c-2.37-.3-4.11-.46-5.22-.46-.61,0-1.01,.25-1.21,.76-.06,.3-.14,.46-.24,.46l-.89,3.04c-.46,1.82-1.72,5.47-3.79,10.93-1.04,2.73-2.06,4.86-3.06,6.38-1.14,1.72-2.07,2.58-2.78,2.58-.61,0-1.21-.28-1.81-.83-.6-.56-.84-1.14-.72-1.75l.24-.46,.24-.46c3.21-7.19,6.12-14.32,8.7-21.41l3.65-9.41,4.06-11.54,3.61-10.02c1.04-2.73,2.8-7.14,5.29-13.21,2.75-6.88,4.52-11.59,5.32-14.12,.16-.3,.73-2.18,1.7-5.62,1.15-3.85,2.05-6.68,2.71-8.5,.81-2.63,1.41-4.15,1.79-4.56h1.06c.28,.1,.63,.15,1.03,.15,1.21,0,2.18-.3,2.91-.91,.71,0,1.3,.23,1.77,.68,.47,.46,.64,.99,.53,1.59-.94,4.86-1.67,10.43-2.17,16.7-.22,3.24-.44,5.92-.65,8.05-1.42,13.06-3.33,37.55-5.74,73.49l-.09,.46c-.2,1.01-.75,1.77-1.65,2.28-1.52,0-2.45-.18-2.78-.53Zm1.09-26.8c1.81-14.58,4.05-36.08,6.73-64.53l-16.05,40.54c-4.58,11.64-7.17,18.98-7.76,22.01-.1,.51,1.74,.96,5.5,1.37,3.77,.41,7.12,.61,10.06,.61h1.52Z"/>
            <path class="cls-3" d="M346.68,263.71c-.96-1.32-1.6-4.81-1.92-10.48-.32-5.67-.4-12.04-.24-19.13,.31-5.77,.25-11.49-.17-17.16-.23-5.06-.91-7.59-2.02-7.59h-.46c-2.23,0-3.48,.71-3.75,2.12-1.41,7.29-3.16,18.37-5.23,33.25-1.36,9.11-1.94,14.42-1.72,15.94l-1.71,2.58h-2.13l-.98-1.21c7.44-46.76,12.81-78.65,16.11-95.65,.21-1.11,.47-2.02,.76-2.73,.29-.71,.74-1.37,1.37-1.97,.54-.71,1.32-1.06,2.33-1.06,5.16,0,9.07,1.27,11.71,3.8,2.65,2.53,3.51,6.17,2.59,10.93l-2.15,11.08c-.37,1.92-1.51,4.5-3.4,7.74-1.89,3.24-3.86,6.23-5.91,8.96l-2.71,3.79c.11,5.16,.51,14.45,1.21,27.86,.69,13.41,1.11,20.52,1.26,21.33,.08,.1,.16,.36,.23,.76,.07,.41,.28,1.01,.63,1.82,.43,1.42,.55,2.63,.36,3.64-.27,1.42-.97,2.12-2.08,2.12l-1.98-.76Zm-.93-61.04c1.89-1.92,3.58-4.4,5.08-7.44,2.81-6.17,4.58-11.08,5.28-14.73,.45-2.33,.7-4.25,.74-5.77,.04-1.52-.07-3.14-.35-4.86-.53-3.54-3.07-5.31-7.62-5.31-.51,0-1,.43-1.46,1.29-.47,.86-.79,1.75-.97,2.66-1.31,6.78-2.4,12.91-3.26,18.37-.96,5.47-2.09,11.59-3.41,18.37l.24,.3c1.92,0,3.83-.96,5.72-2.88Z"/>
          </g>
          <g>
            <path class="cls-6" d="M50.11,261.66c-.36-.76-.43-1.69-.21-2.81l2.62-13.51,2.62-13.51,4.4-24.29c1.79-10.83,3.21-18.93,4.25-24.29l1.01-4.4,1.91-9.87c2.12-10.93,3.08-16.4,2.87-16.4h-17.16c-.81,0-1.5-.2-2.08-.61-.58-.4-.8-.96-.66-1.67,.16-.81,.42-1.37,.78-1.67,.36-.3,1.22-.56,2.58-.76,1.48-.3,3.53-.46,6.16-.46h15.18l16.73-.15c1.21,0,2.01,.2,2.39,.61,.38,.41,.48,1.06,.3,1.97-.29,1.52-1.4,2.28-3.33,2.28h-13.51l-1.4,.15-1.55,8.81-2.29,11.84-11.95,61.64-2.44,12.6-2.03,11.24-.06,.3c-.16,.81-.34,1.5-.55,2.05-.21,.56-.5,.99-.86,1.29-.4,.51-.96,.76-1.67,.76-1.01,0-1.7-.38-2.06-1.14Z"/>
            <path class="cls-6" d="M107.12,262.04c3.12-18.72,5.5-32.29,7.13-40.69l-.34-.61,.87-1.37c.35-1.82,.51-3.69,.48-5.62l-2.16-.61c-.97,.3-2.01,.46-3.12,.46-.81,0-2.43-.25-4.86-.76-1.62-.5-3.14-.76-4.56-.76l-1.79,.61c-.69,3.54-1.36,6.73-2.01,9.57-.65,2.83-1.32,6.02-2.01,9.57l.19,.61c-.55,2.83-1.22,7.09-2.02,12.75-.78,5.57-1.44,9.77-1.99,12.6-.22,1.12-.6,2.05-1.15,2.81-.55,.76-1.23,1.14-2.04,1.14-2.23,0-2.75-3.04-1.58-9.11,1-5.16,1.95-9.82,2.86-13.97l2.83-13.82c1.78-9.21,2.59-14.17,2.43-14.88,.7-1.01,1.6-4.35,2.7-10.02,.94-4.86,1.88-10.78,2.83-17.76l.84-5.92,1.99-11.84c.14-.71,.52-1.37,1.14-1.97,.62-.61,1.29-.91,2-.91,2.02,0,2.47,2.94,1.33,8.81-1.33,6.88-2.59,13.11-3.77,18.68-1.28,5.57-2.57,11.69-3.86,18.37-.24,1.21,3.49,1.82,11.19,1.82h.61c1.92,0,3.39-.38,4.4-1.14,1.01-.76,1.69-2.05,2.04-3.87,1.04-5.36,2.04-12.35,3-20.95,1.2-9.31,2.25-16.3,3.15-20.95,.12-.61,.47-1.14,1.07-1.59,.59-.46,1.25-.68,1.95-.68l1.28,.46c.69,.1,1.11,.25,1.28,.46-1.53,7.9-3.51,19.69-5.94,35.38-2.45,15.79-4.44,27.63-5.97,35.53-2.31,11.94-3.9,21.97-4.76,30.06l-1.39,1.67c.2-1.01-1.22-1.52-4.26-1.52Zm5.64-54.96l.25,.3h-.3l.06-.3Z"/>
            <path class="cls-6" d="M131.83,260.67l.38-1.97c.2-.5,.37-1.11,.5-1.82l-.49-.61c1.22-2.12,2.03-4.2,2.42-6.22,.45-2.33,.95-5.67,1.49-10.02l1.64-10.02c.98-5.06,2.6-12.65,4.87-22.78,2.15-9.01,3.83-16.65,5.05-22.93l1.46-9.11c.33-2.73,.81-5.77,1.46-9.11,.29-1.52,.86-2.6,1.7-3.26,.83-.66,2.01-.99,3.53-.99,1.01,0,1.76,.3,2.25,.91,.18,.1,1.61,.3,4.29,.61,2.47,.3,4.56,.76,6.26,1.37,1.8,.61,2.62,1.37,2.44,2.28-.2,1.01-1.36,2.03-3.47,3.04-5.4-1.92-9.31-2.88-11.74-2.88l-.94,.91c-.08,.91-.45,3.09-1.11,6.53-.84,4.35-1.7,8.25-2.57,11.69-.79,3.54-1.6,7.49-2.45,11.84-.55,2.83-.12,4.25,1.3,4.25l2.46-.15c.83-.1,1.7-.15,2.61-.15,3.95,0,5.75,.91,5.39,2.73-.22,1.11-.65,2.05-1.3,2.81-.65,.76-1.49,1.14-2.5,1.14-1.52,0-2.6-.4-3.26-1.21l-4.71-.76h-.76l-.91,.76-.09,.46c-.13,1.72-.8,5.72-2.02,11.99-.76,3.95-1.51,7.54-2.24,10.78l-2.24,10.78c-.77,3.95-1.4,8-1.9,12.15-.35,2.33-.14,3.87,.62,4.63,.76,.76,2.36,1.14,4.79,1.14l2.76-.15c.93-.1,1.95-.15,3.07-.15,2.93,0,4.28,.66,4.02,1.97-.35,1.82-2.76,2.73-7.21,2.73h-12.45c-1.82,0-2.63-1.06-2.42-3.19Z"/>
            <path class="cls-6" d="M193.77,265c-.93-.15-1.91-.48-2.92-.99-1.1-.61-1.84-1.47-2.23-2.58,.24-1.21,.91-1.82,2.02-1.82s2.46,.36,4.05,1.06c1.46,.81,2.75,1.21,3.86,1.21,2.22,0,4.45-.91,6.68-2.73,2.23-1.82,4.13-4.2,5.71-7.14,3.14-5.77,5.15-10.88,6.01-15.33,.96-4.96,1.22-9.97,.79-15.03-.44-5.06-1.39-9.82-2.85-14.27-.29-1.11-.83-2.78-1.61-5.01-1.55-5.06-2.71-9.01-3.47-11.84-.77-2.83-1.33-5.97-1.67-9.41-.54-4.55-.29-9.46,.73-14.73,.65-3.34,1.8-6.55,3.46-9.64,1.66-3.09,3.87-5.74,6.63-7.97,2.98-2.33,6.04-3.49,9.18-3.49,1.21,0,2.59,.48,4.12,1.44,1.53,.96,2.21,1.9,2.04,2.81-.16,.81-.54,1.21-1.15,1.21s-1.37-.25-2.28-.76c-.81-.51-1.62-.76-2.43-.76-2.33,0-4.55,.86-6.65,2.58-2.11,1.72-3.81,3.85-5.11,6.38-1.12,2.13-1.93,4.46-2.42,6.98-.76,3.95-1.05,8.02-.85,12.22,.2,4.2,.8,8.12,1.82,11.77l3.17,11.08,.9,3.19c1.28,4.35,2.23,7.95,2.85,10.78,.61,2.83,.98,6.02,1.11,9.57,.19,4.76-.13,9.31-.98,13.67-1.14,5.87-3.81,11.84-8.03,17.92-2.09,2.94-4.57,5.31-7.46,7.14-2.88,1.82-5.84,2.73-8.88,2.73-1.82,0-3.2-.08-4.13-.23Z"/>
            <path class="cls-6" d="M246.18,259.76l.94-5.62c.21-1.62,.52-3.44,.91-5.47,.2-1.01,.41-1.87,.65-2.58l.68-2.73c.2-1.01,.23-2.23,.1-3.64,1.31-6.78,3.25-19.38,5.81-37.81,2.44-17.81,4.23-29.91,5.36-36.29-6.28,0-10.45-.15-12.51-.46-1.93-.51-2.78-1.31-2.57-2.43,.72-1.11,1.79-1.67,3.21-1.67,3.04,0,7.4,.2,13.09,.61,5.16,.51,9.52,.76,13.06,.76h3.19l3.22-.15c1.82,0,2.61,.66,2.35,1.97-.12,.61-.54,1.09-1.27,1.44-.73,.36-1.55,.53-2.46,.53-2.03,0-4.13-.1-6.32-.3l-6.47-.3c-.41,0-.64,.15-.7,.46-.16,.3-.4,1.27-.71,2.88-1.9,9.82-4.18,24.7-6.83,44.64-2.89,20.65-5.2,35.48-6.95,44.49-.14,.71-.7,1.37-1.67,1.97-.98,.61-1.87,.91-2.68,.91l-1.43-1.21Z"/>
            <path class="cls-6" d="M305.43,262.72c-.34-.36-.46-1.29-.37-2.81,.52-7.39,.86-12,1.01-13.82l.42-6.07c-2.13-.51-4.61-.76-7.44-.76l-5.41-.3c-2.37-.3-4.11-.46-5.22-.46-.61,0-1.01,.25-1.21,.76-.06,.3-.14,.46-.24,.46l-.89,3.04c-.46,1.82-1.72,5.47-3.79,10.93-1.04,2.73-2.06,4.86-3.06,6.38-1.14,1.72-2.07,2.58-2.78,2.58-.61,0-1.21-.28-1.81-.83-.6-.56-.84-1.14-.72-1.75l.24-.46,.24-.46c3.21-7.19,6.12-14.32,8.7-21.41l3.65-9.41,4.06-11.54,3.61-10.02c1.04-2.73,2.8-7.14,5.29-13.21,2.75-6.88,4.52-11.59,5.32-14.12,.16-.3,.73-2.18,1.7-5.62,1.15-3.85,2.05-6.68,2.71-8.5,.81-2.63,1.41-4.15,1.79-4.56h1.06c.28,.1,.63,.15,1.03,.15,1.21,0,2.18-.3,2.91-.91,.71,0,1.3,.23,1.77,.68,.47,.46,.64,.99,.53,1.59-.94,4.86-1.67,10.43-2.17,16.7-.22,3.24-.44,5.92-.65,8.05-1.42,13.06-3.33,37.55-5.74,73.49l-.09,.46c-.2,1.01-.75,1.77-1.65,2.28-1.52,0-2.45-.18-2.78-.53Zm1.09-26.8c1.81-14.58,4.05-36.08,6.73-64.53l-16.05,40.54c-4.58,11.64-7.17,18.98-7.76,22.01-.1,.51,1.74,.96,5.5,1.37,3.77,.41,7.12,.61,10.06,.61h1.52Z"/>
            <path class="cls-6" d="M346.68,263.71c-.96-1.32-1.6-4.81-1.92-10.48-.32-5.67-.4-12.04-.24-19.13,.31-5.77,.25-11.49-.17-17.16-.23-5.06-.91-7.59-2.02-7.59h-.46c-2.23,0-3.48,.71-3.75,2.12-1.41,7.29-3.16,18.37-5.23,33.25-1.36,9.11-1.94,14.42-1.72,15.94l-1.71,2.58h-2.13l-.98-1.21c7.44-46.76,12.81-78.65,16.11-95.65,.21-1.11,.47-2.02,.76-2.73,.29-.71,.74-1.37,1.37-1.97,.54-.71,1.32-1.06,2.33-1.06,5.16,0,9.07,1.27,11.71,3.8,2.65,2.53,3.51,6.17,2.59,10.93l-2.15,11.08c-.37,1.92-1.51,4.5-3.4,7.74-1.89,3.24-3.86,6.23-5.91,8.96l-2.71,3.79c.11,5.16,.51,14.45,1.21,27.86,.69,13.41,1.11,20.52,1.26,21.33,.08,.1,.16,.36,.23,.76,.07,.41,.28,1.01,.63,1.82,.43,1.42,.55,2.63,.36,3.64-.27,1.42-.97,2.12-2.08,2.12l-1.98-.76Zm-.93-61.04c1.89-1.92,3.58-4.4,5.08-7.44,2.81-6.17,4.58-11.08,5.28-14.73,.45-2.33,.7-4.25,.74-5.77,.04-1.52-.07-3.14-.35-4.86-.53-3.54-3.07-5.31-7.62-5.31-.51,0-1,.43-1.46,1.29-.47,.86-.79,1.75-.97,2.66-1.31,6.78-2.4,12.91-3.26,18.37-.96,5.47-2.09,11.59-3.41,18.37l.24,.3c1.92,0,3.83-.96,5.72-2.88Z"/>
          </g>
          <g>
            <path class="cls-1" d="M50.11,261.66c-.36-.76-.43-1.69-.21-2.81l2.62-13.51,2.62-13.51,4.4-24.29c1.79-10.83,3.21-18.93,4.25-24.29l1.01-4.4,1.91-9.87c2.12-10.93,3.08-16.4,2.87-16.4h-17.16c-.81,0-1.5-.2-2.08-.61-.58-.4-.8-.96-.66-1.67,.16-.81,.42-1.37,.78-1.67,.36-.3,1.22-.56,2.58-.76,1.48-.3,3.53-.46,6.16-.46h15.18l16.73-.15c1.21,0,2.01,.2,2.39,.61,.38,.41,.48,1.06,.3,1.97-.29,1.52-1.4,2.28-3.33,2.28h-13.51l-1.4,.15-1.55,8.81-2.29,11.84-11.95,61.64-2.44,12.6-2.03,11.24-.06,.3c-.16,.81-.34,1.5-.55,2.05-.21,.56-.5,.99-.86,1.29-.4,.51-.96,.76-1.67,.76-1.01,0-1.7-.38-2.06-1.14Z"/>
            <path class="cls-1" d="M107.12,262.04c3.12-18.72,5.5-32.29,7.13-40.69l-.34-.61,.87-1.37c.35-1.82,.51-3.69,.48-5.62l-2.16-.61c-.97,.3-2.01,.46-3.12,.46-.81,0-2.43-.25-4.86-.76-1.62-.5-3.14-.76-4.56-.76l-1.79,.61c-.69,3.54-1.36,6.73-2.01,9.57-.65,2.83-1.32,6.02-2.01,9.57l.19,.61c-.55,2.83-1.22,7.09-2.02,12.75-.78,5.57-1.44,9.77-1.99,12.6-.22,1.12-.6,2.05-1.15,2.81-.55,.76-1.23,1.14-2.04,1.14-2.23,0-2.75-3.04-1.58-9.11,1-5.16,1.95-9.82,2.86-13.97l2.83-13.82c1.78-9.21,2.59-14.17,2.43-14.88,.7-1.01,1.6-4.35,2.7-10.02,.94-4.86,1.88-10.78,2.83-17.76l.84-5.92,1.99-11.84c.14-.71,.52-1.37,1.14-1.97,.62-.61,1.29-.91,2-.91,2.02,0,2.47,2.94,1.33,8.81-1.33,6.88-2.59,13.11-3.77,18.68-1.28,5.57-2.57,11.69-3.86,18.37-.24,1.21,3.49,1.82,11.19,1.82h.61c1.92,0,3.39-.38,4.4-1.14,1.01-.76,1.69-2.05,2.04-3.87,1.04-5.36,2.04-12.35,3-20.95,1.2-9.31,2.25-16.3,3.15-20.95,.12-.61,.47-1.14,1.07-1.59,.59-.46,1.25-.68,1.95-.68l1.28,.46c.69,.1,1.11,.25,1.28,.46-1.53,7.9-3.51,19.69-5.94,35.38-2.45,15.79-4.44,27.63-5.97,35.53-2.31,11.94-3.9,21.97-4.76,30.06l-1.39,1.67c.2-1.01-1.22-1.52-4.26-1.52Zm5.64-54.96l.25,.3h-.3l.06-.3Z"/>
            <path class="cls-1" d="M131.83,260.67l.38-1.97c.2-.5,.37-1.11,.5-1.82l-.49-.61c1.22-2.12,2.03-4.2,2.42-6.22,.45-2.33,.95-5.67,1.49-10.02l1.64-10.02c.98-5.06,2.6-12.65,4.87-22.78,2.15-9.01,3.83-16.65,5.05-22.93l1.46-9.11c.33-2.73,.81-5.77,1.46-9.11,.29-1.52,.86-2.6,1.7-3.26,.83-.66,2.01-.99,3.53-.99,1.01,0,1.76,.3,2.25,.91,.18,.1,1.61,.3,4.29,.61,2.47,.3,4.56,.76,6.26,1.37,1.8,.61,2.62,1.37,2.44,2.28-.2,1.01-1.36,2.03-3.47,3.04-5.4-1.92-9.31-2.88-11.74-2.88l-.94,.91c-.08,.91-.45,3.09-1.11,6.53-.84,4.35-1.7,8.25-2.57,11.69-.79,3.54-1.6,7.49-2.45,11.84-.55,2.83-.12,4.25,1.3,4.25l2.46-.15c.83-.1,1.7-.15,2.61-.15,3.95,0,5.75,.91,5.39,2.73-.22,1.11-.65,2.05-1.3,2.81-.65,.76-1.49,1.14-2.5,1.14-1.52,0-2.6-.4-3.26-1.21l-4.71-.76h-.76l-.91,.76-.09,.46c-.13,1.72-.8,5.72-2.02,11.99-.76,3.95-1.51,7.54-2.24,10.78l-2.24,10.78c-.77,3.95-1.4,8-1.9,12.15-.35,2.33-.14,3.87,.62,4.63,.76,.76,2.36,1.14,4.79,1.14l2.76-.15c.93-.1,1.95-.15,3.07-.15,2.93,0,4.28,.66,4.02,1.97-.35,1.82-2.76,2.73-7.21,2.73h-12.45c-1.82,0-2.63-1.06-2.42-3.19Z"/>
            <path class="cls-1" d="M193.77,265c-.93-.15-1.91-.48-2.92-.99-1.1-.61-1.84-1.47-2.23-2.58,.24-1.21,.91-1.82,2.02-1.82s2.46,.36,4.05,1.06c1.46,.81,2.75,1.21,3.86,1.21,2.22,0,4.45-.91,6.68-2.73,2.23-1.82,4.13-4.2,5.71-7.14,3.14-5.77,5.15-10.88,6.01-15.33,.96-4.96,1.22-9.97,.79-15.03-.44-5.06-1.39-9.82-2.85-14.27-.29-1.11-.83-2.78-1.61-5.01-1.55-5.06-2.71-9.01-3.47-11.84-.77-2.83-1.33-5.97-1.67-9.41-.54-4.55-.29-9.46,.73-14.73,.65-3.34,1.8-6.55,3.46-9.64,1.66-3.09,3.87-5.74,6.63-7.97,2.98-2.33,6.04-3.49,9.18-3.49,1.21,0,2.59,.48,4.12,1.44,1.53,.96,2.21,1.9,2.04,2.81-.16,.81-.54,1.21-1.15,1.21s-1.37-.25-2.28-.76c-.81-.51-1.62-.76-2.43-.76-2.33,0-4.55,.86-6.65,2.58-2.11,1.72-3.81,3.85-5.11,6.38-1.12,2.13-1.93,4.46-2.42,6.98-.76,3.95-1.05,8.02-.85,12.22,.2,4.2,.8,8.12,1.82,11.77l3.17,11.08,.9,3.19c1.28,4.35,2.23,7.95,2.85,10.78,.61,2.83,.98,6.02,1.11,9.57,.19,4.76-.13,9.31-.98,13.67-1.14,5.87-3.81,11.84-8.03,17.92-2.09,2.94-4.57,5.31-7.46,7.14-2.88,1.82-5.84,2.73-8.88,2.73-1.82,0-3.2-.08-4.13-.23Z"/>
            <path class="cls-1" d="M246.18,259.76l.94-5.62c.21-1.62,.52-3.44,.91-5.47,.2-1.01,.41-1.87,.65-2.58l.68-2.73c.2-1.01,.23-2.23,.1-3.64,1.31-6.78,3.25-19.38,5.81-37.81,2.44-17.81,4.23-29.91,5.36-36.29-6.28,0-10.45-.15-12.51-.46-1.93-.51-2.78-1.31-2.57-2.43,.72-1.11,1.79-1.67,3.21-1.67,3.04,0,7.4,.2,13.09,.61,5.16,.51,9.52,.76,13.06,.76h3.19l3.22-.15c1.82,0,2.61,.66,2.35,1.97-.12,.61-.54,1.09-1.27,1.44-.73,.36-1.55,.53-2.46,.53-2.03,0-4.13-.1-6.32-.3l-6.47-.3c-.41,0-.64,.15-.7,.46-.16,.3-.4,1.27-.71,2.88-1.9,9.82-4.18,24.7-6.83,44.64-2.89,20.65-5.2,35.48-6.95,44.49-.14,.71-.7,1.37-1.67,1.97-.98,.61-1.87,.91-2.68,.91l-1.43-1.21Z"/>
            <path class="cls-1" d="M305.43,262.72c-.34-.36-.46-1.29-.37-2.81,.52-7.39,.86-12,1.01-13.82l.42-6.07c-2.13-.51-4.61-.76-7.44-.76l-5.41-.3c-2.37-.3-4.11-.46-5.22-.46-.61,0-1.01,.25-1.21,.76-.06,.3-.14,.46-.24,.46l-.89,3.04c-.46,1.82-1.72,5.47-3.79,10.93-1.04,2.73-2.06,4.86-3.06,6.38-1.14,1.72-2.07,2.58-2.78,2.58-.61,0-1.21-.28-1.81-.83-.6-.56-.84-1.14-.72-1.75l.24-.46,.24-.46c3.21-7.19,6.12-14.32,8.7-21.41l3.65-9.41,4.06-11.54,3.61-10.02c1.04-2.73,2.8-7.14,5.29-13.21,2.75-6.88,4.52-11.59,5.32-14.12,.16-.3,.73-2.18,1.7-5.62,1.15-3.85,2.05-6.68,2.71-8.5,.81-2.63,1.41-4.15,1.79-4.56h1.06c.28,.1,.63,.15,1.03,.15,1.21,0,2.18-.3,2.91-.91,.71,0,1.3,.23,1.77,.68,.47,.46,.64,.99,.53,1.59-.94,4.86-1.67,10.43-2.17,16.7-.22,3.24-.44,5.92-.65,8.05-1.42,13.06-3.33,37.55-5.74,73.49l-.09,.46c-.2,1.01-.75,1.77-1.65,2.28-1.52,0-2.45-.18-2.78-.53Zm1.09-26.8c1.81-14.58,4.05-36.08,6.73-64.53l-16.05,40.54c-4.58,11.64-7.17,18.98-7.76,22.01-.1,.51,1.74,.96,5.5,1.37,3.77,.41,7.12,.61,10.06,.61h1.52Z"/>
            <path class="cls-1" d="M346.68,263.71c-.96-1.32-1.6-4.81-1.92-10.48-.32-5.67-.4-12.04-.24-19.13,.31-5.77,.25-11.49-.17-17.16-.23-5.06-.91-7.59-2.02-7.59h-.46c-2.23,0-3.48,.71-3.75,2.12-1.41,7.29-3.16,18.37-5.23,33.25-1.36,9.11-1.94,14.42-1.72,15.94l-1.71,2.58h-2.13l-.98-1.21c7.44-46.76,12.81-78.65,16.11-95.65,.21-1.11,.47-2.02,.76-2.73,.29-.71,.74-1.37,1.37-1.97,.54-.71,1.32-1.06,2.33-1.06,5.16,0,9.07,1.27,11.71,3.8,2.65,2.53,3.51,6.17,2.59,10.93l-2.15,11.08c-.37,1.92-1.51,4.5-3.4,7.74-1.89,3.24-3.86,6.23-5.91,8.96l-2.71,3.79c.11,5.16,.51,14.45,1.21,27.86,.69,13.41,1.11,20.52,1.26,21.33,.08,.1,.16,.36,.23,.76,.07,.41,.28,1.01,.63,1.82,.43,1.42,.55,2.63,.36,3.64-.27,1.42-.97,2.12-2.08,2.12l-1.98-.76Zm-.93-61.04c1.89-1.92,3.58-4.4,5.08-7.44,2.81-6.17,4.58-11.08,5.28-14.73,.45-2.33,.7-4.25,.74-5.77,.04-1.52-.07-3.14-.35-4.86-.53-3.54-3.07-5.31-7.62-5.31-.51,0-1,.43-1.46,1.29-.47,.86-.79,1.75-.97,2.66-1.31,6.78-2.4,12.91-3.26,18.37-.96,5.47-2.09,11.59-3.41,18.37l.24,.3c1.92,0,3.83-.96,5.72-2.88Z"/>
          </g>
          <g>
            <path class="cls-7" d="M50.11,261.66c-.36-.76-.43-1.69-.21-2.81l2.62-13.51,2.62-13.51,4.4-24.29c1.79-10.83,3.21-18.93,4.25-24.29l1.01-4.4,1.91-9.87c2.12-10.93,3.08-16.4,2.87-16.4h-17.16c-.81,0-1.5-.2-2.08-.61-.58-.4-.8-.96-.66-1.67,.16-.81,.42-1.37,.78-1.67,.36-.3,1.22-.56,2.58-.76,1.48-.3,3.53-.46,6.16-.46h15.18l16.73-.15c1.21,0,2.01,.2,2.39,.61,.38,.41,.48,1.06,.3,1.97-.29,1.52-1.4,2.28-3.33,2.28h-13.51l-1.4,.15-1.55,8.81-2.29,11.84-11.95,61.64-2.44,12.6-2.03,11.24-.06,.3c-.16,.81-.34,1.5-.55,2.05-.21,.56-.5,.99-.86,1.29-.4,.51-.96,.76-1.67,.76-1.01,0-1.7-.38-2.06-1.14Z"/>
            <path class="cls-7" d="M107.12,262.04c3.12-18.72,5.5-32.29,7.13-40.69l-.34-.61,.87-1.37c.35-1.82,.51-3.69,.48-5.62l-2.16-.61c-.97,.3-2.01,.46-3.12,.46-.81,0-2.43-.25-4.86-.76-1.62-.5-3.14-.76-4.56-.76l-1.79,.61c-.69,3.54-1.36,6.73-2.01,9.57-.65,2.83-1.32,6.02-2.01,9.57l.19,.61c-.55,2.83-1.22,7.09-2.02,12.75-.78,5.57-1.44,9.77-1.99,12.6-.22,1.12-.6,2.05-1.15,2.81-.55,.76-1.23,1.14-2.04,1.14-2.23,0-2.75-3.04-1.58-9.11,1-5.16,1.95-9.82,2.86-13.97l2.83-13.82c1.78-9.21,2.59-14.17,2.43-14.88,.7-1.01,1.6-4.35,2.7-10.02,.94-4.86,1.88-10.78,2.83-17.76l.84-5.92,1.99-11.84c.14-.71,.52-1.37,1.14-1.97,.62-.61,1.29-.91,2-.91,2.02,0,2.47,2.94,1.33,8.81-1.33,6.88-2.59,13.11-3.77,18.68-1.28,5.57-2.57,11.69-3.86,18.37-.24,1.21,3.49,1.82,11.19,1.82h.61c1.92,0,3.39-.38,4.4-1.14,1.01-.76,1.69-2.05,2.04-3.87,1.04-5.36,2.04-12.35,3-20.95,1.2-9.31,2.25-16.3,3.15-20.95,.12-.61,.47-1.14,1.07-1.59,.59-.46,1.25-.68,1.95-.68l1.28,.46c.69,.1,1.11,.25,1.28,.46-1.53,7.9-3.51,19.69-5.94,35.38-2.45,15.79-4.44,27.63-5.97,35.53-2.31,11.94-3.9,21.97-4.76,30.06l-1.39,1.67c.2-1.01-1.22-1.52-4.26-1.52Zm5.64-54.96l.25,.3h-.3l.06-.3Z"/>
            <path class="cls-7" d="M131.83,260.67l.38-1.97c.2-.5,.37-1.11,.5-1.82l-.49-.61c1.22-2.12,2.03-4.2,2.42-6.22,.45-2.33,.95-5.67,1.49-10.02l1.64-10.02c.98-5.06,2.6-12.65,4.87-22.78,2.15-9.01,3.83-16.65,5.05-22.93l1.46-9.11c.33-2.73,.81-5.77,1.46-9.11,.29-1.52,.86-2.6,1.7-3.26,.83-.66,2.01-.99,3.53-.99,1.01,0,1.76,.3,2.25,.91,.18,.1,1.61,.3,4.29,.61,2.47,.3,4.56,.76,6.26,1.37,1.8,.61,2.62,1.37,2.44,2.28-.2,1.01-1.36,2.03-3.47,3.04-5.4-1.92-9.31-2.88-11.74-2.88l-.94,.91c-.08,.91-.45,3.09-1.11,6.53-.84,4.35-1.7,8.25-2.57,11.69-.79,3.54-1.6,7.49-2.45,11.84-.55,2.83-.12,4.25,1.3,4.25l2.46-.15c.83-.1,1.7-.15,2.61-.15,3.95,0,5.75,.91,5.39,2.73-.22,1.11-.65,2.05-1.3,2.81-.65,.76-1.49,1.14-2.5,1.14-1.52,0-2.6-.4-3.26-1.21l-4.71-.76h-.76l-.91,.76-.09,.46c-.13,1.72-.8,5.72-2.02,11.99-.76,3.95-1.51,7.54-2.24,10.78l-2.24,10.78c-.77,3.95-1.4,8-1.9,12.15-.35,2.33-.14,3.87,.62,4.63,.76,.76,2.36,1.14,4.79,1.14l2.76-.15c.93-.1,1.95-.15,3.07-.15,2.93,0,4.28,.66,4.02,1.97-.35,1.82-2.76,2.73-7.21,2.73h-12.45c-1.82,0-2.63-1.06-2.42-3.19Z"/>
            <path class="cls-7" d="M193.77,265c-.93-.15-1.91-.48-2.92-.99-1.1-.61-1.84-1.47-2.23-2.58,.24-1.21,.91-1.82,2.02-1.82s2.46,.36,4.05,1.06c1.46,.81,2.75,1.21,3.86,1.21,2.22,0,4.45-.91,6.68-2.73,2.23-1.82,4.13-4.2,5.71-7.14,3.14-5.77,5.15-10.88,6.01-15.33,.96-4.96,1.22-9.97,.79-15.03-.44-5.06-1.39-9.82-2.85-14.27-.29-1.11-.83-2.78-1.61-5.01-1.55-5.06-2.71-9.01-3.47-11.84-.77-2.83-1.33-5.97-1.67-9.41-.54-4.55-.29-9.46,.73-14.73,.65-3.34,1.8-6.55,3.46-9.64,1.66-3.09,3.87-5.74,6.63-7.97,2.98-2.33,6.04-3.49,9.18-3.49,1.21,0,2.59,.48,4.12,1.44,1.53,.96,2.21,1.9,2.04,2.81-.16,.81-.54,1.21-1.15,1.21s-1.37-.25-2.28-.76c-.81-.51-1.62-.76-2.43-.76-2.33,0-4.55,.86-6.65,2.58-2.11,1.72-3.81,3.85-5.11,6.38-1.12,2.13-1.93,4.46-2.42,6.98-.76,3.95-1.05,8.02-.85,12.22,.2,4.2,.8,8.12,1.82,11.77l3.17,11.08,.9,3.19c1.28,4.35,2.23,7.95,2.85,10.78,.61,2.83,.98,6.02,1.11,9.57,.19,4.76-.13,9.31-.98,13.67-1.14,5.87-3.81,11.84-8.03,17.92-2.09,2.94-4.57,5.31-7.46,7.14-2.88,1.82-5.84,2.73-8.88,2.73-1.82,0-3.2-.08-4.13-.23Z"/>
            <path class="cls-7" d="M246.18,259.76l.94-5.62c.21-1.62,.52-3.44,.91-5.47,.2-1.01,.41-1.87,.65-2.58l.68-2.73c.2-1.01,.23-2.23,.1-3.64,1.31-6.78,3.25-19.38,5.81-37.81,2.44-17.81,4.23-29.91,5.36-36.29-6.28,0-10.45-.15-12.51-.46-1.93-.51-2.78-1.31-2.57-2.43,.72-1.11,1.79-1.67,3.21-1.67,3.04,0,7.4,.2,13.09,.61,5.16,.51,9.52,.76,13.06,.76h3.19l3.22-.15c1.82,0,2.61,.66,2.35,1.97-.12,.61-.54,1.09-1.27,1.44-.73,.36-1.55,.53-2.46,.53-2.03,0-4.13-.1-6.32-.3l-6.47-.3c-.41,0-.64,.15-.7,.46-.16,.3-.4,1.27-.71,2.88-1.9,9.82-4.18,24.7-6.83,44.64-2.89,20.65-5.2,35.48-6.95,44.49-.14,.71-.7,1.37-1.67,1.97-.98,.61-1.87,.91-2.68,.91l-1.43-1.21Z"/>
            <path class="cls-7" d="M305.43,262.72c-.34-.36-.46-1.29-.37-2.81,.52-7.39,.86-12,1.01-13.82l.42-6.07c-2.13-.51-4.61-.76-7.44-.76l-5.41-.3c-2.37-.3-4.11-.46-5.22-.46-.61,0-1.01,.25-1.21,.76-.06,.3-.14,.46-.24,.46l-.89,3.04c-.46,1.82-1.72,5.47-3.79,10.93-1.04,2.73-2.06,4.86-3.06,6.38-1.14,1.72-2.07,2.58-2.78,2.58-.61,0-1.21-.28-1.81-.83-.6-.56-.84-1.14-.72-1.75l.24-.46,.24-.46c3.21-7.19,6.12-14.32,8.7-21.41l3.65-9.41,4.06-11.54,3.61-10.02c1.04-2.73,2.8-7.14,5.29-13.21,2.75-6.88,4.52-11.59,5.32-14.12,.16-.3,.73-2.18,1.7-5.62,1.15-3.85,2.05-6.68,2.71-8.5,.81-2.63,1.41-4.15,1.79-4.56h1.06c.28,.1,.63,.15,1.03,.15,1.21,0,2.18-.3,2.91-.91,.71,0,1.3,.23,1.77,.68,.47,.46,.64,.99,.53,1.59-.94,4.86-1.67,10.43-2.17,16.7-.22,3.24-.44,5.92-.65,8.05-1.42,13.06-3.33,37.55-5.74,73.49l-.09,.46c-.2,1.01-.75,1.77-1.65,2.28-1.52,0-2.45-.18-2.78-.53Zm1.09-26.8c1.81-14.58,4.05-36.08,6.73-64.53l-16.05,40.54c-4.58,11.64-7.17,18.98-7.76,22.01-.1,.51,1.74,.96,5.5,1.37,3.77,.41,7.12,.61,10.06,.61h1.52Z"/>
            <path class="cls-7" d="M346.68,263.71c-.96-1.32-1.6-4.81-1.92-10.48-.32-5.67-.4-12.04-.24-19.13,.31-5.77,.25-11.49-.17-17.16-.23-5.06-.91-7.59-2.02-7.59h-.46c-2.23,0-3.48,.71-3.75,2.12-1.41,7.29-3.16,18.37-5.23,33.25-1.36,9.11-1.94,14.42-1.72,15.94l-1.71,2.58h-2.13l-.98-1.21c7.44-46.76,12.81-78.65,16.11-95.65,.21-1.11,.47-2.02,.76-2.73,.29-.71,.74-1.37,1.37-1.97,.54-.71,1.32-1.06,2.33-1.06,5.16,0,9.07,1.27,11.71,3.8,2.65,2.53,3.51,6.17,2.59,10.93l-2.15,11.08c-.37,1.92-1.51,4.5-3.4,7.74-1.89,3.24-3.86,6.23-5.91,8.96l-2.71,3.79c.11,5.16,.51,14.45,1.21,27.86,.69,13.41,1.11,20.52,1.26,21.33,.08,.1,.16,.36,.23,.76,.07,.41,.28,1.01,.63,1.82,.43,1.42,.55,2.63,.36,3.64-.27,1.42-.97,2.12-2.08,2.12l-1.98-.76Zm-.93-61.04c1.89-1.92,3.58-4.4,5.08-7.44,2.81-6.17,4.58-11.08,5.28-14.73,.45-2.33,.7-4.25,.74-5.77,.04-1.52-.07-3.14-.35-4.86-.53-3.54-3.07-5.31-7.62-5.31-.51,0-1,.43-1.46,1.29-.47,.86-.79,1.75-.97,2.66-1.31,6.78-2.4,12.91-3.26,18.37-.96,5.47-2.09,11.59-3.41,18.37l.24,.3c1.92,0,3.83-.96,5.72-2.88Z"/>
          </g>
        </g>
      </g>
      <g>
        <path class="cls-8" d="M202.35,41.77c2.48-.04,6.52-.86,12.86-1.73-6.34-.87-10.38-1.7-12.86-1.73-.04-2.48-.85-6.52-1.73-12.86-.88,6.34-1.7,10.38-1.73,12.86-2.48,.03-6.52,.86-12.86,1.73,6.34,.87,10.38,1.69,12.86,1.73,.04,2.47,.85,6.52,1.73,12.85,.88-6.34,1.69-10.38,1.73-12.85Z"/>
        <path class="cls-8" d="M105.52,306.26c2.48-.04,6.52-.86,12.86-1.73-6.34-.87-10.38-1.7-12.86-1.73-.04-2.47-.85-6.52-1.73-12.85-.88,6.34-1.69,10.38-1.73,12.85-2.48,.04-6.52,.86-12.86,1.73,6.34,.87,10.38,1.69,12.86,1.73,.04,2.47,.85,6.52,1.73,12.86,.88-6.34,1.69-10.38,1.73-12.86Z"/>
        <path class="cls-8" d="M398.2,33.05c2.48-.04,6.52-.86,12.86-1.73-6.34-.87-10.38-1.7-12.86-1.73-.03-2.47-.85-6.52-1.73-12.86-.88,6.34-1.69,10.38-1.73,12.86-2.48,.03-6.52,.86-12.86,1.73,6.34,.88,10.38,1.69,12.86,1.73,.04,2.47,.85,6.52,1.73,12.86,.88-6.34,1.69-10.38,1.73-12.86Z"/>
        <path class="cls-8" d="M185.23,21.42c1.66-.02,4.37-.58,8.62-1.16-4.25-.59-6.96-1.14-8.62-1.16-.02-1.66-.58-4.37-1.16-8.62-.59,4.25-1.14,6.96-1.16,8.62-1.66,.02-4.37,.58-8.62,1.16,4.25,.59,6.96,1.14,8.62,1.16,.03,1.66,.57,4.37,1.16,8.62,.58-4.25,1.14-6.96,1.16-8.62Z"/>
        <path class="cls-8" d="M202.08,7.23c1.1-.01,2.89-.38,5.7-.76-2.81-.39-4.6-.76-5.7-.77-.01-1.1-.38-2.89-.77-5.7-.39,2.81-.75,4.6-.77,5.7-1.1,.02-2.89,.38-5.7,.77,2.81,.38,4.6,.75,5.7,.76,.02,1.1,.38,2.89,.77,5.7,.39-2.81,.75-4.6,.77-5.7Z"/>
        <path class="cls-8" d="M131.03,316.85c1.1-.01,2.89-.38,5.7-.76-2.81-.39-4.6-.76-5.7-.77-.01-1.1-.38-2.89-.77-5.7-.39,2.81-.75,4.6-.77,5.7-1.1,.02-2.89,.38-5.7,.77,2.81,.38,4.6,.75,5.7,.76,.02,1.1,.38,2.89,.77,5.7,.39-2.81,.75-4.6,.77-5.7Z"/>
      </g>
    </g>
  </g>
</svg>