<?xml version="1.0" encoding="UTF-8"?>
<svg id="Layer_2" data-name="Layer 2" xmlns="http://www.w3.org/2000/svg" width="125.37" height="125.37" xmlns:xlink="http://www.w3.org/1999/xlink" viewBox="0 0 125.37 125.37">
  <defs>
    <style>
      .cls-1 {
        fill: #d5eaf0;
      }

      .cls-2 {
        fill: #992b49;
      }

      .cls-3 {
        fill: #cf2e4a;
      }

      .cls-4 {
        fill: #e9e9ef;
      }

      .cls-5 {
        fill: #fdfdfd;
      }

      .cls-6 {
        clip-path: url(#clippath);
      }

      .cls-7 {
        fill: #94c9db;
      }

      .cls-8 {
        fill: none;
      }

      .cls-9 {
        fill: #09060a;
      }
    </style>
    <clipPath id="clippath">
      <circle class="cls-8" cx="62.68" cy="62.68" r="62.68"/>
    </clipPath>
  </defs>
  <g id="Layer_3" data-name="Layer 3">
    <g>
      <circle class="cls-4" cx="62.68" cy="62.68" r="54.47"/>
      <g class="cls-6">
        <g>
          <path class="cls-9" d="M30.97,59.78c-.21-3.06,.62-6.04,.82-9.04,.57-8.73,.77-17.48,2.3-26.12,.05-.29,.04-.6,.09-.89,.78-4.28,1.01-4.39,5.33-4.11,2.54,.17,5.1,.05,7.64,.13,.83,.02,1.38-.35,1.99-.81,2.57-1.97,5.43-3.39,8.46-4.56,8.4-3.24,15.61-.41,22.44,4.3,.91,.63,1.73,1,2.81,1.06,2.54,.13,5.08,.38,7.62,.51,1.56,.08,2.42,.64,2.66,2.36,.66,4.55,1.69,9.05,1.15,13.71-.92,7.92-1.53,15.87-1.37,23.86,.23,11.36-1.37,22.38-5.65,32.95-2.32,5.72-5.32,11.05-9.26,15.82-2.59,3.14-4.11,3.41-7.4,1.09-3.39-2.39-5.7-5.42-5.54-9.92,.1-2.76-.2-5.53-.34-8.3-.04-.73,.07-1.51-1.11-1.51-1.22,0-1,.79-1.04,1.52-.16,2.99-.51,5.98-.46,8.97,.09,4.92-2.81,7.62-6.65,9.79-.95,.54-2.11,.63-2.89,1.54-.51,.6-.7,.1-1.09-.35-10.81-12.71-17.11-27.43-19.65-43.85-.21-1.37-1.01-2.6-.88-4.09,.12-1.34,.03-2.7,.03-4.05Zm6.36-37.76c-1.75,4.91-1.47,10.15-2.73,15.14,.18,.07,.36,.14,.54,.21,1.67-3.07,3.34-6.14,5.01-9.22,1.69-1.99,3.39-3.99,5.22-6.13h-8.04Zm53.17,.35c-2.37-.59-4.79-.72-7.54-.89,1.43,2.47,2.69,4.64,3.94,6.81,1.85,4.01,3.21,8.21,4.48,12.47,.84-5.97,.76-11.87-.1-17.76-.07-.47-.38-.59-.77-.62Zm-51.92,62.63c.15,.25,.37,.48,.46,.75,2.59,7.93,6.84,14.97,11.7,21.66,.29,.4,.75,.69,1.13,1.03,.3,1.12,.88,1.49,1.92,.75,.67-.47,1.37-.91,2.06-1.35,2.93-1.86,4.44-4.38,4.26-8-.15-2.97,.17-5.97,.27-8.95,.08-2.17,1.25-2.97,3.35-2.95,2.07,.02,3.22,.73,3.27,2.98,.07,3.21,.41,6.41,.41,9.62,0,4.28,2.44,6.67,6,8.34,.8,.37,1.41,.51,1.75-.5,.46-.48,.94-.95,1.37-1.46,4.26-5.15,7.31-10.96,9.38-17.29,.84-.74,.98-1.82,1.29-2.8,4.29-13.73,4.49-27.71,2.46-41.81-.37-2.56-.56-5.2-1.98-7.5-1.47-4.02-2.62-8.13-4.77-11.92-3.99-7.03-10.67-9.23-17.9-10.38-4.52-.72-8.2,1.92-11.85,4.04-5.22,3.05-9.62,7.04-12.33,12.61-1.87,1.84-2.65,4.28-3.57,6.62-4.4,11.14-4.43,22.61-2.44,34.2,.73,4.25,1.62,8.48,3.75,12.31Z"/>
          <path class="cls-3" d="M40.84,31.87c2.71-5.57,7.11-9.56,12.33-12.61,3.64-2.13,7.32-4.76,11.85-4.04,7.23,1.15,13.91,3.35,17.9,10.38,2.15,3.79,3.3,7.91,4.77,11.92,.32,5.59,.74,11.18,.92,16.78,.38,11.66,.43,23.31-3.12,34.63-.1,.33,.16,.54,.44,.69-2.08,6.34-5.12,12.15-9.38,17.29-.42,.51-.91,.97-1.37,1.46-4.26-2.04-5.73-5.47-5.27-10.05,.27-2.74,.32-5.52,.2-8.27-.08-1.89,.5-3.05,2.23-3.84,1.15-.53,2.26-1.27,2.83-2.53h-.06c.63,.46,.72-.21,1-.49,1.12-.79,2.24-1.58,3.37-2.37-2.39,.38-4.48,1.22-6.19,2.79h.03c-.42-.2-.73,.01-1.05,.25-6.82,3.23-13.68,2.21-20.54,.15-1.84-1.77-3.96-3.08-6.36-3.97,.34-.24,.09-.43-.06-.63-.02-.02-.16,0-.18,.03-.16,.31,.01,.47,.28,.57,.78,1.49,2.28,2.21,3.5,3.22,.27,.3,.44,.8,1,.43h-.06c1.18,1.82,3.26,2.39,5.01,3.33,1.54,.82,2.19,1.8,2.2,3.45,0,3.29-.07,6.58,.16,9.85,.16,2.23-.65,3.85-2.09,5.39-.98,1.05-1.97,2.03-3.23,2.73-.38-.34-.83-.63-1.13-1.03-4.87-6.7-9.11-13.73-11.7-21.66-.09-.27-.3-.5-.46-.75,0-2.73-1.11-5.23-1.57-7.86-1.82-10.3-2.67-20.63-.59-30.99,.98-4.9,2.76-9.58,4.42-14.28Zm3.16,15.9c-1.52,5.04,.03,8.57,5.28,11.08,9.64,4.6,19.4,4.34,28.9-.3,2.71-1.32,5.36-3.47,4.94-7.29,.31-.98,.76-1.91,.61-3.01-.47-3.4-.96-6.8-1.31-10.22-.16-1.57-.82-2.07-2.17-1.36-5.36,2.81-11.15,2.59-16.91,2.38-5.59-.2-11.27-.21-16.18-3.61-1.4-.97-1.79,.01-2.05,1.18-.8,3.67-.99,7.41-1.12,11.15Z"/>
          <path class="cls-2" d="M75.16,83.69c-.57,1.26-1.68,2-2.83,2.53-1.73,.8-2.31,1.95-2.23,3.84,.12,2.75,.07,5.53-.2,8.27-.45,4.58,1.01,8.01,5.27,10.05-.35,1.01-.95,.87-1.75,.5-3.56-1.67-5.99-4.06-6-8.34,0-3.21-.34-6.41-.41-9.62-.05-2.24-1.19-2.95-3.27-2.98-2.1-.02-3.27,.79-3.35,2.95-.11,2.99-.42,5.98-.27,8.95,.18,3.62-1.33,6.14-4.26,8-.69,.44-1.39,.88-2.06,1.35-1.04,.73-1.62,.37-1.92-.75,1.26-.7,2.25-1.68,3.23-2.73,1.44-1.54,2.25-3.16,2.09-5.39-.23-3.27-.15-6.57-.16-9.85,0-1.65-.66-2.63-2.2-3.45-1.75-.93-3.83-1.51-5.01-3.34,.63,.12,1.25,.24,1.88,.35,6.86,2.05,13.72,3.07,20.54-.15,.4,.11,.8,.25,1.05-.26,0,0-.03,.01-.03,.01,.63,.02,1.26,.04,1.89,.07Z"/>
          <path class="cls-2" d="M85.92,89.63c-.27-.15-.54-.36-.44-.69,3.56-11.32,3.5-22.97,3.12-34.63-.18-5.6-.61-11.19-.92-16.78,1.42,2.3,1.62,4.94,1.98,7.5,2.03,14.1,1.84,28.08-2.46,41.81-.3,.97-.45,2.06-1.29,2.8Z"/>
          <path class="cls-2" d="M40.84,31.87c-1.66,4.7-3.44,9.38-4.42,14.28-2.07,10.36-1.23,20.68,.59,30.99,.47,2.64,1.58,5.14,1.57,7.86-2.13-3.83-3.02-8.06-3.75-12.31-1.99-11.59-1.96-23.07,2.44-34.2,.92-2.34,1.7-4.78,3.57-6.62Z"/>
          <path class="cls-2" d="M90.5,22.37c.4,.04,.71,.15,.77,.62,.86,5.89,.94,11.79,.1,17.76-1.27-4.26-2.63-8.45-4.48-12.47,1.93,.15,2.82-.81,3-2.67,.11-1.09,.4-2.17,.6-3.25Z"/>
          <path class="cls-3" d="M90.5,22.37c-.21,1.08-.49,2.16-.6,3.25-.18,1.86-1.07,2.82-3,2.67-1.26-2.17-2.51-4.34-3.94-6.81,2.76,.18,5.17,.3,7.54,.89Z"/>
          <path class="cls-3" d="M37.33,22.03h8.04c-1.83,2.15-3.52,4.14-5.22,6.13-2.21-.14-2.78-1.49-2.66-3.46,.05-.88-.11-1.78-.17-2.67Z"/>
          <path class="cls-2" d="M37.33,22.03c.06,.89,.22,1.79,.17,2.67-.12,1.96,.45,3.32,2.66,3.46-1.67,3.07-3.34,6.15-5.01,9.22-.18-.07-.36-.14-.54-.21,1.26-4.99,.98-10.23,2.73-15.14Z"/>
          <path class="cls-9" d="M44,47.77c.13-3.74,.31-7.47,1.12-11.15,.26-1.17,.64-2.15,2.05-1.18,4.91,3.4,10.59,3.4,16.18,3.61,5.75,.21,11.55,.43,16.91-2.38,1.35-.71,2.01-.21,2.17,1.36,.35,3.42,.83,6.82,1.31,10.22,.15,1.1-.3,2.03-.61,3.01-1.23,2.51-3.31,4.14-5.7,5.44-8.08,4.42-16.58,4.42-24.98,1.57-4.66-1.58-8.81-4.45-8.44-10.49Zm2.8-9.65c-.76,3.85-.44,7.82-.48,11.79,0,1.01,.43,1.68,1.06,2.36,3.3,3.57,7.47,5.08,12.23,5.28,6.27,.27,12.42,.23,17.93-3.54,2.43-1.66,3.87-3.5,3.51-6.62-.25-2.15-.19-4.33-.38-6.5-.14-1.59-.76-1.58-2-1.19-10.79,3.41-21.35,2.35-31.88-1.59Z"/>
          <path class="cls-2" d="M44,47.77c-.37,6.05,3.78,8.91,8.44,10.49,8.4,2.85,16.9,2.85,24.98-1.57,2.38-1.31,4.47-2.93,5.7-5.44,.42,3.82-2.24,5.97-4.94,7.29-9.5,4.64-19.26,4.9-28.9,.3-5.25-2.5-6.79-6.04-5.28-11.08Z"/>
          <path class="cls-9" d="M51.7,84.03c-.63-.12-1.25-.24-1.88-.35,0,0,.06,.01,.06,.01-.16-.54-.55-.55-1-.43-1.22-1.01-2.71-1.73-3.5-3.22l-.04,.02c2.39,.89,4.51,2.21,6.36,3.97Z"/>
          <path class="cls-9" d="M75.16,83.69c-.63-.02-1.26-.04-1.89-.07,1.72-1.57,3.8-2.41,6.19-2.79-1.12,.79-2.24,1.58-3.37,2.37-.42,0-.89-.14-1,.49h.06Z"/>
          <path class="cls-9" d="M45.39,80.04c-.27-.11-.44-.27-.28-.57,.02-.04,.16-.06,.18-.03,.15,.19,.4,.39,.06,.63,0,0,.04-.02,.04-.02Z"/>
          <path class="cls-2" d="M48.88,83.26c.44-.11,.84-.11,1,.43-.56,.37-.73-.13-1-.43Z"/>
          <path class="cls-2" d="M75.1,83.7c.1-.63,.58-.5,1-.49-.28,.28-.36,.94-1,.49Z"/>
          <path class="cls-9" d="M73.29,83.61c-.24,.51-.65,.37-1.05,.26,.31-.24,.63-.45,1.05-.26Z"/>
          <path class="cls-7" d="M46.8,38.12c10.54,3.94,21.09,4.99,31.88,1.59,1.24-.39,1.87-.41,2,1.19,.19,2.17,.13,4.35,.38,6.5,.36,3.12-1.08,4.95-3.51,6.62-5.51,3.77-11.67,3.81-17.93,3.54-4.76-.21-8.93-1.71-12.23-5.28-.63-.68-1.07-1.35-1.06-2.36,.03-3.96-.28-7.94,.48-11.79Zm31.85,9.27c0-.37,0-.75,0-1.12-.07-4.37-.2-4.47-4.47-3.51-1.09,.24-2.19,.45-3.29,.63-7.14,1.21-14.11,.41-20.88-2.04-1.47-.53-1.79,.06-1.85,1.16-.11,2.32-.09,4.64-.15,6.96-.04,1.33,.65,1.59,1.71,1.14,5.3-2.24,10.88-1.6,16.39-1.62,2.79-.01,5.49,.65,8.08,1.64,4.48,1.73,4.46,1.77,4.47-3.24Zm-17.99,7.22c-2.45-1.48-4.65-1.89-6.75-2.59-.85-.28-1.68-.54-2.06,.5-.3,.82,.29,1.51,.98,1.81,2.37,1.02,4.8,1.36,7.82,.28Zm4.38,.5c2.45,.29,4.21,.31,5.9-.42,.24-.1,.51-.37,.57-.61,.08-.32-.22-.57-.54-.54-1.84,.2-3.78,.05-5.94,1.57Zm-1.24-.41c-.26-.67-.79-.84-1.42-.72-.54,.11-1.33,.16-1.12,.98,.18,.7,.93,.57,1.5,.54,.51-.02,1.06-.07,1.03-.8Z"/>
          <path class="cls-1" d="M78.65,47.38c0,5.01,0,4.96-4.47,3.24-2.59-1-5.28-1.66-8.08-1.64-5.51,.02-11.09-.62-16.39,1.62-1.06,.45-1.74,.19-1.71-1.14,.06-2.32,.04-4.64,.15-6.96,.05-1.1,.38-1.69,1.85-1.16,6.77,2.45,13.74,3.25,20.88,2.04,1.1-.19,2.2-.39,3.29-.63,4.27-.96,4.4-.86,4.47,3.51,0,.37,0,.75,0,1.12Z"/>
          <path class="cls-5" d="M60.66,54.6c-3.02,1.08-5.45,.74-7.82-.28-.7-.3-1.28-.98-.98-1.81,.38-1.04,1.21-.78,2.06-.5,2.09,.7,4.29,1.1,6.75,2.59Z"/>
          <path class="cls-5" d="M65.04,55.1c2.16-1.52,4.1-1.36,5.94-1.57,.32-.03,.62,.22,.54,.54-.06,.24-.33,.51-.57,.61-1.69,.72-3.46,.71-5.9,.42Z"/>
          <path class="cls-5" d="M63.8,54.69c.02,.73-.52,.78-1.03,.8-.57,.02-1.32,.16-1.5-.54-.21-.81,.58-.87,1.12-.98,.62-.13,1.15,.05,1.42,.72Z"/>
        </g>
      </g>
    </g>
  </g>
</svg>