<?xml version="1.0" encoding="UTF-8"?>
<svg id="Layer_2" data-name="Layer 2" xmlns="http://www.w3.org/2000/svg" width="125.37" height="125.37" xmlns:xlink="http://www.w3.org/1999/xlink" viewBox="0 0 125.37 125.37">
  <defs>
    <style>
      .cls-1 {
        fill: #313131;
      }

      .cls-2 {
        fill: #eaeaea;
      }

      .cls-3 {
        fill: #fdfdfd;
      }

      .cls-4 {
        fill: #e4e4e4;
      }

      .cls-5 {
        clip-path: url(#clippath);
      }

      .cls-6 {
        fill: none;
      }

      .cls-7 {
        fill: #bbb;
      }

      .cls-8 {
        fill: #070707;
      }

      .cls-9 {
        fill: #404040;
      }
    </style>
    <clipPath id="clippath">
      <circle class="cls-6" cx="62.68" cy="62.68" r="62.68"/>
    </clipPath>
  </defs>
  <g id="Layer_3" data-name="Layer 3">
    <g>
      <circle class="cls-2" cx="62.68" cy="62.68" r="54.47"/>
      <g class="cls-5">
        <g>
          <path class="cls-8" d="M80.69,85.69c2.1,3.79-.38,5.7-2.09,7.94-5.39,7.03-12.04,12.96-17.42,19.98-.85,1.11-1.36,1.1-2.04-.07-3.6-6.17-5.54-12.73-4.56-19.94,.3-2.22,2.11-3.43,3.55-4.77,1.94-1.8,2.29-3.73,1.41-6.07-.13-.35-.28-.7-.37-1.06-.84-3.61-2.32-5.99-6.48-7.33-8.02-2.58-12.49-8.68-13.11-17.28-.08-1.17-.35-2.02-1.46-2.74-1.93-1.26-3.5-2.99-5.05-4.72-.71-.79-.53-1.51-.27-2.21,3.04-8.16,7.68-15.44,12.51-22.62,1.5-2.24,3.02-4.47,4.4-6.78,.84-1.4,1.98-2.26,3.5-1.79,4.6,1.42,8.32-.34,12.29-2.45,3.28-1.74,6.94-3.28,10.87-2.74,6.56,.9,13.84,5,15.2,13.19,.34,2.08,.44,3.98,.34,6.09-.16,3.71,.02,7.48,.14,11.22,.1,3.09-.24,6.14-.69,9.18-.13,.83-.26,1.61,.26,2.37,1.64,2.39,1.33,4.76,.64,7.53-.88,3.52-.84,7.27-1.11,10.93-.35,4.78-.61,9.57-.92,14.35-.14,2.19-.94,2.78-3.1,2.11-1.92-.6-3.8-1.36-6.44-2.31ZM54.64,18.85c-1.81-.54-3.07-.11-3.94,1.74-.73,1.54-1.84,2.89-2.79,4.33-4.32,6.54-9.1,12.81-11.64,20.37-1.25,3.71-1.19,3.87,2.12,6.21,1.51,1.48,1.32-.14,1.42-.85,.73-4.79,2.43-9.25,4.74-13.48,3.48-6.37,6.96-12.74,12.38-17.82-.79-.52-1.53-.53-2.28-.5Zm2.35,74.95c-1.06,6.08,.54,11.64,3.24,17.16,.48-.45,.89-.77,1.23-1.16,4.42-4.99,8.83-9.98,13.22-14.99,1.33-1.52,2.64-3.07,3.84-4.69,1.05-1.41,.94-5.01-.2-5.52-1.82-.81-3.52-2.01-5.62-2.11-.24-.24-.49-.48-.73-.72-1.04-1.64-1.29-3.47-1.22-5.36,.04-1.25-.42-1.83-1.75-1.41-2.52,.8-5.12,1.1-7.76,.98-1.12-.05-1.76,.08-1.18,1.46,.69,1.65,1.24,3.36,1.85,5.05,.97,3.35,.07,6.1-2.55,8.38-.94,.82-1.81,1.76-2.37,2.92Zm15.69-35.48c1.28-.43,2.55-.86,4.14-1.39-1.19,2.32-3.39,3.6-3.62,5.98-.5,5.04-.91,10.08-.02,15.13-.16,.81,.03,1.41,.83,1.86,4.36,2.46,8.92,4.4,13.87,5.73,.06-.85,.12-1.51,.16-2.18,.49-7.68,.88-15.39,1.96-23.01,.54-3.81-.12-6.94-2.95-9.56-1.43-.98-1.94-3.25-3.94-3.3-6.73-.18-13.43-.17-20.07,1.41-2.61,.62-4.24,2.73-6.67,3.49,.32-1.7,1.48-2.84,2.87-3.54,1.92-.96,3.98-1.71,6.04-2.31,5.04-1.45,10.27-.71,15.39-1.16,3.58-.32,6.54,.29,8.09,3.95,.04,.09,.26,.11,.56,.22,1.09-5,.59-9.99,.72-15.6-1,1.38-1.52,2.19-2.13,2.92-.96,1.15-2.14,1.35-3.38,.49-5.11-3.53-10.96-4.98-16.92-6.18-.93-.19-1.97-.23-2.4-1.34,1.58-4.18,1.94-9.01,6.32-11.68,6.29-.42,12.15,.75,17.23,4.94-.57-2.54-1.6-4.49-3.9-5.5,.03-1.05-.87-1.31-1.54-1.73-3.92-2.48-8.19-2.69-12.56-1.69-6.31,1.44-11.33,5-15.39,9.91-4.51,5.46-7.94,11.63-10.82,18.06-2.29,5.11-3.5,10.51-2.52,16.18,.87,5.05,2.97,9.36,7.58,12.07,.97,1,2.23,1.47,3.5,1.9,4.97,1.7,9.99,1.38,15.08,.52,1.94-.33,2.28-1.06,2.33-2.86,.11-3.99-.3-8.13,2.13-11.72Zm1.47-37.49c-2.34-.93-3.37,.49-4.29,2.14-.84,1.51-1.35,3.15-1.92,4.77-.4,1.13,.08,1.4,1.09,1.6,5.47,1.1,10.85,2.49,15.65,5.52,.57,.36,1.32,.82,1.83,.17,1.74-2.2,2.99-4.65,3.23-7.49,.06-.75-.52-1.25-1.07-1.62-4.44-2.95-8.84-6.03-14.52-5.1Z"/>
          <path class="cls-9" d="M49.64,70.49c-4.61-2.71-6.71-7.02-7.58-12.07-.98-5.66,.23-11.07,2.52-16.18,2.88-6.43,6.31-12.6,10.82-18.06,4.06-4.91,9.08-8.47,15.39-9.91,4.37-.99,8.64-.79,12.56,1.69,.66,.42,1.56,.68,1.54,1.73-3.58-1.47-7.34-1.42-11.09-1.24-1.09,.05-1.97,.61-2.24,1.8-4.38,2.66-4.74,7.5-6.32,11.68-.94,2.54,1.05,2.86,2.61,3.07,5.35,.73,10.2,2.78,14.94,5.22,.98,.51,1.57,1.04,1.19,2.25-.32,1.01-.71,1.65-1.96,1.7-7.53,.3-15.01,.47-21.98,4.26-3.54,1.92-5,3.07-4.78,7.43,.45-.54,.8-.96,1.15-1.39,2.42-.76,4.06-2.86,6.67-3.49,6.64-1.58,13.34-1.59,20.07-1.41,1.99,.05,2.51,2.32,3.94,3.3-.11,.17-.36,.44-.31,.51,1.65,2.32,1.62,4.94,1.21,7.54-1.1,7.03-1.52,14.12-1.73,21.21-.06,2.02-.89,2.12-2.46,1.92-3.87-.48-7.22-2.25-10.58-4.02-.9-5.04-.49-10.09,.02-15.13,.24-2.38,2.43-3.66,3.62-5.98-1.59,.53-2.86,.96-4.14,1.39-1.95,.45-3.56,2.41-3.59,5.16-.03,3.55-1.5,5.68-4.97,6.43-.58,.12-1.14,.33-1.7,.53-4.26,1.47-8.52,.56-12.79,.05Z"/>
          <path class="cls-9" d="M71.97,81.79c.24,.24,.49,.48,.73,.72,.04,.85,.85,1.16,1.27,1.74,1.73,2.41,2.03,6.55,.42,8.34-4.33,4.81-8.85,9.45-12.86,14.69-2.8-4.18-4.55-8.53-4.53-13.48,.56-1.16,1.43-2.09,2.37-2.92,2.61-2.28,3.51-5.04,2.55-8.38,2.74-1.9,5.65-2.05,8.72-.88,.4,.15,.82,.82,1.35,.17Z"/>
          <path class="cls-1" d="M56.38,52.48c-.35,.42-.7,.85-1.15,1.39-.22-4.35,1.24-5.51,4.78-7.43,6.98-3.79,14.45-3.95,21.98-4.26,1.25-.05,1.65-.68,1.96-1.7,.38-1.21-.21-1.74-1.19-2.25-4.74-2.44-9.59-4.49-14.94-5.22-1.55-.21-3.54-.53-2.61-3.07,.43,1.11,1.47,1.15,2.4,1.34,5.95,1.2,11.81,2.65,16.92,6.18,1.24,.86,2.42,.66,3.38-.49,.61-.74,1.14-1.55,2.13-2.92-.13,5.62,.37,10.61-.72,15.6-.3-.11-.52-.13-.56-.22-1.56-3.67-4.52-4.27-8.09-3.95-5.13,.45-10.35-.29-15.39,1.16-2.07,.59-4.12,1.35-6.04,2.31-1.39,.69-2.55,1.84-2.87,3.54Z"/>
          <path class="cls-7" d="M74.15,20.83c5.68-.94,10.09,2.14,14.52,5.1,.55,.37,1.13,.86,1.07,1.62-.25,2.85-1.49,5.3-3.23,7.49-.51,.65-1.26,.19-1.83-.17-4.8-3.03-10.17-4.43-15.65-5.52-1.02-.2-1.5-.48-1.09-1.6,.58-1.62,1.08-3.26,1.92-4.77,.92-1.65,1.95-3.06,4.29-2.14Zm-.75,1.41c-1.93-.05-2.26,1.51-2.46,2.67-.25,1.45,1.15,.96,1.94,1.03,4.83,.4,9.17,1.9,12.63,5.46,.37,.38,.58,.88,1.24,.35,1.49-1.19,1.54-3.61,0-4.76-3.97-2.96-9.01-2.89-13.33-4.74Zm-.41,5.01c-.99,.15-2.02-.22-2.09,.81-.06,.8,.89,.84,1.52,.99,1.3,.3,2.6,.62,3.92,.84,.47,.08,1.17,.29,1.4-.33,.3-.78-.48-1.05-.97-1.22-1.33-.46-2.7-.79-3.78-1.09Zm6.17,2.76c1.18,1.11,2.17,1.85,3.77,1.66-.98-1.17-2.08-1.69-3.77-1.66Z"/>
          <path class="cls-1" d="M56.99,93.81c-.02,4.95,1.73,9.3,4.53,13.48,4.01-5.24,8.53-9.89,12.86-14.69,1.61-1.79,1.32-5.93-.42-8.34-.42-.58-1.22-.89-1.27-1.74,2.09,.1,3.8,1.3,5.62,2.11,1.14,.5,1.25,4.11,.2,5.52-1.2,1.62-2.51,3.17-3.84,4.69-4.39,5.01-8.81,10-13.22,14.99-.34,.38-.74,.7-1.23,1.16-2.7-5.52-4.3-11.08-3.24-17.16Z"/>
          <path class="cls-1" d="M73.18,78.05c3.36,1.77,6.71,3.55,10.58,4.02,1.57,.19,2.4,.1,2.46-1.92,.21-7.09,.63-14.18,1.73-21.21,.41-2.6,.44-5.23-1.21-7.54-.04-.06,.2-.33,.31-.51,2.82,2.62,3.49,5.76,2.95,9.56-1.08,7.62-1.48,15.32-1.96,23.01-.04,.67-.1,1.33-.16,2.18-4.95-1.34-9.51-3.27-13.87-5.73-.8-.45-.99-1.05-.83-1.86Z"/>
          <path class="cls-9" d="M38.38,51.5c-3.31-2.34-3.37-2.5-2.12-6.21,2.54-7.56,7.33-13.83,11.64-20.37,.95-1.43,2.06-2.79,2.79-4.33,.88-1.85,2.14-2.28,3.94-1.74-5.01,5.23-8.74,11.36-11.93,17.77-2.31,4.64-4.45,9.46-4.32,14.87Z"/>
          <path class="cls-1" d="M49.64,70.49c4.26,.51,8.53,1.42,12.79-.05,.56-.19,1.12-.4,1.7-.53,3.48-.74,4.94-2.88,4.97-6.43,.03-2.75,1.64-4.71,3.59-5.16-2.44,3.59-2.03,7.73-2.13,11.72-.05,1.79-.39,2.53-2.33,2.86-5.09,.86-10.11,1.19-15.08-.52-1.27-.43-2.53-.9-3.5-1.9Z"/>
          <path class="cls-1" d="M38.38,51.5c-.13-5.41,2.02-10.23,4.32-14.87,3.19-6.42,6.92-12.55,11.93-17.77,.75-.03,1.49-.02,2.28,.5-5.41,5.07-8.89,11.45-12.38,17.82-2.31,4.22-4.01,8.68-4.74,13.48-.11,.71,.09,2.33-1.42,.85Z"/>
          <path class="cls-1" d="M71.97,81.79c-.53,.65-.95-.02-1.35-.17-3.07-1.17-5.97-1.02-8.72,.88-.61-1.69-1.16-3.4-1.85-5.05-.58-1.37,.06-1.51,1.18-1.46,2.64,.12,5.24-.18,7.76-.98,1.34-.42,1.8,.16,1.75,1.41-.07,1.9,.18,3.72,1.22,5.36Z"/>
          <path class="cls-1" d="M71.55,18.26c.27-1.19,1.15-1.75,2.24-1.8,3.76-.18,7.51-.23,11.09,1.24,2.29,1.01,3.33,2.96,3.9,5.5-5.07-4.19-10.94-5.37-17.23-4.94Z"/>
          <path class="cls-4" d="M73.4,22.24c4.32,1.85,9.36,1.78,13.33,4.74,1.55,1.16,1.49,3.58,0,4.76-.66,.53-.87,.03-1.24-.35-3.45-3.56-7.8-5.06-12.63-5.46-.78-.07-2.19,.42-1.94-1.03,.2-1.16,.54-2.72,2.46-2.67Z"/>
          <path class="cls-3" d="M72.99,27.26c1.08,.3,2.46,.63,3.78,1.09,.49,.17,1.27,.44,.97,1.22-.24,.61-.94,.41-1.4,.33-1.32-.22-2.61-.54-3.92-.84-.64-.15-1.58-.19-1.52-.99,.07-1.03,1.1-.66,2.09-.81Z"/>
          <path class="cls-3" d="M79.16,30.02c1.7-.03,2.79,.49,3.77,1.66-1.6,.19-2.59-.55-3.77-1.66Z"/>
        </g>
      </g>
    </g>
  </g>
</svg>