<?xml version="1.0" encoding="UTF-8"?>
<svg id="Layer_2" data-name="Layer 2" xmlns="http://www.w3.org/2000/svg" width="125.37" height="125.37" xmlns:xlink="http://www.w3.org/1999/xlink" viewBox="0 0 125.37 125.37">
  <defs>
    <style>
      .cls-1 {
        fill: #939393;
      }

      .cls-2 {
        fill: #bababa;
      }

      .cls-3 {
        fill: #eaeaea;
      }

      .cls-4 {
        fill: #fdfdfd;
      }

      .cls-5 {
        fill: #e4e4e4;
      }

      .cls-6 {
        clip-path: url(#clippath);
      }

      .cls-7 {
        fill: none;
      }

      .cls-8 {
        fill: #bbb;
      }

      .cls-9 {
        fill: #070707;
      }
    </style>
    <clipPath id="clippath">
      <circle class="cls-7" cx="62.68" cy="62.68" r="62.68"/>
    </clipPath>
  </defs>
  <g id="Layer_3" data-name="Layer 3">
    <g>
      <circle class="cls-3" cx="62.68" cy="62.68" r="54.47"/>
      <g class="cls-6">
        <g>
          <path class="cls-9" d="M85.53,85.5c2.84,.8,5.36,1.5,7.86,2.23,2.7,.78,4.47,2.27,5.19,5.24,1.31,5.35,.82,10.72,.68,16.08-.06,2.18-.97,2.28-3.05,1.28-3.73-1.79-7.75-2.78-11.85-3.24-4.04-.44-7.92-1.56-11.85-2.48-1.17-.27-1.99-.95-2.68-1.89-2.98-4.04-5.98-8.06-8.97-12.09-.26-.35-.45-.92-.79-1.03-4.31-1.45-7.49-4.55-10.89-7.51-.72,1.44-1.46,2.65-1.95,3.96-1.62,4.38-4.97,6.46-9.3,7.57-5.82,1.49-11.72,1.47-17.63,1.37-2.13-.03-2.13-.37-.95-2.58,3.53-6.59,6.79-13.32,9.81-20.16,.88-1.98,1.76-3.96,2.6-5.96,2.57-6.12,6.9-9.83,13.76-9.97,1.38-.03,1.41-.83,1.47-1.71,.19-2.76,.3-5.53,.5-8.3,.08-1.12,.12-2.28,.48-3.32,1.34-3.84,.22-7.92,1.28-11.79,.5-1.81,.91-3.62,1.84-5.27,.66-1.18,1.45-2.12,2.93-2.03,.83,.05,1.18-.45,1.59-1.01,2.52-3.46,5.93-6.08,9.69-7.71,2.57-1.11,5.94-.84,8.83,0,3.59,1.04,7,2.58,9.18,5.9,.5,.76,1.23,.42,1.84,.37,8.38-.77,9.16-.61,12.35,7.24,4,9.86,6.57,20.18,8.52,30.64,.07,.37,.03,.76,.14,1.11,1.24,4.32,.82,5.57-2.71,8.27-3.22,2.47-6.83,3.97-10.84,4.53-.54,.08-1.27-.2-1.31,.77-.22,4.54-2.78,7.95-5.78,11.51ZM52.58,28.23c-.9,1.73-1.3,3.59-1.36,5.53-.57,1.19-.39,1.85,1.12,1.72,2.38-.21,4.76-.39,7.14-.52,1.26-.07,1.98-.68,1.99-1.91,0-1.81,.48-3.54,.84-5.28,.22-1.05,.15-1.73-1.22-1.68-1.79,.06-3.59-.11-5.37-.02-1.42,.07-2.9,.26-3.14,2.16Zm36.34,42.36c.5,.66,1.25,.42,1.85,.37,4.46-.36,8.55-1.71,11.98-4.74,1.52-1.35,1.98-2.88,1.2-4.76-.89-8.31-3.42-16.24-5.75-24.21-1.2-4.1-2.55-8.15-4.86-11.8-.56-.88-1.09-1.83-2.36-1.82-2.39,.01-4.79-.12-7.13,.52-1.36,.04-2.8-.08-3.49,1.51-.75,4-.67,8-.01,12,.93,5.68,1.46,11.43,2.8,17.05-.12,.26-.37,.54-.33,.78,.8,4.77,1.83,9.48,4.3,13.73,.4,.68,.75,1.52,1.81,1.37Zm-37.7,2.55c-1.04,1.98-.18,4.27-1.03,6.29-.07,.17,.17,.56,.36,.74,4.09,3.77,8.11,7.66,14.16,7.93,1.79,.08,3.59,.34,5.38,.3,2.97-.06,6.14,.78,8.85-.77,3.33-1.9,6.1-4.59,8.21-7.85,1.02-1.59,1.63-3.36,1.81-5.26,.06-.61,.17-1.2-.69-1.37-2.61-.54-3.48-2.67-4.23-4.81-4.25-11.97-5.82-24.43-6.43-37.02-.14-2.85-.27-5.88,1.44-8.5,.46-.51,1.33-.32,1.69-.99-4.17-6.58-18.94-6.08-22.93,1.9,1.86,.2,3.72-.06,5.58,.29,1.45,.27,2.09,.78,1.71,2.38-.42,1.79-.61,3.63-.9,5.45-.82,.74-.67,1.81-.69,2.69-.04,1.82-.85,2.46-2.59,2.55-2.46,.12-4.91,.64-7.36,.6-2.07-.04-2.81,.76-2.74,2.66-1.17,4-1.36,8.12-1.43,12.25-.04,.6,.04,1.22-.13,1.78-.54,1.77,.18,2.19,1.89,2.43,3.47,.49,6.93,1.21,10.2,2.5,3.32,1.32,5.74,3.56,6.47,7.25-.76-.3-1-1.07-1.45-1.64-1.85-2.31-4.29-3.98-7.06-4.46-4.7-.82-9.41-1.78-14.23-1.75-4.68,.03-8.2,2.33-10.15,6.22-4.06,8.07-7.61,16.39-11.37,24.61-.52,.96-1.05,1.92-1.71,3.15,6.25,.14,12.12-.06,17.78-2.05,1.62-.57,3.25-1.33,4.17-2.89,2.75-4.69,5.04-9.54,4.96-15.17-.01-.76-.36-1.69,.58-2.23,.81,.81,1.79,1.5,1.88,2.8Zm12.3,17.22c2.87,3.87,5.43,7.35,8.01,10.82,.36,.49,.83,.85,1.44,1.02,2.59,.7,5.15,1.8,7.78,2.05,5.11,.47,10.03,1.6,14.82,3.32,1.44,.52,1.68-.12,1.72-1.23,.16-4.27,.07-8.52-.91-12.72-.46-1.96-1.68-3.1-3.57-3.62-2.67-.73-5.35-1.42-7.99-2.24-1.03-.32-1.78-.21-2.62,.5-2.27,1.93-4.97,2.54-7.92,2.58-3.44,.05-6.86-.39-10.77-.47Z"/>
          <path class="cls-2" d="M64.21,31.86c.29-1.82,.47-3.67,.9-5.45,.38-1.6-.26-2.11-1.71-2.38-1.86-.35-3.72-.1-5.58-.29,3.99-7.98,18.76-8.48,22.93-1.9-.36,.67-1.23,.49-1.69,.99-1.36,.32-2.63,.82-2.97,2.34-.3,1.31-.5,2.65-.61,3.99-.89,11.61,.5,23.01,3.37,34.25,1.1,4.31,2.41,8.53,6.08,11.48,.44,.35,.52,.7,.27,1.16-2.15,3.97-4.19,8.46-8.94,9.51-7.76,1.72-15.42,1.83-20.99-5.54-1.15-1.52-2.03-3.12-2.79-4.83-.32-.73-.43-1.62-1.25-2.05-.09-1.29-1.07-1.99-1.88-2.8,.08-.89-.52-1.29-1.27-1.76-.64,3.46-1.35,6.81-2.35,10.08-1.14,3.72-3,7.68-5.99,9.46-4.79,2.85-10.53,3.68-16.16,1.42,3.76-8.22,7.31-16.54,11.37-24.61,1.95-3.88,5.47-6.19,10.15-6.22,4.82-.03,9.53,.92,14.23,1.75,2.77,.49,5.22,2.15,7.06,4.46,.45,.57,.69,1.34,1.45,1.64,0,0-.01-.03-.01-.03,.03,.18,.06,.36,.1,.55,.3,.39,.75,.63,1.13,.32,.37-.3,.23-.85,.05-1.25-2.1-4.69-4.61-9.09-9.51-11.38-3.19-1.49-6.74-1.71-10.19-2.17,.07-4.13,.26-8.25,1.43-12.25,3.49-.16,6.98-.31,10.47-.48,1.97-.09,3-1.05,2.93-3.11-.06-1.63-.02-3.27-.02-4.9Z"/>
          <path class="cls-2" d="M83.86,24.15c2.34-.64,4.74-.5,7.13-.52,1.27,0,1.8,.94,2.36,1.82,2.31,3.64,3.66,7.7,4.86,11.8,2.33,7.97,4.85,15.89,5.75,24.21-1.45,.35-2.35,1.56-3.57,2.28-6.61,3.88-8.06,2.12-9.98-3.41-2.38-6.85-3.97-13.93-5.49-21.02-1.07-5.02-1.03-10.08-1.06-15.16Z"/>
          <path class="cls-1" d="M51.22,73.14c.82,.43,.93,1.33,1.25,2.05,.76,1.71,1.65,3.31,2.79,4.83,5.57,7.37,13.23,7.27,20.99,5.54,4.75-1.06,6.79-5.55,8.94-9.51,.25-.45,.17-.8-.27-1.16-3.67-2.95-4.98-7.18-6.08-11.48-2.87-11.24-4.26-22.64-3.37-34.25,.1-1.34,.31-2.68,.61-3.99,.34-1.52,1.61-2.03,2.97-2.34-1.7,2.62-1.57,5.64-1.44,8.5,.61,12.59,2.18,25.05,6.43,37.02,.76,2.13,1.63,4.27,4.23,4.81,.85,.18,.75,.76,.69,1.37-.19,1.9-.79,3.67-1.81,5.26-2.1,3.27-4.87,5.95-8.21,7.85-2.7,1.54-5.88,.7-8.85,.77-1.79,.04-3.59-.23-5.38-.3-6.06-.26-10.08-4.15-14.16-7.93-.19-.18-.43-.57-.36-.74,.84-2.02-.01-4.31,1.03-6.29Z"/>
          <path class="cls-1" d="M83.86,24.15c.02,5.08-.02,10.14,1.06,15.16,1.52,7.09,3.11,14.17,5.49,21.02,1.92,5.53,3.37,7.29,9.98,3.41,1.22-.72,2.11-1.93,3.57-2.28,.78,1.89,.32,3.42-1.2,4.76-3.43,3.04-7.51,4.38-11.98,4.74-.6,.05-1.34,.28-1.85-.37-1.27-2.11-2.39-4.28-3.09-6.65-.9-3.07-1.79-6.15-2.68-9.23-1.34-5.62-1.87-11.37-2.8-17.05,0-4,0-8,.01-12,.69-1.59,2.13-1.47,3.49-1.51Z"/>
          <path class="cls-1" d="M63.52,90.36c3.91,.08,7.32,.52,10.77,.47,2.95-.04,5.65-.64,7.92-2.58,.83-.71,1.58-.82,2.62-.5,2.64,.82,5.32,1.51,7.99,2.24,1.89,.52,3.11,1.66,3.57,3.62,.98,4.19,1.07,8.45,.91,12.72-.04,1.12-.28,1.75-1.72,1.23-4.79-1.72-9.71-2.85-14.82-3.32-2.63-.24-5.19-1.34-7.78-2.05-.61-.17-1.08-.53-1.44-1.02-2.58-3.47-5.15-6.94-8.01-10.82Zm9.26,5.46c2.5,4.45,2.81,4.87,4.84,5.24,5.58,1.03,11.23,1.7,16.61,3.67,.9,.33,1.2,.03,1.13-.91-.26-3.75-.69-7.45-2.87-10.68-.33-.48-.75-1.25-1.16-1.27-2.79-.1-5.81-.99-8.25,.96-2.06,1.64-4.32,2.24-6.82,2.48-1.11,.11-2.21,.32-3.49,.51Z"/>
          <path class="cls-1" d="M23.57,89.54c5.63,2.26,11.37,1.43,16.16-1.42,3-1.78,4.85-5.74,5.99-9.46,1-3.27,1.71-6.62,2.35-10.08,.75,.47,1.35,.87,1.27,1.76-.94,.55-.59,1.47-.58,2.23,.08,5.63-2.21,10.48-4.96,15.17-.92,1.57-2.56,2.32-4.17,2.89-5.66,1.99-11.53,2.19-17.78,2.05,.67-1.22,1.19-2.18,1.71-3.15Z"/>
          <path class="cls-1" d="M49.4,52.6c3.46,.46,7,.68,10.19,2.17,4.9,2.29,7.41,6.69,9.51,11.38,.18,.41,.31,.96-.05,1.25-.38,.31-.83,.07-1.13-.32,.08-.16,.16-.33,.24-.49-.11-.02-.23-.04-.34-.05,0,0,.01,.03,.01,.03-.73-3.69-3.16-5.93-6.47-7.25-3.27-1.3-6.73-2.02-10.2-2.5-1.71-.24-2.42-.66-1.89-2.43,.17-.56,.09-1.18,.13-1.78Z"/>
          <path class="cls-8" d="M52.58,28.23c.23-1.89,1.72-2.08,3.14-2.16,1.79-.09,3.59,.08,5.37,.02,1.37-.05,1.44,.63,1.22,1.68-.36,1.75-.83,3.47-.84,5.28,0,1.23-.73,1.84-1.99,1.91-2.38,.13-4.76,.32-7.14,.52-1.51,.13-1.7-.53-1.12-1.72,.84,.58,1.36,.49,1.39-.65,.02-.65-.15-1.33,.28-1.92,.19,2.75,.2,2.76,2.71,1.63,.69-.31,1.39-.53,2.16-.49,2.31,.13,1.98-1.55,1.93-2.92-.07-1.9-1.3-.73-2.09-.71-.74,.02-1.5,.09-2.23,0-.95-.11-1.78-.05-2.33,.85-.16-.45,.25-1.08-.46-1.34Zm4.27-.62c-.33-.66-.91-.7-1.52-.64-.45,.04-1.03,.17-.92,.69,.15,.78,.92,.53,1.47,.56,.47,.03,.85-.12,.97-.61Z"/>
          <path class="cls-1" d="M64.21,31.86c0,1.63-.04,3.27,.02,4.9,.07,2.06-.96,3.01-2.93,3.11-3.49,.17-6.98,.32-10.47,.48-.06-1.9,.68-2.69,2.74-2.66,2.45,.04,4.9-.48,7.36-.6,1.74-.08,2.54-.72,2.59-2.55,.02-.88-.13-1.96,.69-2.69Z"/>
          <path class="cls-2" d="M83.15,54.71c.89,3.08,1.78,6.16,2.68,9.23,.7,2.37,1.82,4.54,3.09,6.65-1.06,.15-1.41-.68-1.81-1.37-2.47-4.25-3.5-8.96-4.3-13.73-.04-.23,.22-.52,.33-.78Z"/>
          <path class="cls-4" d="M52.89,31.2c-.43,.59-.26,1.27-.28,1.92-.03,1.14-.55,1.23-1.39,.65,.05-1.94,.45-3.8,1.36-5.54,.71,.26,.3,.89,.46,1.34-.05,.54-.1,1.08-.14,1.63Z"/>
          <path class="cls-2" d="M80.36,25.67c0,4,0,8-.01,12-.66-4-.74-8,.01-12Z"/>
          <path class="cls-9" d="M67.82,66.54c.11,.02,.23,.04,.34,.05-.08,.16-.16,.33-.24,.49-.03-.18-.06-.36-.1-.54Z"/>
          <path class="cls-2" d="M72.78,95.82c1.28-.19,2.38-.41,3.49-.51,2.49-.24,4.76-.84,6.82-2.48,2.44-1.95,5.45-1.06,8.25-.96,.4,.01,.83,.79,1.16,1.27,2.18,3.23,2.61,6.93,2.87,10.68,.07,.95-.23,1.24-1.13,.91-5.37-1.97-11.03-2.64-16.61-3.67-2.03-.37-2.34-.79-4.84-5.24Z"/>
          <path class="cls-5" d="M52.89,31.2c.05-.54,.1-1.08,.14-1.63,.55-.9,1.38-.96,2.33-.85,.73,.08,1.49,.02,2.23,0,.8-.03,2.02-1.19,2.09,.71,.05,1.37,.38,3.05-1.93,2.92-.76-.04-1.46,.18-2.16,.49-2.51,1.13-2.52,1.12-2.71-1.63Z"/>
          <path class="cls-4" d="M56.85,27.61c-.12,.49-.5,.64-.97,.61-.55-.04-1.32,.22-1.47-.56-.1-.52,.48-.64,.92-.69,.61-.06,1.19-.02,1.52,.64Z"/>
        </g>
      </g>
    </g>
  </g>
</svg>