<?xml version="1.0" encoding="UTF-8"?>
<svg id="Layer_2" data-name="Layer 2" xmlns="http://www.w3.org/2000/svg" width="125.37" height="125.37" xmlns:xlink="http://www.w3.org/1999/xlink" viewBox="0 0 125.37 125.37">
  <defs>
    <style>
      .cls-1 {
        fill: #767676;
      }

      .cls-2 {
        fill: #eaeaea;
      }

      .cls-3 {
        fill: #fdfdfd;
      }

      .cls-4 {
        fill: #e4e4e4;
      }

      .cls-5 {
        clip-path: url(#clippath);
      }

      .cls-6 {
        fill: none;
      }

      .cls-7 {
        fill: #bbb;
      }

      .cls-8 {
        fill: #070707;
      }

      .cls-9 {
        fill: #919191;
      }
    </style>
    <clipPath id="clippath">
      <circle class="cls-6" cx="62.68" cy="62.68" r="62.68"/>
    </clipPath>
  </defs>
  <g id="Layer_3" data-name="Layer 3">
    <g>
      <circle class="cls-2" cx="62.68" cy="62.68" r="54.47"/>
      <g class="cls-5">
        <g>
          <path class="cls-8" d="M67.61,18.01c4.41,.68,8.1,2.83,10.88,6.17,1.73,2.08,3.68,3.49,6.2,4.05,3.72,.82,5.35,2.79,5.62,6.77,.49,7.24,1.62,14.43,2.48,21.64,.03,.22-.05,.49,.06,.67,2.2,3.79,.08,6.51-2.66,8.45-5.37,3.81-5.15,8.87-4,14.33,.58,2.78,1.14,5.57,1.75,8.34,.6,2.75,.19,5.32-.99,7.86-1.49,3.21-3.41,6.15-5.37,9.06-1.58,2.34-2.64,2.37-4.58,.22-6.39-7.07-12.03-14.71-17.04-22.83-.31-.51-.62-1.02-.94-1.53-.33-.53-.86-.6-1.39-.44-.6,.18-.36,.74-.37,1.14-.09,3.97-.26,7.94-.2,11.91,.04,2.6-.8,4.52-2.86,6.2-3.7,3.02-7.33,6.11-11.41,8.61-1.55,.95-2.31,.09-2.74-1.26-.86-2.71-1.68-5.43-2.44-8.16-1.95-6.98-3.77-13.98-5.3-21.08-1.57-7.3-.17-14.17,1.29-21.11,1.82-8.67,5.46-16.58,10.8-23.69,.26-.34,.64-.79,.59-1.14-.5-3.67,2.13-5.92,3.86-8.54,1.17-1.77,3.16-1.85,5.04-1.88,1.1-.01,1.9-.22,2.69-1.14,1.42-1.64,3.42-2.34,5.54-2.64,1.83,0,3.66,.01,5.49,.02Zm-13.99,6.1c-1.16,.5-2.76-.33-3.6,1.17-.31,.47-.62,.93-.93,1.4-.9,.51-1.23,1.47-1.68,2.3-.59,1.1-.78,1.83,1.06,1.75,5.45-.24,10.9,.03,16.35,.34,3.37,.19,3.92-.47,3.58-3.98,.17-1.36-.48-2.03-1.79-2.2-1.3-.17-2.59-.4-3.89-.6-3.02-.77-6.06-.48-9.11-.19Zm28.85,5.63c-.07-.09-.14-.17-.21-.26-.04,.05-.12,.12-.11,.13,.07,.08,.15,.16,.22,.23,.47,2.64,1.47,5.15,1.91,7.82,1.41,8.48,.96,17.03,1.01,25.56,0,1.3-.13,2.62,.32,3.95,5.91-5.11,5.85-5.17,4.89-10.29-.56-7.5-1.71-14.92-2.52-22.39-.28-2.6-1.48-3.7-3.85-3.96-.46-.46-.93-.88-1.65-.8Zm-11.8,.49c-.92,2.04-1.43,4.32-4.72,3.51-5.79-1.43-11.73-.8-17.62-.82-.99,0-1.77,.23-2.06,1.3-1.77,1.95-3.1,4.2-4.33,6.51-8.61,16.23-9.93,33.1-4.31,50.54,1.39,4.31,2.17,8.81,3.99,12.99-.14,1.58,.25,2.18,1.83,1.16,3.41-2.19,6.58-4.68,9.55-7.42,1.32-1.22,2.02-2.73,2-4.58-.04-2.54-.12-5.09,.02-7.63,.2-3.68-.02-7.14-3.71-9.45,1.33-.42,1.82,.41,2.43,.9,.91,.73,1.86,1.32,3.05,1.14,1.62-.26,2.65,.47,3.61,1.69,1.02,1.3,1.9,2.67,2.74,4.08,1.13,1.88,2.01,3.94,3.7,5.44,.25,.26,.55,.49,.74,.78,2.97,4.49,6.33,8.65,10.25,12.34,1.48,2.08,1.77,2.09,3-.01,.9-1.55,1.66-3.19,2.65-4.68,2.39-3.59,2.88-7.4,1.84-11.56-1.2-4.79-1.88-9.67-2-14.62-.14-5.59-.23-11.19-.35-16.78,.27-5.93,.04-11.83-.97-17.7-1.2-7.02-4.1-12.85-11.02-15.85-3.81-1.65-7.65-2.12-11.82-.07,3.18,.45,6.01,.78,8.8,1.28,1.29,.23,3.14,.51,3.23,1.97,.11,1.8,.68,3.8-.51,5.53Z"/>
          <path class="cls-4" d="M67.61,18.01c-1.83,0-3.66-.01-5.49-.02-.12-1.04,1.7-.45,1.38-1.65,.72,.04,1.44,.09,2.15,.13,.1,1.22,1.85,.33,1.96,1.54Z"/>
          <path class="cls-9" d="M41.61,104.25c-1.82-4.18-2.6-8.68-3.99-12.99-5.62-17.44-4.3-34.31,4.31-50.54,1.22-2.3,2.56-4.56,4.33-6.51,6.66-.54,13.29-.38,19.91,.69,3.51,.57,4.94-1.03,4.5-4.67,1.19-1.73,.62-3.73,.51-5.53-.09-1.46-1.94-1.73-3.23-1.97-2.8-.51-5.62-.83-8.8-1.28,4.17-2.05,8.01-1.58,11.82,.07,6.92,3,9.82,8.83,11.02,15.85,1,5.87,1.24,11.76,.97,17.7-.32,1.76-.48,3.57-.99,5.28-2.1,6.95-1.6,13.84,.03,20.78,.64,2.73,1.7,5.38,1.65,8.29-.1,5.27-2.97,9.27-5.82,13.3-3.92-3.69-7.28-7.85-10.25-12.34-.2-.3-.49-.52-.74-.78-.03-.85-.41-1.56-.83-2.28-1.55-2.65-3.14-5.27-4.54-7.99-.99-1.92-1.82-3.69-4.52-3.23-.72,.12-1.57-.39-2.34-.68-2.96-1.12-5.92-2.26-8.87-3.4,4.93,4.33,5.1,10.33,6.03,16.04,.64,3.95-.72,7.21-3.32,10.06-2.07,2.27-4.23,4.45-6.82,6.15Z"/>
          <path class="cls-1" d="M41.61,104.25c2.59-1.7,4.75-3.88,6.82-6.15,2.6-2.84,3.96-6.11,3.32-10.06-.93-5.72-1.1-11.71-6.03-16.04,2.96,1.14,5.91,2.28,8.87,3.4,.77,.29,1.62,.8,2.34,.68,2.7-.46,3.53,1.32,4.52,3.23,1.4,2.72,3,5.35,4.54,7.99,.42,.72,.81,1.42,.83,2.28-1.69-1.5-2.57-3.56-3.7-5.44-.85-1.41-1.73-2.78-2.74-4.08-.96-1.22-1.99-1.95-3.61-1.69-1.19,.19-2.14-.41-3.05-1.14-.6-.48-1.09-1.31-2.43-.9,3.69,2.3,3.92,5.76,3.71,9.45-.14,2.54-.06,5.09-.02,7.63,.03,1.85-.67,3.36-2,4.58-2.97,2.74-6.14,5.23-9.55,7.42-1.58,1.02-1.98,.42-1.83-1.16Z"/>
          <path class="cls-1" d="M77.82,102.71c2.85-4.03,5.72-8.03,5.82-13.3,.06-2.91-1.01-5.55-1.65-8.29-1.63-6.94-2.13-13.84-.03-20.78,.52-1.7,.67-3.51,.99-5.28,.11,5.59,.21,11.19,.35,16.78,.12,4.95,.8,9.83,2,14.62,1.05,4.16,.55,7.96-1.84,11.56-.99,1.49-1.74,3.13-2.65,4.68-1.23,2.11-1.52,2.1-3,.01Z"/>
          <path class="cls-1" d="M90.49,56.89c.96,5.12,1.02,5.17-4.89,10.29-.45-1.34-.31-2.65-.32-3.95-.04-8.53,.4-17.07-1.01-25.56-.44-2.67-1.44-5.17-1.91-7.82l.1-.11c.72-.08,1.2,.33,1.65,.8,.79,2.18,1.55,4.36,1.96,6.66,1.09,6.14,1.07,12.38,1.82,18.55,.1,.8-.03,1.89,.65,2.28,.95,.54,1.2-.88,1.95-1.14Z"/>
          <path class="cls-9" d="M90.49,56.89c-.75,.26-1,1.68-1.95,1.14-.68-.39-.55-1.48-.65-2.28-.74-6.17-.73-12.41-1.82-18.55-.41-2.3-1.17-4.48-1.96-6.66,2.37,.27,3.56,1.36,3.84,3.96,.81,7.47,1.96,14.89,2.52,22.39Z"/>
          <path class="cls-7" d="M68.41,27.09c.34,3.51-.22,4.17-3.58,3.98-5.45-.31-10.9-.58-16.35-.34-1.84,.08-1.66-.65-1.06-1.75,.45-.84,.78-1.79,1.68-2.3,.35,.89-.81,3.12,1.33,2.43,4.61-1.49,9.23-1.14,13.88-.92,.64,.03,1.36,.55,1.81-.23,.55-.94-.46-1.25-.87-1.8,.82-.7,1.47-.24,1.97,.41,.34,.43,.59,.8,1.2,.53Zm-3.92,1.63c-.4,.38-1.46-.35-1.34,.55,.13,1.01,1.32,.9,2.17,.99,.58,.06,1.5,.12,1.41-.59-.16-1.29-1.48-.44-2.24-.95Z"/>
          <path class="cls-4" d="M65.24,26.16c.41,.55,1.41,.86,.87,1.8-.45,.78-1.18,.26-1.81,.23-4.66-.22-9.28-.57-13.88,.92-2.13,.69-.97-1.53-1.33-2.43,.31-.47,.62-.93,.93-1.4,2.13,.08,4.25,1.03,6.39,.07,.45-.18,1.05,.08,1.41-.53-1.29-.98-2.72-.38-4.08-.43-.06-.09-.11-.18-.13-.28,3.04-.3,6.09-.58,9.11,.19-1.03,.02-2.06,.04-3.09,.06-.36,0-.87-.05-.87,.41,0,.65,.57,.5,.99,.48,1.83,.3,3.66,.61,5.49,.91Z"/>
          <path class="cls-1" d="M70.67,30.23c.44,3.64-.99,5.24-4.5,4.67-6.62-1.07-13.24-1.23-19.91-.69,.29-1.07,1.07-1.3,2.06-1.3,5.89,.02,11.83-.6,17.62,.82,3.3,.81,3.8-1.47,4.72-3.51Z"/>
          <path class="cls-3" d="M59.63,24.36c1.03-.02,2.06-.04,3.09-.06,1.3,.2,2.59,.43,3.89,.6,1.32,.17,1.97,.83,1.79,2.19-.6,.28-.86-.09-1.2-.53-.5-.64-1.14-1.1-1.97-.41-1.83-.3-3.66-.61-5.5-.91-.04-.3-.08-.59-.12-.89Z"/>
          <path class="cls-7" d="M56.41,25.34c-2.14,.96-4.26,.02-6.39-.07,.84-1.5,2.43-.66,3.59-1.17,.02,.1,.06,.2,.13,.28,.35,1.84,1.88,.36,2.67,.95Z"/>
          <path class="cls-1" d="M82.36,29.84c-.08-.08-.16-.15-.22-.23,0,0,.07-.09,.11-.13,.07,.09,.14,.17,.21,.26,0,0-.1,.11-.1,.11Z"/>
          <path class="cls-3" d="M64.49,28.72c.76,.5,2.08-.34,2.24,.95,.09,.72-.83,.65-1.41,.59-.84-.08-2.03,.03-2.17-.99-.12-.91,.94-.17,1.34-.55Z"/>
          <path class="cls-3" d="M56.41,25.34c-.79-.59-2.32,.89-2.67-.95,1.36,.04,2.8-.56,4.08,.43-.36,.61-.96,.34-1.41,.53Z"/>
          <path class="cls-7" d="M59.63,24.36c.04,.3,.08,.59,.12,.89-.42,.02-1,.17-.99-.48,0-.46,.51-.41,.87-.41Z"/>
        </g>
      </g>
    </g>
  </g>
</svg>